<svg viewBox="0 0 911.25 400" xmlns="http://www.w3.org/2000/svg"><g><g><g><g><g><line x1="63.984375" y1="377" x2="58.984375" y2="377" style="visibility: inherit;" fill="rgb(0, 0, 0)" stroke="rgb(204, 204, 204)" stroke-width="1px"></line><line x1="63.984375" y1="339.3" x2="58.984375" y2="339.3" style="visibility: inherit;" fill="rgb(0, 0, 0)" stroke="rgb(204, 204, 204)" stroke-width="1px"></line><line x1="63.984375" y1="301.6" x2="58.984375" y2="301.6" style="visibility: inherit;" fill="rgb(0, 0, 0)" stroke="rgb(204, 204, 204)" stroke-width="1px"></line><line x1="63.984375" y1="263.9" x2="58.984375" y2="263.9" style="visibility: inherit;" fill="rgb(0, 0, 0)" stroke="rgb(204, 204, 204)" stroke-width="1px"></line><line x1="63.984375" y1="226.2" x2="58.984375" y2="226.2" style="visibility: inherit;" fill="rgb(0, 0, 0)" stroke="rgb(204, 204, 204)" stroke-width="1px"></line><line x1="63.984375" y1="188.5" x2="58.984375" y2="188.5" style="visibility: inherit;" fill="rgb(0, 0, 0)" stroke="rgb(204, 204, 204)" stroke-width="1px"></line><line x1="63.984375" y1="150.8" x2="58.984375" y2="150.8" style="visibility: inherit;" fill="rgb(0, 0, 0)" stroke="rgb(204, 204, 204)" stroke-width="1px"></line><line x1="63.984375" y1="113.10000000000002" x2="58.984375" y2="113.10000000000002" style="visibility: inherit;" fill="rgb(0, 0, 0)" stroke="rgb(204, 204, 204)" stroke-width="1px"></line><line x1="63.984375" y1="75.39999999999998" x2="58.984375" y2="75.39999999999998" style="visibility: inherit;" fill="rgb(0, 0, 0)" stroke="rgb(204, 204, 204)" stroke-width="1px"></line><line x1="63.984375" y1="37.69999999999999" x2="58.984375" y2="37.69999999999999" style="visibility: inherit;" fill="rgb(0, 0, 0)" stroke="rgb(204, 204, 204)" stroke-width="1px"></line><line x1="63.984375" y1="0" x2="58.984375" y2="0" style="visibility: inherit;" fill="rgb(0, 0, 0)" stroke="rgb(204, 204, 204)" stroke-width="1px"></line></g><g transform="translate(53.984375, 0)"><text x="0" y="377" dx="0em" dy="0.3em" style="text-anchor: end; visibility: hidden; font-family: &quot;Helvetica Neue&quot;, sans-serif; font-size: 12px; font-weight: 200;" fill="rgb(50, 49, 63)" stroke="none" stroke-width="1px">-2e+3</text><text x="0" y="339.3" dx="0em" dy="0.3em" style="text-anchor: end; visibility: inherit; font-family: &quot;Helvetica Neue&quot;, sans-serif; font-size: 12px; font-weight: 200;" fill="rgb(50, 49, 63)" stroke="none" stroke-width="1px">-1e+3</text><text x="0" y="301.6" dx="0em" dy="0.3em" style="text-anchor: end; visibility: inherit; font-family: &quot;Helvetica Neue&quot;, sans-serif; font-size: 12px; font-weight: 200;" fill="rgb(50, 49, 63)" stroke="none" stroke-width="1px">0</text><text x="0" y="263.9" dx="0em" dy="0.3em" style="text-anchor: end; visibility: inherit; font-family: &quot;Helvetica Neue&quot;, sans-serif; font-size: 12px; font-weight: 200;" fill="rgb(50, 49, 63)" stroke="none" stroke-width="1px">1e+3</text><text x="0" y="226.2" dx="0em" dy="0.3em" style="text-anchor: end; visibility: inherit; font-family: &quot;Helvetica Neue&quot;, sans-serif; font-size: 12px; font-weight: 200;" fill="rgb(50, 49, 63)" stroke="none" stroke-width="1px">2e+3</text><text x="0" y="188.5" dx="0em" dy="0.3em" style="text-anchor: end; visibility: inherit; font-family: &quot;Helvetica Neue&quot;, sans-serif; font-size: 12px; font-weight: 200;" fill="rgb(50, 49, 63)" stroke="none" stroke-width="1px">3e+3</text><text x="0" y="150.8" dx="0em" dy="0.3em" style="text-anchor: end; visibility: inherit; font-family: &quot;Helvetica Neue&quot;, sans-serif; font-size: 12px; font-weight: 200;" fill="rgb(50, 49, 63)" stroke="none" stroke-width="1px">4e+3</text><text x="0" y="113.10000000000002" dx="0em" dy="0.3em" style="text-anchor: end; visibility: inherit; font-family: &quot;Helvetica Neue&quot;, sans-serif; font-size: 12px; font-weight: 200;" fill="rgb(50, 49, 63)" stroke="none" stroke-width="1px">5e+3</text><text x="0" y="75.39999999999998" dx="0em" dy="0.3em" style="text-anchor: end; visibility: inherit; font-family: &quot;Helvetica Neue&quot;, sans-serif; font-size: 12px; font-weight: 200;" fill="rgb(50, 49, 63)" stroke="none" stroke-width="1px">6e+3</text><text x="0" y="37.69999999999999" dx="0em" dy="0.3em" style="text-anchor: end; visibility: inherit; font-family: &quot;Helvetica Neue&quot;, sans-serif; font-size: 12px; font-weight: 200;" fill="rgb(50, 49, 63)" stroke="none" stroke-width="1px">7e+3</text><text x="0" y="0" dx="0em" dy="0.3em" style="text-anchor: end; visibility: hidden; font-family: &quot;Helvetica Neue&quot;, sans-serif; font-size: 12px; font-weight: 200;" fill="rgb(50, 49, 63)" stroke="none" stroke-width="1px">8e+3</text></g><line x1="63.984375" y1="0" x2="63.984375" y2="377" fill="rgb(0, 0, 0)" stroke="rgb(204, 204, 204)" stroke-width="1px"></line></g></g><g transform="translate(63, 0)" clip-path="url(#clip_0)"><clipPath id="clip_0"><rect width="869" height="376"></rect></clipPath><g><g><g><line x1="0" y1="0" x2="0" y2="377" fill="rgb(0, 0, 0)" stroke="rgb(60, 60, 60)" stroke-width="1px" opacity="0.25"></line><line x1="108.720703125" y1="0" x2="108.720703125" y2="377" fill="rgb(0, 0, 0)" stroke="rgb(60, 60, 60)" stroke-width="1px" opacity="0.25"></line><line x1="217.44140625" y1="0" x2="217.44140625" y2="377" fill="rgb(0, 0, 0)" stroke="rgb(60, 60, 60)" stroke-width="1px" opacity="0.25"></line><line x1="326.162109375" y1="0" x2="326.162109375" y2="377" fill="rgb(0, 0, 0)" stroke="rgb(60, 60, 60)" stroke-width="1px" opacity="0.25"></line><line x1="434.8828125" y1="0" x2="434.8828125" y2="377" fill="rgb(0, 0, 0)" stroke="rgb(60, 60, 60)" stroke-width="1px" opacity="0.25"></line><line x1="543.603515625" y1="0" x2="543.603515625" y2="377" fill="rgb(0, 0, 0)" stroke="rgb(60, 60, 60)" stroke-width="1px" opacity="0.25"></line><line x1="652.32421875" y1="0" x2="652.32421875" y2="377" fill="rgb(0, 0, 0)" stroke="rgb(60, 60, 60)" stroke-width="1px" opacity="0.25"></line><line x1="761.044921875" y1="0" x2="761.044921875" y2="377" fill="rgb(0, 0, 0)" stroke="rgb(60, 60, 60)" stroke-width="1px" opacity="0.25"></line><line x1="869.765625" y1="0" x2="869.765625" y2="377" fill="rgb(0, 0, 0)" stroke="rgb(60, 60, 60)" stroke-width="1px" opacity="0.25"></line></g><g><line x1="0" y1="377" x2="869.765625" y2="377" fill="rgb(0, 0, 0)" stroke="rgb(60, 60, 60)" stroke-width="1px" opacity="0.25"></line><line x1="0" y1="339.3" x2="869.765625" y2="339.3" fill="rgb(0, 0, 0)" stroke="rgb(60, 60, 60)" stroke-width="1px" opacity="0.25"></line><line x1="0" y1="301.6" x2="869.765625" y2="301.6" fill="rgb(0, 0, 0)" stroke="rgb(60, 60, 60)" stroke-width="1px" opacity="0.25"></line><line x1="0" y1="263.9" x2="869.765625" y2="263.9" fill="rgb(0, 0, 0)" stroke="rgb(60, 60, 60)" stroke-width="1px" opacity="0.25"></line><line x1="0" y1="226.2" x2="869.765625" y2="226.2" fill="rgb(0, 0, 0)" stroke="rgb(60, 60, 60)" stroke-width="1px" opacity="0.25"></line><line x1="0" y1="188.5" x2="869.765625" y2="188.5" fill="rgb(0, 0, 0)" stroke="rgb(60, 60, 60)" stroke-width="1px" opacity="0.25"></line><line x1="0" y1="150.8" x2="869.765625" y2="150.8" fill="rgb(0, 0, 0)" stroke="rgb(60, 60, 60)" stroke-width="1px" opacity="0.25"></line><line x1="0" y1="113.10000000000002" x2="869.765625" y2="113.10000000000002" fill="rgb(0, 0, 0)" stroke="rgb(60, 60, 60)" stroke-width="1px" opacity="0.25"></line><line x1="0" y1="75.39999999999998" x2="869.765625" y2="75.39999999999998" fill="rgb(0, 0, 0)" stroke="rgb(60, 60, 60)" stroke-width="1px" opacity="0.25"></line><line x1="0" y1="37.69999999999999" x2="869.765625" y2="37.69999999999999" fill="rgb(0, 0, 0)" stroke="rgb(60, 60, 60)" stroke-width="1px" opacity="0.25"></line><line x1="0" y1="0" x2="869.765625" y2="0" fill="rgb(0, 0, 0)" stroke="rgb(60, 60, 60)" stroke-width="1px" opacity="0.25"></line></g></g></g><g><g><line x1="0" y1="301.6" x2="869.765625" y2="301.6" fill="rgb(0, 0, 0)" stroke="rgb(153, 153, 153)" stroke-width="1.5px"></line></g></g><g><g><line x1="108.720703125" y1="0" x2="108.720703125" y2="377" fill="rgb(0, 0, 0)" stroke="rgb(153, 153, 153)" stroke-width="1.5px"></line></g></g><g><g><g><g><g><path stroke="rgb(187, 187, 187)" stroke-width="2px" d="M111.43872070312499,272.7881316589355L114.15673828125,274.0705828491211L116.874755859375,288.5010919708252L120.08962705078126,302.28314941482546L122.88646713867188,303.4858723762512L125.94151889648438,287.9837892486572L128.91122490234375,282.8104341308594L131.88962856445315,284.2649030761719L134.65330883789065,277.4468428894043L137.8442614746094,284.5707691772461L140.88191791992188,277.91735195922854L144.02340263671874,277.51580231933593L146.89471640625,271.9972025024414L149.8122364746094,269.34087808227537L152.66234970703124,281.19455055541994L155.75164848632812,283.45256287841795L158.6903690917969,276.24408081054685L161.73346157226564,286.3120885498047L164.92115258789065,268.5310851196289L168.06426811523437,280.7397344787598L170.91764296875,271.7207158935547L173.74546845703125,268.4536026916504L176.47761972656252,284.68603789367677L179.49298842773436,265.91798546142576L182.54151694335937,275.23876051635744L185.37695288085936,269.25061575927737L188.30751943359374,271.6797668457031L191.25221967773436,280.5780092102051L194.3159690917969,260.88900703125L197.18673925781252,252.76331783447267L200.24070380859376,257.1963859130859L203.22345629882813,245.20800681152343L205.95234594726563,264.18619463500977L208.91281069335938,253.69792531738278L211.8797986816406,242.71001824951173L214.9821439453125,252.5076278930664L217.94043427734374,262.26297690429686L220.71281220703125,233.8110786743164L223.53030922851562,237.76951424560548L226.53426225585937,264.184464263916L229.31805585937497,264.397104321289L232.07466928710937,225.01116602783202L234.88781748046875,245.73205153808595L237.9368895996094,230.43341730957033L240.71470356445315,244.1630651611328L243.55557553710938,226.82528063964844L246.37796499023437,214.36247612304686L249.38626684570312,262.03338979492185L252.36195249023436,229.8522105102539L255.4104810058594,236.40116807861327L258.2089519042969,225.20012623291015L261.0405826171875,219.66350478515625L264.1586923828125,241.4319551147461L267.03000615234373,214.11301735839842L269.8339130859375,202.10809848632812L272.74980234375,213.4607594970703L275.9249904785156,178.3754606689453L278.64790048828127,196.07952241210938L281.4094063476562,172.3705115234375L284.1605837402344,200.5551916748047L287.0759293945312,187.74187656249998L290.1108678222656,156.4777709472656L292.8288854003906,191.21777790527344L295.5469029785156,155.53135L298.32797856445313,172.16052915039063L301.391184375,176.80471630859375L304.5777881835938,181.91686760253904L307.3132010742188,189.9656151123047L310.3307441894531,171.25160571289064L313.0596338378906,154.76526501464843L315.96302021484377,196.91388342285157L319.1632141113281,180.29063171386719L322.0943242675781,162.41304504394535L324.86072255859375,201.09107287597658L327.8217309082031,136.0066709472656L330.8479716796875,161.43349853515625L333.70841337890624,130.72861572265623L336.4519803222656,138.75654355468748L339.69457529296875,145.22369506835938L342.74582182617183,149.80752172851564L345.54646713867186,201.7869949951172L348.4656180175781,144.0266464355469L351.67777119140624,147.57547187499998L354.45449794921876,143.099775L357.54597114257814,180.78964128417968L360.7070255859375,124.09486997070312L363.8262225585937,144.05376171875L366.7301525390625,141.8201655761719L369.7357363769531,168.64192998046877L372.79568056640625,136.25048759765627L375.74581684570313,122.88156689453126L378.4649216308594,122.74582480468752L381.6297812988281,150.23341391601562L384.4130312988281,154.35292126464842L387.1479005859375,118.02695556640623L390.3399404296875,141.1800939453125L393.4335880371094,143.72235883789062L396.5609390625,118.79967670898435L399.4539969726562,139.94293383789062L402.23942138671873,127.92298466796876L404.95743896484373,119.02261845703123L407.96682802734375,141.21805166015625L410.68484560546875,134.7800771484375L413.75294384765624,113.47376015624997L416.47096142578124,127.0510433105469L419.18897900390624,132.43875620117186L421.90699658203124,106.39284233398439L424.62501416015624,117.24283974609375L427.34303173828124,138.85598466796876L430.06104931640624,113.52230258789064L432.90844453125,147.17862783203125L435.62646210937504,135.8811270019531L438.4135173339844,111.69521479492187L441.3283193847656,112.0048407714844L444.1099385742187,112.04688510742187L446.9725546875,112.80018559570317L449.80472900390623,122.73185297851563L453.0282978515625,119.48709423828126L455.7522950683594,136.47142285156252L458.5518531738281,120.03514326171876L461.6705065429687,108.44566992187498L464.55758481445315,108.31730952148439L467.4305293945312,115.7527693359375L470.1485469726563,117.11889731445314L473.0720466796875,136.22767983398438L475.85149145507813,108.862137109375L479.07669111328124,102.8883990722656L481.8898393066406,161.24016638183593L484.9845741210937,143.20965356445313L487.7031353027343,105.31688286132811L490.7146987792969,103.71397016601566L493.89097412109373,114.9662236328125L496.87100859374993,104.636791796875L499.589026171875,120.87242197265624L502.30704375000005,100.0438530761719L505.025061328125,104.7691099609375L507.8882210449219,116.33503920898437L510.9454472167968,108.4976362792969L513.6634647949219,107.4665744140625L516.6288219726563,100.46186655273436L519.4316416992187,103.45088012695317L522.1496592773437,94.76776752929686L524.8676768554687,97.86286757812502L527.5856944335937,98.629090625L530.3037120117187,95.03048940429687L533.4403042968751,99.45388857421875L536.6606115234375,103.4925931152344L539.3786291015625,94.30367832031249L542.5342475097657,97.72504536132811L545.2522650878906,99.2272099609375L548.0061604980468,98.67744897460938L551.1041569335938,95.47081362304687L554.3538187500001,116.34157412109374L557.071836328125,100.6518760253906L559.78985390625,95.499254296875L563.0009198730469,97.11518159179684L565.8118936523438,98.86731118164067L568.545675732422,112.68419550781249L571.4425388671875,105.11148413085937L574.1605564453125,102.4910027832031L576.8785740234375,94.50386752929688L579.5965916015625,99.25831982421874L582.3754927734375,98.72035849609375L585.382707421875,94.55526323242191L588.100725,99.21826357421872L590.818742578125,99.95551210937504L593.9292418945312,100.50991196289061L597.0843166992188,102.42607705078126L599.8023342773438,94.7471503417969L602.5203518554687,92.50762675781249L605.4683137207031,97.38892998046873L608.3885518066406,97.57036123046873L611.1065693847656,94.90709921875003L613.8245869628906,97.14163417968751L616.5773951660155,95.96693310546874L619.2954127441407,96.67064189453123L622.0134303222657,98.76809096679688L624.7314479003905,98.44434589843752L627.4494654785157,93.24491210937498L630.1674830566405,112.75503027343751L632.8855006347657,91.985201953125L635.8231340332031,95.04372490234374L638.5411516113281,98.31904125976558L641.2591691894531,85.70958779296876L644.5126362304687,89.30292426757813L647.2306538085937,88.5536367675781L649.9486713867187,91.7771892578125L652.6666889648437,98.29398769531252L655.7674034179688,85.94245156250003L658.5283656738281,93.95193437500001L661.6372341796875,87.15731933593753L664.3552517578125,89.5139375L667.0732693359374,105.96776010742184L669.7912869140625,112.88412700195312L672.5093044921875,89.14271767578123L675.5339144531249,87.58496030273437L678.25193203125,85.57051381835936L680.969949609375,89.23380146484374L684.20112890625,109.64131953125002L686.919146484375,86.4058228515625L689.6371640625,85.30254560546877L692.7264628417969,90.55775625000001L695.7945610839844,87.6347729003906L698.8104733886719,89.04312929687501L701.5284909667969,85.02415834960937L704.2465085449219,84.08725444335937L706.9645261230469,87.46690849609377L709.6825437011719,96.76971484375002L712.4005612792969,90.61761972656251L715.1185788574219,90.3960401855469L717.8365964355469,84.51414067382814L720.7421572265624,99.8134560058594L723.4601748046875,90.64140312500001L726.1781923828124,86.27816196289064L728.8962099609375,87.02367578125L731.9865959472656,85.0744127441406L734.7551686523437,82.64782500000001L737.5427674804688,87.08663183593751L740.7054527343751,92.29304233398437L743.4234703125001,85.32664194335939L746.141487890625,104.01361889648439L749.0046476074219,94.63491552734371L751.7226651855468,94.81977070312502L754.4406827636719,85.99953540039064L757.1587003417968,85.31399550781248L759.8767179199219,83.89593798828122L762.8339210449218,82.77060771484372L765.5519386230469,86.7734530761719L768.2699562011719,96.57985263671873L771.4375338867187,82.95183647460937L774.1555514648437,83.1394712890625L776.8735690429688,84.62889741210938L779.5915866210937,84.22275722656246L782.44115625,80.04000849609378L785.159173828125,98.07202158203125L788.003307421875,82.06932880859375L790.9741006347657,88.61508334960939L793.6921182128906,84.09800483398436L796.5547343261719,100.78767333984376L799.2727519042968,83.4329532714844L801.9907694824219,78.52573129882813L804.7408596679687,81.33195141601561L807.4588772460938,79.88182680664062L810.1768948242187,78.66758491210936L812.8949124023437,81.25496831054687L816.153271875,109.83177080078127L818.871289453125,80.81276645507813L821.58930703125,83.3966891113281L824.307324609375,100.10209663085936L827.0253421875001,84.23464892578124" style="fill: none;" fill="none"></path></g></g></g></g></g></g><g transform="translate(63, 377)" clip-path="url(#clip_1)"><clipPath id="clip_1"><rect width="869" height="22"></rect></clipPath><g><g><line x1="0" y1="0" x2="0" y2="5" style="visibility: inherit;" fill="rgb(0, 0, 0)" stroke="rgb(204, 204, 204)" stroke-width="1px"></line><line x1="108.720703125" y1="0" x2="108.720703125" y2="5" style="visibility: inherit;" fill="rgb(0, 0, 0)" stroke="rgb(204, 204, 204)" stroke-width="1px"></line><line x1="217.44140625" y1="0" x2="217.44140625" y2="5" style="visibility: inherit;" fill="rgb(0, 0, 0)" stroke="rgb(204, 204, 204)" stroke-width="1px"></line><line x1="326.162109375" y1="0" x2="326.162109375" y2="5" style="visibility: inherit;" fill="rgb(0, 0, 0)" stroke="rgb(204, 204, 204)" stroke-width="1px"></line><line x1="434.8828125" y1="0" x2="434.8828125" y2="5" style="visibility: inherit;" fill="rgb(0, 0, 0)" stroke="rgb(204, 204, 204)" stroke-width="1px"></line><line x1="543.603515625" y1="0" x2="543.603515625" y2="5" style="visibility: inherit;" fill="rgb(0, 0, 0)" stroke="rgb(204, 204, 204)" stroke-width="1px"></line><line x1="652.32421875" y1="0" x2="652.32421875" y2="5" style="visibility: inherit;" fill="rgb(0, 0, 0)" stroke="rgb(204, 204, 204)" stroke-width="1px"></line><line x1="761.044921875" y1="0" x2="761.044921875" y2="5" style="visibility: inherit;" fill="rgb(0, 0, 0)" stroke="rgb(204, 204, 204)" stroke-width="1px"></line><line x1="869.765625" y1="0" x2="869.765625" y2="5" style="visibility: inherit;" fill="rgb(0, 0, 0)" stroke="rgb(204, 204, 204)" stroke-width="1px"></line></g><g transform="translate(0, 8)"><text x="0" y="0" dx="0em" dy="0.95em" style="text-anchor: middle; visibility: hidden; font-family: &quot;Helvetica Neue&quot;, sans-serif; font-size: 12px; font-weight: 200;" fill="rgb(50, 49, 63)" stroke="none" stroke-width="1px">-200k</text><text x="108.720703125" y="0" dx="0em" dy="0.95em" style="text-anchor: middle; visibility: inherit; font-family: &quot;Helvetica Neue&quot;, sans-serif; font-size: 12px; font-weight: 200;" fill="rgb(50, 49, 63)" stroke="none" stroke-width="1px">0</text><text x="217.44140625" y="0" dx="0em" dy="0.95em" style="text-anchor: middle; visibility: inherit; font-family: &quot;Helvetica Neue&quot;, sans-serif; font-size: 12px; font-weight: 200;" fill="rgb(50, 49, 63)" stroke="none" stroke-width="1px">200k</text><text x="326.162109375" y="0" dx="0em" dy="0.95em" style="text-anchor: middle; visibility: inherit; font-family: &quot;Helvetica Neue&quot;, sans-serif; font-size: 12px; font-weight: 200;" fill="rgb(50, 49, 63)" stroke="none" stroke-width="1px">400k</text><text x="434.8828125" y="0" dx="0em" dy="0.95em" style="text-anchor: middle; visibility: inherit; font-family: &quot;Helvetica Neue&quot;, sans-serif; font-size: 12px; font-weight: 200;" fill="rgb(50, 49, 63)" stroke="none" stroke-width="1px">600k</text><text x="543.603515625" y="0" dx="0em" dy="0.95em" style="text-anchor: middle; visibility: inherit; font-family: &quot;Helvetica Neue&quot;, sans-serif; font-size: 12px; font-weight: 200;" fill="rgb(50, 49, 63)" stroke="none" stroke-width="1px">800k</text><text x="652.32421875" y="0" dx="0em" dy="0.95em" style="text-anchor: middle; visibility: inherit; font-family: &quot;Helvetica Neue&quot;, sans-serif; font-size: 12px; font-weight: 200;" fill="rgb(50, 49, 63)" stroke="none" stroke-width="1px">1M</text><text x="761.044921875" y="0" dx="0em" dy="0.95em" style="text-anchor: middle; visibility: inherit; font-family: &quot;Helvetica Neue&quot;, sans-serif; font-size: 12px; font-weight: 200;" fill="rgb(50, 49, 63)" stroke="none" stroke-width="1px">1.2M</text><text x="869.765625" y="0" dx="0em" dy="0.95em" style="text-anchor: middle; visibility: hidden; font-family: &quot;Helvetica Neue&quot;, sans-serif; font-size: 12px; font-weight: 200;" fill="rgb(50, 49, 63)" stroke="none" stroke-width="1px">1.4M</text></g><line x1="0" y1="0" x2="869.765625" y2="0" fill="rgb(0, 0, 0)" stroke="rgb(204, 204, 204)" stroke-width="1px"></line></g></g></g></g></svg>