<svg viewBox="0 0 911.25 400" xmlns="http://www.w3.org/2000/svg"><g><g><g><g><g><line x1="74.78125" y1="377" x2="69.78125" y2="377" style="visibility: inherit;" fill="rgb(0, 0, 0)" stroke="rgb(204, 204, 204)" stroke-width="1px"></line><line x1="74.78125" y1="350.07142857142856" x2="69.78125" y2="350.07142857142856" style="visibility: inherit;" fill="rgb(0, 0, 0)" stroke="rgb(204, 204, 204)" stroke-width="1px"></line><line x1="74.78125" y1="323.14285714285717" x2="69.78125" y2="323.14285714285717" style="visibility: inherit;" fill="rgb(0, 0, 0)" stroke="rgb(204, 204, 204)" stroke-width="1px"></line><line x1="74.78125" y1="296.2142857142857" x2="69.78125" y2="296.2142857142857" style="visibility: inherit;" fill="rgb(0, 0, 0)" stroke="rgb(204, 204, 204)" stroke-width="1px"></line><line x1="74.78125" y1="269.2857142857143" x2="69.78125" y2="269.2857142857143" style="visibility: inherit;" fill="rgb(0, 0, 0)" stroke="rgb(204, 204, 204)" stroke-width="1px"></line><line x1="74.78125" y1="242.35714285714286" x2="69.78125" y2="242.35714285714286" style="visibility: inherit;" fill="rgb(0, 0, 0)" stroke="rgb(204, 204, 204)" stroke-width="1px"></line><line x1="74.78125" y1="215.42857142857144" x2="69.78125" y2="215.42857142857144" style="visibility: inherit;" fill="rgb(0, 0, 0)" stroke="rgb(204, 204, 204)" stroke-width="1px"></line><line x1="74.78125" y1="188.5" x2="69.78125" y2="188.5" style="visibility: inherit;" fill="rgb(0, 0, 0)" stroke="rgb(204, 204, 204)" stroke-width="1px"></line><line x1="74.78125" y1="161.57142857142858" x2="69.78125" y2="161.57142857142858" style="visibility: inherit;" fill="rgb(0, 0, 0)" stroke="rgb(204, 204, 204)" stroke-width="1px"></line><line x1="74.78125" y1="134.64285714285714" x2="69.78125" y2="134.64285714285714" style="visibility: inherit;" fill="rgb(0, 0, 0)" stroke="rgb(204, 204, 204)" stroke-width="1px"></line><line x1="74.78125" y1="107.71428571428572" x2="69.78125" y2="107.71428571428572" style="visibility: inherit;" fill="rgb(0, 0, 0)" stroke="rgb(204, 204, 204)" stroke-width="1px"></line><line x1="74.78125" y1="80.78571428571428" x2="69.78125" y2="80.78571428571428" style="visibility: inherit;" fill="rgb(0, 0, 0)" stroke="rgb(204, 204, 204)" stroke-width="1px"></line><line x1="74.78125" y1="53.85714285714289" x2="69.78125" y2="53.85714285714289" style="visibility: inherit;" fill="rgb(0, 0, 0)" stroke="rgb(204, 204, 204)" stroke-width="1px"></line><line x1="74.78125" y1="26.928571428571445" x2="69.78125" y2="26.928571428571445" style="visibility: inherit;" fill="rgb(0, 0, 0)" stroke="rgb(204, 204, 204)" stroke-width="1px"></line><line x1="74.78125" y1="0" x2="69.78125" y2="0" style="visibility: inherit;" fill="rgb(0, 0, 0)" stroke="rgb(204, 204, 204)" stroke-width="1px"></line></g><g transform="translate(64.78125, 0)"><text x="0" y="377" dx="0em" dy="0.3em" style="text-anchor: end; visibility: hidden; font-family: &quot;Helvetica Neue&quot;, sans-serif; font-size: 12px; font-weight: 200;" fill="rgb(50, 49, 63)" stroke="none" stroke-width="1px">-3e+3</text><text x="0" y="350.07142857142856" dx="0em" dy="0.3em" style="text-anchor: end; visibility: inherit; font-family: &quot;Helvetica Neue&quot;, sans-serif; font-size: 12px; font-weight: 200;" fill="rgb(50, 49, 63)" stroke="none" stroke-width="1px">-2e+3</text><text x="0" y="323.14285714285717" dx="0em" dy="0.3em" style="text-anchor: end; visibility: inherit; font-family: &quot;Helvetica Neue&quot;, sans-serif; font-size: 12px; font-weight: 200;" fill="rgb(50, 49, 63)" stroke="none" stroke-width="1px">-1e+3</text><text x="0" y="296.2142857142857" dx="0em" dy="0.3em" style="text-anchor: end; visibility: inherit; font-family: &quot;Helvetica Neue&quot;, sans-serif; font-size: 12px; font-weight: 200;" fill="rgb(50, 49, 63)" stroke="none" stroke-width="1px">0</text><text x="0" y="269.2857142857143" dx="0em" dy="0.3em" style="text-anchor: end; visibility: inherit; font-family: &quot;Helvetica Neue&quot;, sans-serif; font-size: 12px; font-weight: 200;" fill="rgb(50, 49, 63)" stroke="none" stroke-width="1px">1e+3</text><text x="0" y="242.35714285714286" dx="0em" dy="0.3em" style="text-anchor: end; visibility: inherit; font-family: &quot;Helvetica Neue&quot;, sans-serif; font-size: 12px; font-weight: 200;" fill="rgb(50, 49, 63)" stroke="none" stroke-width="1px">2e+3</text><text x="0" y="215.42857142857144" dx="0em" dy="0.3em" style="text-anchor: end; visibility: inherit; font-family: &quot;Helvetica Neue&quot;, sans-serif; font-size: 12px; font-weight: 200;" fill="rgb(50, 49, 63)" stroke="none" stroke-width="1px">3e+3</text><text x="0" y="188.5" dx="0em" dy="0.3em" style="text-anchor: end; visibility: inherit; font-family: &quot;Helvetica Neue&quot;, sans-serif; font-size: 12px; font-weight: 200;" fill="rgb(50, 49, 63)" stroke="none" stroke-width="1px">4e+3</text><text x="0" y="161.57142857142858" dx="0em" dy="0.3em" style="text-anchor: end; visibility: inherit; font-family: &quot;Helvetica Neue&quot;, sans-serif; font-size: 12px; font-weight: 200;" fill="rgb(50, 49, 63)" stroke="none" stroke-width="1px">5e+3</text><text x="0" y="134.64285714285714" dx="0em" dy="0.3em" style="text-anchor: end; visibility: inherit; font-family: &quot;Helvetica Neue&quot;, sans-serif; font-size: 12px; font-weight: 200;" fill="rgb(50, 49, 63)" stroke="none" stroke-width="1px">6e+3</text><text x="0" y="107.71428571428572" dx="0em" dy="0.3em" style="text-anchor: end; visibility: inherit; font-family: &quot;Helvetica Neue&quot;, sans-serif; font-size: 12px; font-weight: 200;" fill="rgb(50, 49, 63)" stroke="none" stroke-width="1px">7e+3</text><text x="0" y="80.78571428571428" dx="0em" dy="0.3em" style="text-anchor: end; visibility: inherit; font-family: &quot;Helvetica Neue&quot;, sans-serif; font-size: 12px; font-weight: 200;" fill="rgb(50, 49, 63)" stroke="none" stroke-width="1px">8e+3</text><text x="0" y="53.85714285714289" dx="0em" dy="0.3em" style="text-anchor: end; visibility: inherit; font-family: &quot;Helvetica Neue&quot;, sans-serif; font-size: 12px; font-weight: 200;" fill="rgb(50, 49, 63)" stroke="none" stroke-width="1px">9e+3</text><text x="0" y="26.928571428571445" dx="0em" dy="0.3em" style="text-anchor: end; visibility: inherit; font-family: &quot;Helvetica Neue&quot;, sans-serif; font-size: 12px; font-weight: 200;" fill="rgb(50, 49, 63)" stroke="none" stroke-width="1px">1e+4</text><text x="0" y="0" dx="0em" dy="0.3em" style="text-anchor: end; visibility: hidden; font-family: &quot;Helvetica Neue&quot;, sans-serif; font-size: 12px; font-weight: 200;" fill="rgb(50, 49, 63)" stroke="none" stroke-width="1px">1.1e+4</text></g><line x1="74.78125" y1="0" x2="74.78125" y2="377" fill="rgb(0, 0, 0)" stroke="rgb(204, 204, 204)" stroke-width="1px"></line></g></g><g transform="translate(74, 0)" clip-path="url(#clip_0)"><clipPath id="clip_0"><rect width="836" height="376"></rect></clipPath><g><g><g><line x1="0" y1="0" x2="0" y2="377" fill="rgb(0, 0, 0)" stroke="rgb(60, 60, 60)" stroke-width="1px" opacity="0.25"></line><line x1="59.747767857142854" y1="0" x2="59.747767857142854" y2="377" fill="rgb(0, 0, 0)" stroke="rgb(60, 60, 60)" stroke-width="1px" opacity="0.25"></line><line x1="119.49553571428571" y1="0" x2="119.49553571428571" y2="377" fill="rgb(0, 0, 0)" stroke="rgb(60, 60, 60)" stroke-width="1px" opacity="0.25"></line><line x1="179.24330357142856" y1="0" x2="179.24330357142856" y2="377" fill="rgb(0, 0, 0)" stroke="rgb(60, 60, 60)" stroke-width="1px" opacity="0.25"></line><line x1="238.99107142857142" y1="0" x2="238.99107142857142" y2="377" fill="rgb(0, 0, 0)" stroke="rgb(60, 60, 60)" stroke-width="1px" opacity="0.25"></line><line x1="298.7388392857143" y1="0" x2="298.7388392857143" y2="377" fill="rgb(0, 0, 0)" stroke="rgb(60, 60, 60)" stroke-width="1px" opacity="0.25"></line><line x1="358.4866071428571" y1="0" x2="358.4866071428571" y2="377" fill="rgb(0, 0, 0)" stroke="rgb(60, 60, 60)" stroke-width="1px" opacity="0.25"></line><line x1="418.234375" y1="0" x2="418.234375" y2="377" fill="rgb(0, 0, 0)" stroke="rgb(60, 60, 60)" stroke-width="1px" opacity="0.25"></line><line x1="477.98214285714283" y1="0" x2="477.98214285714283" y2="377" fill="rgb(0, 0, 0)" stroke="rgb(60, 60, 60)" stroke-width="1px" opacity="0.25"></line><line x1="537.7299107142858" y1="0" x2="537.7299107142858" y2="377" fill="rgb(0, 0, 0)" stroke="rgb(60, 60, 60)" stroke-width="1px" opacity="0.25"></line><line x1="597.4776785714286" y1="0" x2="597.4776785714286" y2="377" fill="rgb(0, 0, 0)" stroke="rgb(60, 60, 60)" stroke-width="1px" opacity="0.25"></line><line x1="657.2254464285714" y1="0" x2="657.2254464285714" y2="377" fill="rgb(0, 0, 0)" stroke="rgb(60, 60, 60)" stroke-width="1px" opacity="0.25"></line><line x1="716.9732142857142" y1="0" x2="716.9732142857142" y2="377" fill="rgb(0, 0, 0)" stroke="rgb(60, 60, 60)" stroke-width="1px" opacity="0.25"></line><line x1="776.7209821428572" y1="0" x2="776.7209821428572" y2="377" fill="rgb(0, 0, 0)" stroke="rgb(60, 60, 60)" stroke-width="1px" opacity="0.25"></line><line x1="836.46875" y1="0" x2="836.46875" y2="377" fill="rgb(0, 0, 0)" stroke="rgb(60, 60, 60)" stroke-width="1px" opacity="0.25"></line></g><g><line x1="0" y1="377" x2="836.46875" y2="377" fill="rgb(0, 0, 0)" stroke="rgb(60, 60, 60)" stroke-width="1px" opacity="0.25"></line><line x1="0" y1="350.07142857142856" x2="836.46875" y2="350.07142857142856" fill="rgb(0, 0, 0)" stroke="rgb(60, 60, 60)" stroke-width="1px" opacity="0.25"></line><line x1="0" y1="323.14285714285717" x2="836.46875" y2="323.14285714285717" fill="rgb(0, 0, 0)" stroke="rgb(60, 60, 60)" stroke-width="1px" opacity="0.25"></line><line x1="0" y1="296.2142857142857" x2="836.46875" y2="296.2142857142857" fill="rgb(0, 0, 0)" stroke="rgb(60, 60, 60)" stroke-width="1px" opacity="0.25"></line><line x1="0" y1="269.2857142857143" x2="836.46875" y2="269.2857142857143" fill="rgb(0, 0, 0)" stroke="rgb(60, 60, 60)" stroke-width="1px" opacity="0.25"></line><line x1="0" y1="242.35714285714286" x2="836.46875" y2="242.35714285714286" fill="rgb(0, 0, 0)" stroke="rgb(60, 60, 60)" stroke-width="1px" opacity="0.25"></line><line x1="0" y1="215.42857142857144" x2="836.46875" y2="215.42857142857144" fill="rgb(0, 0, 0)" stroke="rgb(60, 60, 60)" stroke-width="1px" opacity="0.25"></line><line x1="0" y1="188.5" x2="836.46875" y2="188.5" fill="rgb(0, 0, 0)" stroke="rgb(60, 60, 60)" stroke-width="1px" opacity="0.25"></line><line x1="0" y1="161.57142857142858" x2="836.46875" y2="161.57142857142858" fill="rgb(0, 0, 0)" stroke="rgb(60, 60, 60)" stroke-width="1px" opacity="0.25"></line><line x1="0" y1="134.64285714285714" x2="836.46875" y2="134.64285714285714" fill="rgb(0, 0, 0)" stroke="rgb(60, 60, 60)" stroke-width="1px" opacity="0.25"></line><line x1="0" y1="107.71428571428572" x2="836.46875" y2="107.71428571428572" fill="rgb(0, 0, 0)" stroke="rgb(60, 60, 60)" stroke-width="1px" opacity="0.25"></line><line x1="0" y1="80.78571428571428" x2="836.46875" y2="80.78571428571428" fill="rgb(0, 0, 0)" stroke="rgb(60, 60, 60)" stroke-width="1px" opacity="0.25"></line><line x1="0" y1="53.85714285714289" x2="836.46875" y2="53.85714285714289" fill="rgb(0, 0, 0)" stroke="rgb(60, 60, 60)" stroke-width="1px" opacity="0.25"></line><line x1="0" y1="26.928571428571445" x2="836.46875" y2="26.928571428571445" fill="rgb(0, 0, 0)" stroke="rgb(60, 60, 60)" stroke-width="1px" opacity="0.25"></line><line x1="0" y1="0" x2="836.46875" y2="0" fill="rgb(0, 0, 0)" stroke="rgb(60, 60, 60)" stroke-width="1px" opacity="0.25"></line></g></g></g><g><g><line x1="0" y1="296.2142857142857" x2="836.46875" y2="296.2142857142857" fill="rgb(0, 0, 0)" stroke="rgb(153, 153, 153)" stroke-width="1.5px"></line></g></g><g><g><line x1="59.747767857142854" y1="0" x2="59.747767857142854" y2="377" fill="rgb(0, 0, 0)" stroke="rgb(153, 153, 153)" stroke-width="1.5px"></line></g></g><g><g><g><g><g><path stroke="rgb(51, 187, 238)" stroke-width="2px" d="M62.735156249999996,311.4508524126325L65.72254464285714,307.2697931278774L68.70993303571429,282.2725224391392L71.69732142857143,254.16588024902342L74.68470982142857,250.636800894601L77.67209821428571,241.8174965209961L80.65948660714287,257.32490212576727L83.64687500000001,245.79761629813058L86.63426339285715,259.6797419259208L89.62165178571428,229.56073304966517L92.60904017857142,226.38418722098214L95.59642857142858,209.6433596888951L98.58381696428572,202.52920059640067L101.57120535714286,217.9553800048828L104.55859375,202.28592304338727L107.54598214285713,191.1219526890346L110.53337053571428,192.1208278111049L113.52075892857142,198.52153097098213L116.50814732142858,190.64323421805247L119.49553571428571,182.860462890625L122.48292410714286,183.67922031947543L125.47031249999999,184.2535431082589L128.45770089285716,178.98791605050224L131.4450892857143,190.44249276297433L134.43247767857144,174.43939369419644L137.41986607142857,178.62176374162945L140.4072544642857,194.26195166015626L143.39464285714286,171.60726534598214L146.38203124999998,170.4904528111049L149.36941964285714,191.7762262486049L152.35680803571427,171.16039306640627L155.34419642857142,168.68769803292412L158.33158482142858,180.05213371930805L161.31897321428573,179.37312084960936L164.30636160714286,175.23792839704242L167.29375000000002,169.92446630859374L170.28113839285714,167.9964174107143L173.2685267857143,165.61096411132812L176.25591517857143,161.79159068080358L179.24330357142856,165.56128826032366L182.2306919642857,170.38191015625L185.21808035714284,170.41759577287945L188.20546875,161.09420905412946L191.19285714285715,159.4597184012277L194.1802455357143,174.62452762276786L197.16763392857143,158.04648120117187L200.1550223214286,158.87774305943083L203.14241071428572,170.00588316127232L206.12979910714287,164.32400718470984L209.1171875,159.08112740652902L212.10457589285713,158.37214861188616L215.09196428571425,159.08219245256694L218.07935267857144,155.4401952078683L221.06674107142857,156.97305943080357L224.0541294642857,155.5546153390067L227.04151785714285,155.98850983537946L230.02890625,153.78051161411832L233.01629464285716,153.3680363769531L236.0036830357143,153.20841095842633L238.99107142857142,152.42633844866072L241.9784598214286,153.7067210170201L244.96584821428573,152.51074005998885L247.95323660714286,153.56262423270087L250.94062499999998,154.58740890066963L253.9280133928571,152.05703044782365L256.9154017857143,155.55791566685267L259.9027901785714,149.756268031529L262.8901785714286,150.59812775530136L265.8775669642857,147.51662084960935L268.8649553571429,147.5028804408482L271.85234375,151.8981676548549L274.83973214285714,148.04329268973214L277.8271205357143,147.4911386369978L280.8145089285714,151.77493788364956L283.8018973214286,143.95417333984375L286.7892857142857,154.45095152064732L289.77667410714287,154.9975173688616L292.76406249999997,144.31262050083706L295.7514508928572,172.05927877371653L298.7388392857143,139.4828470982143L301.72622767857143,144.95248964146205L304.71361607142853,152.62743491908483L307.70100446428575,157.16128330775672L310.68839285714284,154.9549418247768L313.67578125,143.5979877580915L316.66316964285716,140.80967093331472L319.65055803571425,133.2681062360491L322.63794642857147,150.01982090541296L325.62533482142857,162.27938176618304L328.6127232142857,135.10373280552454L331.6001116071428,143.007084437779L334.58750000000003,132.22721439034595L337.57488839285713,164.08994688197544L340.5622767857143,129.61293397739956L343.5496651785714,141.2374381277902L346.5370535714286,138.50084835379465L349.5244419642857,132.20847746930804L352.51183035714286,133.47304213169642L355.49921875,134.00801081194194L358.4866071428571,135.1189195731027L361.4739955357143,127.56105046735493L364.4613839285714,133.1900686035156L367.4487723214286,129.76912758091518L370.4361607142857,128.52190607561383L373.4235491071429,127.3142096121652L376.4109375,131.61573332868304L379.39832589285714,132.90044182477678L382.3857142857143,127.46883851841517L385.3731026785714,129.12944252232143L388.3604910714286,123.20678724888393L391.3478794642857,132.1584729003906L394.33526785714287,123.1698919503348L397.32265624999997,123.92130165318079L400.3100446428572,120.36619112723218L403.2974330357143,119.68819070870535L406.28482142857143,124.92951893833705L409.27220982142853,119.2534152483259L412.25959821428575,117.14455834960938L415.24698660714284,135.9641585170201L418.234375,121.17423235212053L421.22176339285716,120.3054309082031L424.20915178571425,128.4931498325893L427.1965401785714,121.40846358816961L430.1839285714285,116.82534695870532L433.1713169642858,120.51792731584823L436.1587053571429,119.10415101841517L439.14609375000003,121.88952253069198L442.13348214285713,114.39575341796876L445.1208705357143,116.76483656529018L448.1082589285714,121.37747206333705L451.09564732142854,113.61599508231023L454.0830357142857,116.21787625558034L457.0704241071428,115.1728951590402L460.0578125,112.24336111886163L463.04520089285717,110.18736206054689L466.0325892857143,111.97749407087053L469.0199776785714,115.38477357700896L472.0073660714286,113.45136000279018L474.9947544642857,110.76468275669646L477.98214285714283,109.83243875558037L480.96953125,105.54374818638394L483.9569196428572,126.58783506556921L486.9443080357143,107.21126841517855L489.93169642857146,107.4347834472656L492.9190848214286,105.49258653041295L495.9064732142857,107.2977212262835L498.89386160714287,106.60870218331473L501.88124999999997,106.06880273437497L504.8686383928571,100.18731609235493L507.8560267857142,127.30162629045759L510.8434151785715,103.53737238420757L513.8308035714286,94.91909873744419L516.8181919642857,101.42967257254463L519.8055803571428,99.13251290457589L522.79296875,118.01312311662946L525.7803571428572,94.45685560825893L528.7677455357143,100.8382301548549L531.7551339285714,100.25503198242188L534.7425223214285,97.31813466099328L537.7299107142858,96.01362419782367L540.7172991071429,102.06929188755583L543.7046875,96.07748751395087L546.6920758928571,94.06928404017856L549.6794642857143,102.49014285714287L552.6668526785714,94.3576485421317L555.6542410714286,113.94851297433036L558.6416294642856,98.64409068080357L561.6290178571428,96.75475160435269L564.6164062500001,94.7828911830357L567.6037946428572,87.401767124721L570.5911830357143,93.25147331891742L573.5785714285714,96.70399755859376L576.5659598214286,90.34764501953123L579.5533482142857,100.51377242606026L582.5407366071428,83.46859155273438L585.5281249999999,97.65819991629462L588.5155133928572,99.42353344726558L591.5029017857144,93.21430189732143L594.4902901785714,91.99723039899555L597.4776785714286,92.01220678710939L600.4650669642857,94.85331570870534L603.4524553571429,127.11814910016741L606.43984375,92.723618094308L609.4272321428571,98.47870612444194L612.4146205357142,89.13902814592632L615.4020089285715,92.54515056501117L618.3893973214286,94.80078658621653L621.3767857142857,90.62545110212056L624.3641741071428,92.60120354352676L627.3515625,85.23317560686388L630.3389508928572,92.05073252650669L633.3263392857143,104.49033876255584L636.3137276785714,87.11816245814731L639.3011160714285,80.42378271484375L642.2885044642858,94.77857840401788L645.2758928571429,90.57196212332587L648.26328125,92.4089693080357L651.2506696428571,81.93975083705357L654.2380580357143,89.09020696149554L657.2254464285714,83.16617107282366L660.2128348214286,88.66988194056916L663.2002232142856,77.85965150669642L666.1876116071428,80.10838445172993L669.1750000000001,75.01103466796877L672.1623883928572,77.8914451032366L675.1497767857143,73.54014034598214L678.1371651785714,75.84351935686385L681.1245535714286,89.43837182617187L684.1119419642857,72.59330126953125L687.0993303571428,87.15273043387276L690.0867187499999,74.3255394810268L693.0741071428572,83.53023273577008L696.0614955357144,82.7598625837054L699.0488839285714,80.37976081194194L702.0362723214286,74.58485846819195L705.0236607142857,70.20236495535715L708.0110491071429,80.90620912388391L710.9984375,91.04141074916294L713.9858258928571,78.75489501953126L716.9732142857142,67.8566339285714L719.9606026785715,70.45082310267856L722.9479910714286,73.50679520089284L725.9353794642857,82.2937931780134L728.9227678571428,77.63316486467636L731.91015625,71.55836579241071L734.8975446428572,66.63096316964283L737.8849330357143,71.83138574218748L740.8723214285714,65.80711718750001L743.8597098214285,75.18567592075891L746.8470982142858,64.32717654854912L749.8344866071429,70.91912779017855L752.821875,62.89667508370536L755.8092633928571,66.80381619698659L758.7966517857143,70.97119670758929L761.7840401785714,63.07860072544645L764.7714285714286,70.7321004464286L767.7588169642856,69.66368833705354L770.7462053571428,69.20022237723214L773.7335937500001,69.53735546874998L776.7209821428572,60.1483040597098L779.7083705357143,59.767385742187514L782.6957589285714,81.26849571010047L785.6831473214286,74.54838392857141L788.6705357142857,77.30513068498885L791.6579241071428,62.06651771763393L794.6453124999999,60.11795682198664L797.6327008928572,67.4706402064732L800.6200892857144,58.72924197823659L803.6074776785714,59.759733189174085L806.5948660714286,61.59211202566962" style="fill: none;" fill="none"></path></g></g></g></g></g></g><g transform="translate(74, 377)" clip-path="url(#clip_1)"><clipPath id="clip_1"><rect width="836" height="22"></rect></clipPath><g><g><line x1="0" y1="0" x2="0" y2="5" style="visibility: inherit;" fill="rgb(0, 0, 0)" stroke="rgb(204, 204, 204)" stroke-width="1px"></line><line x1="59.747767857142854" y1="0" x2="59.747767857142854" y2="5" style="visibility: inherit;" fill="rgb(0, 0, 0)" stroke="rgb(204, 204, 204)" stroke-width="1px"></line><line x1="119.49553571428571" y1="0" x2="119.49553571428571" y2="5" style="visibility: inherit;" fill="rgb(0, 0, 0)" stroke="rgb(204, 204, 204)" stroke-width="1px"></line><line x1="179.24330357142856" y1="0" x2="179.24330357142856" y2="5" style="visibility: inherit;" fill="rgb(0, 0, 0)" stroke="rgb(204, 204, 204)" stroke-width="1px"></line><line x1="238.99107142857142" y1="0" x2="238.99107142857142" y2="5" style="visibility: inherit;" fill="rgb(0, 0, 0)" stroke="rgb(204, 204, 204)" stroke-width="1px"></line><line x1="298.7388392857143" y1="0" x2="298.7388392857143" y2="5" style="visibility: inherit;" fill="rgb(0, 0, 0)" stroke="rgb(204, 204, 204)" stroke-width="1px"></line><line x1="358.4866071428571" y1="0" x2="358.4866071428571" y2="5" style="visibility: inherit;" fill="rgb(0, 0, 0)" stroke="rgb(204, 204, 204)" stroke-width="1px"></line><line x1="418.234375" y1="0" x2="418.234375" y2="5" style="visibility: inherit;" fill="rgb(0, 0, 0)" stroke="rgb(204, 204, 204)" stroke-width="1px"></line><line x1="477.98214285714283" y1="0" x2="477.98214285714283" y2="5" style="visibility: inherit;" fill="rgb(0, 0, 0)" stroke="rgb(204, 204, 204)" stroke-width="1px"></line><line x1="537.7299107142858" y1="0" x2="537.7299107142858" y2="5" style="visibility: inherit;" fill="rgb(0, 0, 0)" stroke="rgb(204, 204, 204)" stroke-width="1px"></line><line x1="597.4776785714286" y1="0" x2="597.4776785714286" y2="5" style="visibility: inherit;" fill="rgb(0, 0, 0)" stroke="rgb(204, 204, 204)" stroke-width="1px"></line><line x1="657.2254464285714" y1="0" x2="657.2254464285714" y2="5" style="visibility: inherit;" fill="rgb(0, 0, 0)" stroke="rgb(204, 204, 204)" stroke-width="1px"></line><line x1="716.9732142857142" y1="0" x2="716.9732142857142" y2="5" style="visibility: inherit;" fill="rgb(0, 0, 0)" stroke="rgb(204, 204, 204)" stroke-width="1px"></line><line x1="776.7209821428572" y1="0" x2="776.7209821428572" y2="5" style="visibility: inherit;" fill="rgb(0, 0, 0)" stroke="rgb(204, 204, 204)" stroke-width="1px"></line><line x1="836.46875" y1="0" x2="836.46875" y2="5" style="visibility: inherit;" fill="rgb(0, 0, 0)" stroke="rgb(204, 204, 204)" stroke-width="1px"></line></g><g transform="translate(0, 8)"><text x="0" y="0" dx="0em" dy="0.95em" style="text-anchor: middle; visibility: hidden; font-family: &quot;Helvetica Neue&quot;, sans-serif; font-size: 12px; font-weight: 200;" fill="rgb(50, 49, 63)" stroke="none" stroke-width="1px">-100k</text><text x="59.747767857142854" y="0" dx="0em" dy="0.95em" style="text-anchor: middle; visibility: inherit; font-family: &quot;Helvetica Neue&quot;, sans-serif; font-size: 12px; font-weight: 200;" fill="rgb(50, 49, 63)" stroke="none" stroke-width="1px">0</text><text x="119.49553571428571" y="0" dx="0em" dy="0.95em" style="text-anchor: middle; visibility: inherit; font-family: &quot;Helvetica Neue&quot;, sans-serif; font-size: 12px; font-weight: 200;" fill="rgb(50, 49, 63)" stroke="none" stroke-width="1px">100k</text><text x="179.24330357142856" y="0" dx="0em" dy="0.95em" style="text-anchor: middle; visibility: inherit; font-family: &quot;Helvetica Neue&quot;, sans-serif; font-size: 12px; font-weight: 200;" fill="rgb(50, 49, 63)" stroke="none" stroke-width="1px">200k</text><text x="238.99107142857142" y="0" dx="0em" dy="0.95em" style="text-anchor: middle; visibility: inherit; font-family: &quot;Helvetica Neue&quot;, sans-serif; font-size: 12px; font-weight: 200;" fill="rgb(50, 49, 63)" stroke="none" stroke-width="1px">300k</text><text x="298.7388392857143" y="0" dx="0em" dy="0.95em" style="text-anchor: middle; visibility: inherit; font-family: &quot;Helvetica Neue&quot;, sans-serif; font-size: 12px; font-weight: 200;" fill="rgb(50, 49, 63)" stroke="none" stroke-width="1px">400k</text><text x="358.4866071428571" y="0" dx="0em" dy="0.95em" style="text-anchor: middle; visibility: inherit; font-family: &quot;Helvetica Neue&quot;, sans-serif; font-size: 12px; font-weight: 200;" fill="rgb(50, 49, 63)" stroke="none" stroke-width="1px">500k</text><text x="418.234375" y="0" dx="0em" dy="0.95em" style="text-anchor: middle; visibility: inherit; font-family: &quot;Helvetica Neue&quot;, sans-serif; font-size: 12px; font-weight: 200;" fill="rgb(50, 49, 63)" stroke="none" stroke-width="1px">600k</text><text x="477.98214285714283" y="0" dx="0em" dy="0.95em" style="text-anchor: middle; visibility: inherit; font-family: &quot;Helvetica Neue&quot;, sans-serif; font-size: 12px; font-weight: 200;" fill="rgb(50, 49, 63)" stroke="none" stroke-width="1px">700k</text><text x="537.7299107142858" y="0" dx="0em" dy="0.95em" style="text-anchor: middle; visibility: inherit; font-family: &quot;Helvetica Neue&quot;, sans-serif; font-size: 12px; font-weight: 200;" fill="rgb(50, 49, 63)" stroke="none" stroke-width="1px">800k</text><text x="597.4776785714286" y="0" dx="0em" dy="0.95em" style="text-anchor: middle; visibility: inherit; font-family: &quot;Helvetica Neue&quot;, sans-serif; font-size: 12px; font-weight: 200;" fill="rgb(50, 49, 63)" stroke="none" stroke-width="1px">900k</text><text x="657.2254464285714" y="0" dx="0em" dy="0.95em" style="text-anchor: middle; visibility: inherit; font-family: &quot;Helvetica Neue&quot;, sans-serif; font-size: 12px; font-weight: 200;" fill="rgb(50, 49, 63)" stroke="none" stroke-width="1px">1M</text><text x="716.9732142857142" y="0" dx="0em" dy="0.95em" style="text-anchor: middle; visibility: inherit; font-family: &quot;Helvetica Neue&quot;, sans-serif; font-size: 12px; font-weight: 200;" fill="rgb(50, 49, 63)" stroke="none" stroke-width="1px">1.1M</text><text x="776.7209821428572" y="0" dx="0em" dy="0.95em" style="text-anchor: middle; visibility: inherit; font-family: &quot;Helvetica Neue&quot;, sans-serif; font-size: 12px; font-weight: 200;" fill="rgb(50, 49, 63)" stroke="none" stroke-width="1px">1.2M</text><text x="836.46875" y="0" dx="0em" dy="0.95em" style="text-anchor: middle; visibility: hidden; font-family: &quot;Helvetica Neue&quot;, sans-serif; font-size: 12px; font-weight: 200;" fill="rgb(50, 49, 63)" stroke="none" stroke-width="1px">1.3M</text></g><line x1="0" y1="0" x2="836.46875" y2="0" fill="rgb(0, 0, 0)" stroke="rgb(204, 204, 204)" stroke-width="1px"></line></g></g></g></g></svg>