<svg viewBox="0 0 911.25 400" xmlns="http://www.w3.org/2000/svg"><g><g><g><g><g><line x1="74.78125" y1="377" x2="69.78125" y2="377" style="visibility: inherit;" fill="rgb(0, 0, 0)" stroke="rgb(204, 204, 204)" stroke-width="1px"></line><line x1="74.78125" y1="339.3" x2="69.78125" y2="339.3" style="visibility: inherit;" fill="rgb(0, 0, 0)" stroke="rgb(204, 204, 204)" stroke-width="1px"></line><line x1="74.78125" y1="301.6" x2="69.78125" y2="301.6" style="visibility: inherit;" fill="rgb(0, 0, 0)" stroke="rgb(204, 204, 204)" stroke-width="1px"></line><line x1="74.78125" y1="263.9" x2="69.78125" y2="263.9" style="visibility: inherit;" fill="rgb(0, 0, 0)" stroke="rgb(204, 204, 204)" stroke-width="1px"></line><line x1="74.78125" y1="226.2" x2="69.78125" y2="226.2" style="visibility: inherit;" fill="rgb(0, 0, 0)" stroke="rgb(204, 204, 204)" stroke-width="1px"></line><line x1="74.78125" y1="188.5" x2="69.78125" y2="188.5" style="visibility: inherit;" fill="rgb(0, 0, 0)" stroke="rgb(204, 204, 204)" stroke-width="1px"></line><line x1="74.78125" y1="150.8" x2="69.78125" y2="150.8" style="visibility: inherit;" fill="rgb(0, 0, 0)" stroke="rgb(204, 204, 204)" stroke-width="1px"></line><line x1="74.78125" y1="113.10000000000002" x2="69.78125" y2="113.10000000000002" style="visibility: inherit;" fill="rgb(0, 0, 0)" stroke="rgb(204, 204, 204)" stroke-width="1px"></line><line x1="74.78125" y1="75.39999999999998" x2="69.78125" y2="75.39999999999998" style="visibility: inherit;" fill="rgb(0, 0, 0)" stroke="rgb(204, 204, 204)" stroke-width="1px"></line><line x1="74.78125" y1="37.69999999999999" x2="69.78125" y2="37.69999999999999" style="visibility: inherit;" fill="rgb(0, 0, 0)" stroke="rgb(204, 204, 204)" stroke-width="1px"></line><line x1="74.78125" y1="0" x2="69.78125" y2="0" style="visibility: inherit;" fill="rgb(0, 0, 0)" stroke="rgb(204, 204, 204)" stroke-width="1px"></line></g><g transform="translate(64.78125, 0)"><text x="0" y="377" dx="0em" dy="0.3em" style="text-anchor: end; visibility: hidden; font-family: &quot;Helvetica Neue&quot;, sans-serif; font-size: 12px; font-weight: 200;" fill="rgb(50, 49, 63)" stroke="none" stroke-width="1px">-500</text><text x="0" y="339.3" dx="0em" dy="0.3em" style="text-anchor: end; visibility: inherit; font-family: &quot;Helvetica Neue&quot;, sans-serif; font-size: 12px; font-weight: 200;" fill="rgb(50, 49, 63)" stroke="none" stroke-width="1px">0</text><text x="0" y="301.6" dx="0em" dy="0.3em" style="text-anchor: end; visibility: inherit; font-family: &quot;Helvetica Neue&quot;, sans-serif; font-size: 12px; font-weight: 200;" fill="rgb(50, 49, 63)" stroke="none" stroke-width="1px">500</text><text x="0" y="263.9" dx="0em" dy="0.3em" style="text-anchor: end; visibility: inherit; font-family: &quot;Helvetica Neue&quot;, sans-serif; font-size: 12px; font-weight: 200;" fill="rgb(50, 49, 63)" stroke="none" stroke-width="1px">1e+3</text><text x="0" y="226.2" dx="0em" dy="0.3em" style="text-anchor: end; visibility: inherit; font-family: &quot;Helvetica Neue&quot;, sans-serif; font-size: 12px; font-weight: 200;" fill="rgb(50, 49, 63)" stroke="none" stroke-width="1px">1.5e+3</text><text x="0" y="188.5" dx="0em" dy="0.3em" style="text-anchor: end; visibility: inherit; font-family: &quot;Helvetica Neue&quot;, sans-serif; font-size: 12px; font-weight: 200;" fill="rgb(50, 49, 63)" stroke="none" stroke-width="1px">2e+3</text><text x="0" y="150.8" dx="0em" dy="0.3em" style="text-anchor: end; visibility: inherit; font-family: &quot;Helvetica Neue&quot;, sans-serif; font-size: 12px; font-weight: 200;" fill="rgb(50, 49, 63)" stroke="none" stroke-width="1px">2.5e+3</text><text x="0" y="113.10000000000002" dx="0em" dy="0.3em" style="text-anchor: end; visibility: inherit; font-family: &quot;Helvetica Neue&quot;, sans-serif; font-size: 12px; font-weight: 200;" fill="rgb(50, 49, 63)" stroke="none" stroke-width="1px">3e+3</text><text x="0" y="75.39999999999998" dx="0em" dy="0.3em" style="text-anchor: end; visibility: inherit; font-family: &quot;Helvetica Neue&quot;, sans-serif; font-size: 12px; font-weight: 200;" fill="rgb(50, 49, 63)" stroke="none" stroke-width="1px">3.5e+3</text><text x="0" y="37.69999999999999" dx="0em" dy="0.3em" style="text-anchor: end; visibility: inherit; font-family: &quot;Helvetica Neue&quot;, sans-serif; font-size: 12px; font-weight: 200;" fill="rgb(50, 49, 63)" stroke="none" stroke-width="1px">4e+3</text><text x="0" y="0" dx="0em" dy="0.3em" style="text-anchor: end; visibility: hidden; font-family: &quot;Helvetica Neue&quot;, sans-serif; font-size: 12px; font-weight: 200;" fill="rgb(50, 49, 63)" stroke="none" stroke-width="1px">4.5e+3</text></g><line x1="74.78125" y1="0" x2="74.78125" y2="377" fill="rgb(0, 0, 0)" stroke="rgb(204, 204, 204)" stroke-width="1px"></line></g></g><g transform="translate(74, 0)" clip-path="url(#clip_0)"><clipPath id="clip_0"><rect width="836" height="376"></rect></clipPath><g><g><g><line x1="0" y1="0" x2="0" y2="377" fill="rgb(0, 0, 0)" stroke="rgb(60, 60, 60)" stroke-width="1px" opacity="0.25"></line><line x1="104.55859375" y1="0" x2="104.55859375" y2="377" fill="rgb(0, 0, 0)" stroke="rgb(60, 60, 60)" stroke-width="1px" opacity="0.25"></line><line x1="209.1171875" y1="0" x2="209.1171875" y2="377" fill="rgb(0, 0, 0)" stroke="rgb(60, 60, 60)" stroke-width="1px" opacity="0.25"></line><line x1="313.67578125" y1="0" x2="313.67578125" y2="377" fill="rgb(0, 0, 0)" stroke="rgb(60, 60, 60)" stroke-width="1px" opacity="0.25"></line><line x1="418.234375" y1="0" x2="418.234375" y2="377" fill="rgb(0, 0, 0)" stroke="rgb(60, 60, 60)" stroke-width="1px" opacity="0.25"></line><line x1="522.79296875" y1="0" x2="522.79296875" y2="377" fill="rgb(0, 0, 0)" stroke="rgb(60, 60, 60)" stroke-width="1px" opacity="0.25"></line><line x1="627.3515625" y1="0" x2="627.3515625" y2="377" fill="rgb(0, 0, 0)" stroke="rgb(60, 60, 60)" stroke-width="1px" opacity="0.25"></line><line x1="731.91015625" y1="0" x2="731.91015625" y2="377" fill="rgb(0, 0, 0)" stroke="rgb(60, 60, 60)" stroke-width="1px" opacity="0.25"></line><line x1="836.46875" y1="0" x2="836.46875" y2="377" fill="rgb(0, 0, 0)" stroke="rgb(60, 60, 60)" stroke-width="1px" opacity="0.25"></line></g><g><line x1="0" y1="377" x2="836.46875" y2="377" fill="rgb(0, 0, 0)" stroke="rgb(60, 60, 60)" stroke-width="1px" opacity="0.25"></line><line x1="0" y1="339.3" x2="836.46875" y2="339.3" fill="rgb(0, 0, 0)" stroke="rgb(60, 60, 60)" stroke-width="1px" opacity="0.25"></line><line x1="0" y1="301.6" x2="836.46875" y2="301.6" fill="rgb(0, 0, 0)" stroke="rgb(60, 60, 60)" stroke-width="1px" opacity="0.25"></line><line x1="0" y1="263.9" x2="836.46875" y2="263.9" fill="rgb(0, 0, 0)" stroke="rgb(60, 60, 60)" stroke-width="1px" opacity="0.25"></line><line x1="0" y1="226.2" x2="836.46875" y2="226.2" fill="rgb(0, 0, 0)" stroke="rgb(60, 60, 60)" stroke-width="1px" opacity="0.25"></line><line x1="0" y1="188.5" x2="836.46875" y2="188.5" fill="rgb(0, 0, 0)" stroke="rgb(60, 60, 60)" stroke-width="1px" opacity="0.25"></line><line x1="0" y1="150.8" x2="836.46875" y2="150.8" fill="rgb(0, 0, 0)" stroke="rgb(60, 60, 60)" stroke-width="1px" opacity="0.25"></line><line x1="0" y1="113.10000000000002" x2="836.46875" y2="113.10000000000002" fill="rgb(0, 0, 0)" stroke="rgb(60, 60, 60)" stroke-width="1px" opacity="0.25"></line><line x1="0" y1="75.39999999999998" x2="836.46875" y2="75.39999999999998" fill="rgb(0, 0, 0)" stroke="rgb(60, 60, 60)" stroke-width="1px" opacity="0.25"></line><line x1="0" y1="37.69999999999999" x2="836.46875" y2="37.69999999999999" fill="rgb(0, 0, 0)" stroke="rgb(60, 60, 60)" stroke-width="1px" opacity="0.25"></line><line x1="0" y1="0" x2="836.46875" y2="0" fill="rgb(0, 0, 0)" stroke="rgb(60, 60, 60)" stroke-width="1px" opacity="0.25"></line></g></g></g><g><g><line x1="0" y1="339.3" x2="836.46875" y2="339.3" fill="rgb(0, 0, 0)" stroke="rgb(153, 153, 153)" stroke-width="1.5px"></line></g></g><g><g><line x1="104.55859375" y1="0" x2="104.55859375" y2="377" fill="rgb(0, 0, 0)" stroke="rgb(153, 153, 153)" stroke-width="1.5px"></line></g></g><g><g><g><g><g><path stroke="rgb(0, 153, 136)" stroke-width="2px" d="M107.20810851562499,325.55468216552737L109.84350787109376,326.21801831359863L112.4956366015625,325.69767823791506L115.15299326171876,324.88716735534666L117.76695810546875,321.0346261230469L120.42483755859375,317.48055894775393L123.0612825,318.4776139587402L125.7160251953125,315.3798401184082L128.38802005859375,319.20184559326174L131.034920859375,315.6088059509277L133.67136580078125,317.15073687133787L136.35433931640625,316.0757783447266L139.01221876953124,316.5202144958496L141.653891640625,313.61983181762696L144.35202615234374,311.4771307800293L147.1421722265625,271.6276118041992L149.86121845703127,307.681239642334L152.5081192578125,302.22522771606447L155.1471781640625,289.5169152954102L157.852108984375,284.67011364746094L160.5099884375,294.3493999633789L163.2023722265625,290.89355435791015L165.8518869921875,287.6604756225586L168.4763076953125,308.14967088623047L171.17130544921875,307.39025427246094L173.89192005859377,264.31898450927736L176.54875392578126,284.3522960205078L179.248979609375,251.6782509033203L182.01769117187501,263.4038667114258L184.7017102734375,249.01640632324217L187.4746041796875,248.087648046875L190.37662794921874,223.4569844482422L193.03137064453125,266.36379072265623L195.698137578125,272.58907685546876L198.65557740234374,208.74064770507815L201.31868478515625,243.59076333007815L203.99329361328125,140.5209145996094L206.70554353515627,187.54625258789062L209.43661400390624,234.66103603515626L212.30831578125,245.17043566894532L215.008018671875,258.73589155273436L217.68524146484376,269.0557649291992L220.42676779296875,230.36161611328126L223.33245111328125,260.24922072753907L226.25224984374998,266.13603522949217L229.08108259765626,234.32200295410155L232.0144739453125,253.26250688476563L234.70058421874998,251.38998764648437L237.42747234375003,236.37695668945312L240.06705404296875,249.69968200683593L242.79707892578128,275.5265382568359L245.58879337890627,264.5326163085938L248.7082990234375,237.85216247558594L251.36042775390624,228.45934921875002L254.0512431640625,264.9601882446289L256.9077839453125,228.20005126953123L260.00533228515627,114.83316914062499L262.9178119140625,150.43097075195314L265.66822572265625,109.48794238281249L268.395636640625,102.68537500000002L271.0258080664062,103.34297124023442L273.92678625,224.42659052734376L276.618124453125,107.88033559570312L279.51596587890623,153.9834226074219L282.5878973632813,109.50469384765626L285.64989578125,166.46427636718752L288.4217441015625,104.17040156249999L291.3337009375,111.69753422851562L294.09979853515625,114.98584677734374L296.7466993359375,193.21524282226562L299.656565,109.73428095703122L302.5413366015625,111.5683822753906L305.1945109179687,112.34101137695313L308.05941638671874,102.64776704101564L310.7993743359375,121.31767958984375L313.51005587890626,178.43566469726562L316.12402072265627,94.740541796875L319.06629955078125,100.38514116210933L322.13404869140624,117.43316215820312L325.09723923828125,147.27979931640624L328.19426478515624,111.2736853515625L330.80822962890625,94.59231894531251L333.535640546875,95.30097954101564L336.34826671875,203.2276946044922L339.21474056640625,146.84407714843752L341.84804875,241.71105568847656L344.6559697851563,104.02689121093749L347.28195886718754,102.26408486328125L350.08987990234374,101.30752099609373L353.209385546875,116.06754960937502L355.82335039062497,106.4405563964844L358.43731523437503,97.75849306640629L361.051280078125,109.22247768554689L363.8440401171875,113.56397875976563L366.96563693359377,110.39940615234372L369.9607178515625,109.71716132812503L372.5746826953125,114.78066894531247L375.3810353515625,124.91081357421876L378.2668525390625,125.13393940429688L380.8808173828125,131.03647451171872L383.4947822265625,147.55560942382812L386.1087470703125,99.01021406250004L388.72271191406253,101.6389975097656L391.51181240234376,96.78090703125002L394.1257772460938,106.22298984374999L396.73974208984373,104.19609941406247L399.35370693359374,111.44755083007811L401.96767177734375,155.26426538085934L404.75729505859374,94.84867158203122L407.40053630859376,291.66341302490235L410.0145011523437,97.2969994140625L412.80882957031247,94.97786035156247L415.438478203125,109.69028535156247L418.15125091796875,97.4199662109375L420.76521576171876,95.56498999023438L423.3791806054687,130.2377978027344L425.99314544921873,95.63525410156251L428.6071102929688,89.89349624023441L431.68270132812495,91.42012534179685L434.296666171875,93.74677495117186L437.10092765625,88.34393051757809L440.1660628320313,89.74089223632814L442.8668113085938,87.52699287109374L445.4807761523437,90.75303046875001L448.53754664062495,110.24240258789064L451.3491272265625,91.55062109375001L453.9630920703125,90.66868408203129L456.85256880859373,92.1403462890625L459.8649018945313,110.19155913085939L462.52539531250005,96.51849809570314L465.26012533203124,94.03366679687502L467.87409017578125,93.45923881835938L470.4880550195313,91.16079057617185L473.1020198632812,100.18544897460936L475.9899282226562,133.06198432617188L478.9311614648437,95.23266669921873L481.54512630859375,134.21731997070313L484.28822101562497,100.01419746093751L486.90218585937504,93.38963740234374L489.909291015625,95.12751904296874L492.52325585937496,91.71727055664059L495.41586935546877,92.67812353515626L498.3194615039062,95.5061573730469L501.10803919921875,92.9570814453125L503.90341320312507,91.28981367187498L506.56599779296874,92.51014868164066L509.1799626367188,131.9546388671875L511.9026684179687,93.93507246093748L514.865336171875,96.92793334960936L517.5995433984375,240.96253212890625L520.5397310546874,91.99354086914059L523.3100109960938,100.75153803710936L525.9239758398437,96.39339594726562L528.5379406835938,96.09696865234378L531.3076978320313,98.78432700195316L534.4015866210938,116.17400424804686L537.119587265625,91.92430761718748L539.733552109375,142.3069889160156L542.3835896679687,101.28913120117187L545.1805320507812,124.55345512695314L548.0778506835937,96.86554794921875L550.7639609570313,190.58311828613282L553.38681328125,109.83202851562504L556.3860765429687,104.61895424804686L559.0016097656251,97.13852319335933L561.715950859375,161.06594194335938L564.710508984375,224.74765720214845L567.5456152539062,263.15708634033206L570.3676516992188,149.08676694335938L573.2383078906249,139.38511005859374L575.9280777148438,141.47976108398436L578.7030627929687,91.90877109374998L581.4242001953124,161.72293071289062L584.2661027734375,110.13541411132815L587.0625223632812,162.21396953125L589.7235385742188,160.13743217773435L592.370439375,186.7652385498047L594.9896321484374,338.47862230930326L597.8712669921874,95.22499047851562L600.6007690820312,100.39226513671872L603.2325088867187,92.85532089843753L606.1266907617188,154.5027180175781L608.8598524023438,127.06243798828126L611.5809898046875,121.91403173828124L614.2299817773437,94.50603969726563L616.8439466210938,97.71821591796873L619.6900315429688,94.54830493164064L622.3714366796875,109.47752333984374L625.1296923828124,260.812870703125L627.8048240039062,91.82700185546872L630.5557606054688,93.54605190429686L633.5879598242187,259.39111313476565L636.2217908007813,138.942908203125L639.0542831054688,235.78939445800782L641.80156015625,251.06119873046876L644.6513046289062,116.4184283691406L647.5203924414062,94.50011225585939L650.2321195703124,174.115535546875L653.0259251953124,99.86258750000002L655.7219685351562,95.73701464843748L658.4018052929688,237.22169992675782L661.2755982421875,254.9573685546875L664.1274338867188,100.89799370117186L666.7413987304687,91.61304331054686L669.8431294140626,214.48027941894532L672.7974324804687,118.01355439453124L675.6900459765626,93.49515322265626L678.4791464648437,93.1985234375L681.5050721679687,114.12066123046878L684.635033671875,97.69872163085938L687.3080741210938,95.19008852539065L690.1212230859375,107.66536459960935L693.2313184570312,230.79997065429686L695.9074956640625,146.4565292480469L698.8492516992188,147.43448344726565L701.6373066015625,273.5541130981445L704.4995981054687,105.17729345703128L707.1705473828125,90.86395830078123L709.8247672851563,213.13053474121094L712.6781713085937,120.82881293945314L715.6523405078125,95.62954755859374L718.2929677929687,149.41213193359374L721.105071171875,136.70879663085935L723.7263551171875,89.80217314453125L726.3952132226563,130.18065874023438L729.0959616992187,212.22485114746092L732.2039658984376,105.00988925781252L735.0803728125,214.52505737304688L738.1057757226563,85.74139716796873L740.8012962695313,171.2286138671875L743.7540309570312,207.04677087402342L746.7208810546875,92.60808032226561L749.4916837890624,229.07979770507814L752.1202868359375,91.68043574218746L754.89213515625,201.73048181152345L757.7031929492188,107.13045903320312L760.5733263476562,86.89117353515627L763.4173200976562,85.68197548828124L766.1891684179687,83.99267309570308L768.8873029296875,101.00194482421875L771.790895078125,227.55234023437498L774.6944872265625,191.26720393066407L777.7240724804687,235.60318627929686L780.4028636523437,88.98245585937502L783.4266981835938,200.72334140625L786.1656105468751,85.14105043945312L788.7795753906249,112.66492211914061L791.4609805273437,243.05209328613282L794.4246938671874,103.93056108398434L797.1264879296875,100.79974912109373" style="fill: none;" fill="none"></path></g></g></g></g></g></g><g transform="translate(74, 377)" clip-path="url(#clip_1)"><clipPath id="clip_1"><rect width="836" height="22"></rect></clipPath><g><g><line x1="0" y1="0" x2="0" y2="5" style="visibility: inherit;" fill="rgb(0, 0, 0)" stroke="rgb(204, 204, 204)" stroke-width="1px"></line><line x1="104.55859375" y1="0" x2="104.55859375" y2="5" style="visibility: inherit;" fill="rgb(0, 0, 0)" stroke="rgb(204, 204, 204)" stroke-width="1px"></line><line x1="209.1171875" y1="0" x2="209.1171875" y2="5" style="visibility: inherit;" fill="rgb(0, 0, 0)" stroke="rgb(204, 204, 204)" stroke-width="1px"></line><line x1="313.67578125" y1="0" x2="313.67578125" y2="5" style="visibility: inherit;" fill="rgb(0, 0, 0)" stroke="rgb(204, 204, 204)" stroke-width="1px"></line><line x1="418.234375" y1="0" x2="418.234375" y2="5" style="visibility: inherit;" fill="rgb(0, 0, 0)" stroke="rgb(204, 204, 204)" stroke-width="1px"></line><line x1="522.79296875" y1="0" x2="522.79296875" y2="5" style="visibility: inherit;" fill="rgb(0, 0, 0)" stroke="rgb(204, 204, 204)" stroke-width="1px"></line><line x1="627.3515625" y1="0" x2="627.3515625" y2="5" style="visibility: inherit;" fill="rgb(0, 0, 0)" stroke="rgb(204, 204, 204)" stroke-width="1px"></line><line x1="731.91015625" y1="0" x2="731.91015625" y2="5" style="visibility: inherit;" fill="rgb(0, 0, 0)" stroke="rgb(204, 204, 204)" stroke-width="1px"></line><line x1="836.46875" y1="0" x2="836.46875" y2="5" style="visibility: inherit;" fill="rgb(0, 0, 0)" stroke="rgb(204, 204, 204)" stroke-width="1px"></line></g><g transform="translate(0, 8)"><text x="0" y="0" dx="0em" dy="0.95em" style="text-anchor: middle; visibility: hidden; font-family: &quot;Helvetica Neue&quot;, sans-serif; font-size: 12px; font-weight: 200;" fill="rgb(50, 49, 63)" stroke="none" stroke-width="1px">-200k</text><text x="104.55859375" y="0" dx="0em" dy="0.95em" style="text-anchor: middle; visibility: inherit; font-family: &quot;Helvetica Neue&quot;, sans-serif; font-size: 12px; font-weight: 200;" fill="rgb(50, 49, 63)" stroke="none" stroke-width="1px">0</text><text x="209.1171875" y="0" dx="0em" dy="0.95em" style="text-anchor: middle; visibility: inherit; font-family: &quot;Helvetica Neue&quot;, sans-serif; font-size: 12px; font-weight: 200;" fill="rgb(50, 49, 63)" stroke="none" stroke-width="1px">200k</text><text x="313.67578125" y="0" dx="0em" dy="0.95em" style="text-anchor: middle; visibility: inherit; font-family: &quot;Helvetica Neue&quot;, sans-serif; font-size: 12px; font-weight: 200;" fill="rgb(50, 49, 63)" stroke="none" stroke-width="1px">400k</text><text x="418.234375" y="0" dx="0em" dy="0.95em" style="text-anchor: middle; visibility: inherit; font-family: &quot;Helvetica Neue&quot;, sans-serif; font-size: 12px; font-weight: 200;" fill="rgb(50, 49, 63)" stroke="none" stroke-width="1px">600k</text><text x="522.79296875" y="0" dx="0em" dy="0.95em" style="text-anchor: middle; visibility: inherit; font-family: &quot;Helvetica Neue&quot;, sans-serif; font-size: 12px; font-weight: 200;" fill="rgb(50, 49, 63)" stroke="none" stroke-width="1px">800k</text><text x="627.3515625" y="0" dx="0em" dy="0.95em" style="text-anchor: middle; visibility: inherit; font-family: &quot;Helvetica Neue&quot;, sans-serif; font-size: 12px; font-weight: 200;" fill="rgb(50, 49, 63)" stroke="none" stroke-width="1px">1M</text><text x="731.91015625" y="0" dx="0em" dy="0.95em" style="text-anchor: middle; visibility: inherit; font-family: &quot;Helvetica Neue&quot;, sans-serif; font-size: 12px; font-weight: 200;" fill="rgb(50, 49, 63)" stroke="none" stroke-width="1px">1.2M</text><text x="836.46875" y="0" dx="0em" dy="0.95em" style="text-anchor: middle; visibility: hidden; font-family: &quot;Helvetica Neue&quot;, sans-serif; font-size: 12px; font-weight: 200;" fill="rgb(50, 49, 63)" stroke="none" stroke-width="1px">1.4M</text></g><line x1="0" y1="0" x2="836.46875" y2="0" fill="rgb(0, 0, 0)" stroke="rgb(204, 204, 204)" stroke-width="1px"></line></g></g></g></g></svg>