<svg viewBox="0 0 933.75 400" xmlns="http://www.w3.org/2000/svg"><g><g><g><g><g><line x1="63.984375" y1="377" x2="58.984375" y2="377" style="visibility: inherit;" fill="rgb(0, 0, 0)" stroke="rgb(204, 204, 204)" stroke-width="1px"></line><line x1="63.984375" y1="329.875" x2="58.984375" y2="329.875" style="visibility: inherit;" fill="rgb(0, 0, 0)" stroke="rgb(204, 204, 204)" stroke-width="1px"></line><line x1="63.984375" y1="282.75" x2="58.984375" y2="282.75" style="visibility: inherit;" fill="rgb(0, 0, 0)" stroke="rgb(204, 204, 204)" stroke-width="1px"></line><line x1="63.984375" y1="235.625" x2="58.984375" y2="235.625" style="visibility: inherit;" fill="rgb(0, 0, 0)" stroke="rgb(204, 204, 204)" stroke-width="1px"></line><line x1="63.984375" y1="188.5" x2="58.984375" y2="188.5" style="visibility: inherit;" fill="rgb(0, 0, 0)" stroke="rgb(204, 204, 204)" stroke-width="1px"></line><line x1="63.984375" y1="141.375" x2="58.984375" y2="141.375" style="visibility: inherit;" fill="rgb(0, 0, 0)" stroke="rgb(204, 204, 204)" stroke-width="1px"></line><line x1="63.984375" y1="94.25" x2="58.984375" y2="94.25" style="visibility: inherit;" fill="rgb(0, 0, 0)" stroke="rgb(204, 204, 204)" stroke-width="1px"></line><line x1="63.984375" y1="47.125" x2="58.984375" y2="47.125" style="visibility: inherit;" fill="rgb(0, 0, 0)" stroke="rgb(204, 204, 204)" stroke-width="1px"></line><line x1="63.984375" y1="0" x2="58.984375" y2="0" style="visibility: inherit;" fill="rgb(0, 0, 0)" stroke="rgb(204, 204, 204)" stroke-width="1px"></line></g><g transform="translate(53.984375, 0)"><text x="0" y="377" dx="0em" dy="0.3em" style="text-anchor: end; visibility: hidden; font-family: &quot;Helvetica Neue&quot;, sans-serif; font-size: 12px; font-weight: 200;" fill="rgb(50, 49, 63)" stroke="none" stroke-width="1px">-1e+3</text><text x="0" y="329.875" dx="0em" dy="0.3em" style="text-anchor: end; visibility: inherit; font-family: &quot;Helvetica Neue&quot;, sans-serif; font-size: 12px; font-weight: 200;" fill="rgb(50, 49, 63)" stroke="none" stroke-width="1px">0</text><text x="0" y="282.75" dx="0em" dy="0.3em" style="text-anchor: end; visibility: inherit; font-family: &quot;Helvetica Neue&quot;, sans-serif; font-size: 12px; font-weight: 200;" fill="rgb(50, 49, 63)" stroke="none" stroke-width="1px">1e+3</text><text x="0" y="235.625" dx="0em" dy="0.3em" style="text-anchor: end; visibility: inherit; font-family: &quot;Helvetica Neue&quot;, sans-serif; font-size: 12px; font-weight: 200;" fill="rgb(50, 49, 63)" stroke="none" stroke-width="1px">2e+3</text><text x="0" y="188.5" dx="0em" dy="0.3em" style="text-anchor: end; visibility: inherit; font-family: &quot;Helvetica Neue&quot;, sans-serif; font-size: 12px; font-weight: 200;" fill="rgb(50, 49, 63)" stroke="none" stroke-width="1px">3e+3</text><text x="0" y="141.375" dx="0em" dy="0.3em" style="text-anchor: end; visibility: inherit; font-family: &quot;Helvetica Neue&quot;, sans-serif; font-size: 12px; font-weight: 200;" fill="rgb(50, 49, 63)" stroke="none" stroke-width="1px">4e+3</text><text x="0" y="94.25" dx="0em" dy="0.3em" style="text-anchor: end; visibility: inherit; font-family: &quot;Helvetica Neue&quot;, sans-serif; font-size: 12px; font-weight: 200;" fill="rgb(50, 49, 63)" stroke="none" stroke-width="1px">5e+3</text><text x="0" y="47.125" dx="0em" dy="0.3em" style="text-anchor: end; visibility: inherit; font-family: &quot;Helvetica Neue&quot;, sans-serif; font-size: 12px; font-weight: 200;" fill="rgb(50, 49, 63)" stroke="none" stroke-width="1px">6e+3</text><text x="0" y="0" dx="0em" dy="0.3em" style="text-anchor: end; visibility: hidden; font-family: &quot;Helvetica Neue&quot;, sans-serif; font-size: 12px; font-weight: 200;" fill="rgb(50, 49, 63)" stroke="none" stroke-width="1px">7e+3</text></g><line x1="63.984375" y1="0" x2="63.984375" y2="377" fill="rgb(0, 0, 0)" stroke="rgb(204, 204, 204)" stroke-width="1px"></line></g></g><g transform="translate(63, 0)" clip-path="url(#clip_0)"><clipPath id="clip_0"><rect width="869" height="376"></rect></clipPath><g><g><g><line x1="0" y1="0" x2="0" y2="377" fill="rgb(0, 0, 0)" stroke="rgb(60, 60, 60)" stroke-width="1px" opacity="0.25"></line><line x1="108.720703125" y1="0" x2="108.720703125" y2="377" fill="rgb(0, 0, 0)" stroke="rgb(60, 60, 60)" stroke-width="1px" opacity="0.25"></line><line x1="217.44140625" y1="0" x2="217.44140625" y2="377" fill="rgb(0, 0, 0)" stroke="rgb(60, 60, 60)" stroke-width="1px" opacity="0.25"></line><line x1="326.162109375" y1="0" x2="326.162109375" y2="377" fill="rgb(0, 0, 0)" stroke="rgb(60, 60, 60)" stroke-width="1px" opacity="0.25"></line><line x1="434.8828125" y1="0" x2="434.8828125" y2="377" fill="rgb(0, 0, 0)" stroke="rgb(60, 60, 60)" stroke-width="1px" opacity="0.25"></line><line x1="543.603515625" y1="0" x2="543.603515625" y2="377" fill="rgb(0, 0, 0)" stroke="rgb(60, 60, 60)" stroke-width="1px" opacity="0.25"></line><line x1="652.32421875" y1="0" x2="652.32421875" y2="377" fill="rgb(0, 0, 0)" stroke="rgb(60, 60, 60)" stroke-width="1px" opacity="0.25"></line><line x1="761.044921875" y1="0" x2="761.044921875" y2="377" fill="rgb(0, 0, 0)" stroke="rgb(60, 60, 60)" stroke-width="1px" opacity="0.25"></line><line x1="869.765625" y1="0" x2="869.765625" y2="377" fill="rgb(0, 0, 0)" stroke="rgb(60, 60, 60)" stroke-width="1px" opacity="0.25"></line></g><g><line x1="0" y1="377" x2="869.765625" y2="377" fill="rgb(0, 0, 0)" stroke="rgb(60, 60, 60)" stroke-width="1px" opacity="0.25"></line><line x1="0" y1="329.875" x2="869.765625" y2="329.875" fill="rgb(0, 0, 0)" stroke="rgb(60, 60, 60)" stroke-width="1px" opacity="0.25"></line><line x1="0" y1="282.75" x2="869.765625" y2="282.75" fill="rgb(0, 0, 0)" stroke="rgb(60, 60, 60)" stroke-width="1px" opacity="0.25"></line><line x1="0" y1="235.625" x2="869.765625" y2="235.625" fill="rgb(0, 0, 0)" stroke="rgb(60, 60, 60)" stroke-width="1px" opacity="0.25"></line><line x1="0" y1="188.5" x2="869.765625" y2="188.5" fill="rgb(0, 0, 0)" stroke="rgb(60, 60, 60)" stroke-width="1px" opacity="0.25"></line><line x1="0" y1="141.375" x2="869.765625" y2="141.375" fill="rgb(0, 0, 0)" stroke="rgb(60, 60, 60)" stroke-width="1px" opacity="0.25"></line><line x1="0" y1="94.25" x2="869.765625" y2="94.25" fill="rgb(0, 0, 0)" stroke="rgb(60, 60, 60)" stroke-width="1px" opacity="0.25"></line><line x1="0" y1="47.125" x2="869.765625" y2="47.125" fill="rgb(0, 0, 0)" stroke="rgb(60, 60, 60)" stroke-width="1px" opacity="0.25"></line><line x1="0" y1="0" x2="869.765625" y2="0" fill="rgb(0, 0, 0)" stroke="rgb(60, 60, 60)" stroke-width="1px" opacity="0.25"></line></g></g></g><g><g><line x1="0" y1="329.875" x2="869.765625" y2="329.875" fill="rgb(0, 0, 0)" stroke="rgb(153, 153, 153)" stroke-width="1.5px"></line></g></g><g><g><line x1="108.720703125" y1="0" x2="108.720703125" y2="377" fill="rgb(0, 0, 0)" stroke="rgb(153, 153, 153)" stroke-width="1.5px"></line></g></g><g><g><g><g><g><path stroke="rgb(255, 112, 67)" stroke-width="2px" d="M111.46100844726561,315.94903326416016L114.18011323242186,316.4543398780823L116.91117729492187,317.46248094177247L119.64822099609376,313.01390711593626L122.3695001953125,314.65143614959715L125.08751777343748,312.685969291687L127.81314580078126,315.5344460144043L130.56432319335937,313.75124769210817L133.28342797851562,310.81341064834595L136.009599609375,310.15883220291136L138.7471869140625,313.18650703048706L141.49890791015625,313.29632202911375L144.26802421874999,312.1195977783203L146.99310864257814,306.05251864624023L149.71873666992187,305.3254809112549L152.4720884765625,310.45102503585815L155.20858857421874,304.43522569274904L157.96194038085937,302.6944625930786L160.72996948242186,299.87121661376955L163.49147534179687,297.0553137817383L166.2230830078125,299.8852183532715L168.95360346679686,296.2077943572998L171.7069552734375,302.58851475524904L174.4711791503906,299.6127251739502L177.22344375,299.74397566223143L179.95342060546875,295.7306105880737L182.7045979980469,294.6964981384277L185.44435971679687,294.90344373321534L188.17488017578125,299.25577861022947L190.98259233398437,293.47555393218994L193.75279584960936,300.225770111084L196.54039467773438,296.65167078399656L199.28939765625,282.23071034240724L202.09330458984374,287.6309293060303L204.96298754882812,271.29999411010743L207.71253413085938,289.3322326965332L210.53601079101563,280.5276869354248L213.33611249999998,253.0489510192871L216.14654267578123,275.48680184936524L218.94610078125,278.0569379119873L221.69401655273435,282.56133892822265L224.412577734375,262.3587099151611L227.18169404296873,247.29729069519044L229.98668818359377,247.18876858520508L232.79766196289063,253.48837783813477L235.52818242187502,241.8628554840088L238.3358945800781,216.30478546142578L241.19905429687498,230.12181015014647L243.94479565429685,234.45948461914062L246.68183935546872,112.45366497802735L249.8961669433594,192.35480429077148L252.99742500000002,241.92540885925294L255.76980292968747,146.60900439453124L258.52315473632814,128.80776574707033L261.5260205566406,135.24690917968752L264.300029296875,261.14968789672855L267.04142182617187,196.63754177856447L269.83771831054685,237.26259374999998L272.8172091796875,147.69208554077147L275.87552255859373,96.4130098876953L279.00124277343747,159.5991786193848L282.01987309570313,122.39002185058592L284.7411522949219,123.92722186279295L287.52712031249996,169.67559890747071L290.3212423828125,165.4623063659668L293.341503515625,113.41816278076175L296.3557850097656,118.15240747070317L299.186328515625,108.84165338134767L302.08319165039063,132.98994842529297L304.8816625488281,142.037453704834L307.62903471679687,93.27735656738281L310.3970638183594,117.10663745117188L313.3770982910156,149.58116986083982L316.27178701171874,135.0065210571289L319.48774541015626,157.68562289428712L322.44440493164063,114.4460078125L325.2858205078125,174.948122467041L328.28977353515626,102.26125000000002L331.3736362792969,99.67351684570315L334.51566459960935,140.76581503295898L337.77674208984376,163.25579559326175L340.59913154296873,137.8544656677246L343.85966542968754,94.53291107177733L346.5776830078125,114.84390112304686L349.3973544433594,92.91724609375001L352.1153720214844,107.12888513183594L354.9964706542969,118.83491461181643L358.1167548339844,92.80916693115233L361.1082049804687,105.42598828125L364.05888486328126,163.60468856811522L366.9318294433594,188.23324212646483L369.9499161621094,124.3113780517578L372.8321020019531,127.88751666259765L375.5501195800781,115.62427087402347L378.6557264648437,112.56774981689455L381.7961239746094,98.88295355224614L384.58752802734375,109.82826403808593L387.30554560546875,93.55527441406252L390.0958624511719,94.12374273681644L392.8138800292969,94.47411987304685L395.59495561523437,100.17836181640621L398.31297319335937,96.21963171386716L401.03099077148437,132.68483245849606L403.74900834960937,102.16863372802737L406.46702592773437,120.42243804931638L409.18504350585937,105.09224755859373L411.90306108398437,109.78169128417966L414.62107866210937,107.82036627197266L417.8674788574219,112.12586090087888L420.5854964355469,93.9282936401367L423.77699267578123,137.27029284667967L426.49501025390623,94.48394525146483L429.7403232421875,141.03294107055663L432.4583408203125,157.86610382080076L435.1763583984375,103.19808947753904L438.3042530273437,106.24213897705079L441.02227060546875,91.90424267578123L443.7402881835938,104.82726147460937L446.91656352539064,221.05079989624025L449.7835284667969,140.6007049560547L452.612984765625,154.63660317993165L455.81752749023434,91.29375762939452L458.5355450683594,94.96626318359375L461.2535626464844,100.71981610107423L463.97158022460934,97.14671484375003L466.7847284179687,104.3811156616211L469.7250798339844,92.01973114013674L472.4430974121094,96.23622210693361L475.16111499023435,87.24632299804688L478.42001806640627,94.64642065429683L481.1380356445312,96.20101641845707L483.85605322265627,118.6707364501953L486.74041347656254,158.1196883239746L489.4584310546875,148.5082017211914L492.27266645507814,92.07698065185548L495.1776836425782,89.58016101074219L498.12781992187496,99.1568215942383L500.91215712890624,89.11878240966797L504.1264847167969,165.90394216918946L507.22067592773436,93.06582330322266L510.0909024902343,101.24937408447266L512.8089200683594,130.62895831298826L515.712850048828,98.91763000488282L518.4308676269532,92.46132092285154L521.1738909667969,117.33460003662111L523.8919085449219,114.25444744873045L526.6099261230469,109.64215710449218L529.3279437011719,94.5691522216797L532.0459612792969,92.24401208496096L535.0830741210938,113.84665972900387L537.8010916992188,131.94440850830077L540.5191092773438,106.11063537597659L543.3453039550782,98.38991284179684L546.0633215332031,91.09538623046876L548.7813391113282,133.78513677978515L551.4993566894532,106.06408563232424L554.3250077636718,175.3269632873535L557.4887802246094,124.71829138183594L560.2067978027344,104.1435808105469L562.9248153808594,91.15673156738279L565.7580769042969,144.73865042114258L568.6924486816406,92.44995385742192L571.7937067382812,141.6104294128418L574.5117243164063,89.49276806640626L577.3868433105469,103.36346417236325L580.1912938476562,109.00261010742184L582.9093114257813,107.8026943969727L585.6273290039062,110.78171691894534L588.8835140625,97.39124481201168L592.06685625,94.59496972656251L594.9186002929688,90.00932525634767L597.6366178710938,98.47659246826174L600.4812950683594,87.68533563232421L603.1993126464844,86.6201909790039L606.3908088867188,85.88563464355468L609.1088264648437,104.33481903076171L611.9931867187499,91.93505340576172L614.809596533203,93.64342669677734L617.5276141113281,119.21861059570313L620.2456316894531,96.94809033203126L622.9636492675781,94.57575616455074L625.6816668457031,104.84037731933591L628.399684423828,107.92688073730466L631.4895268066407,89.56007305908201L634.2075443847656,99.73028314208983L636.9891635742188,89.9249006347656L639.7071811523437,90.92274029541016L642.4251987304688,95.0698323364258L645.1432163085938,92.38598535156251L647.9454924316406,115.19646423339844L650.6635100097657,91.78937548828128L653.3815275878907,92.94925335693358L656.0995451660156,114.09298449707029L658.8175627441407,94.97680187988277L661.5355803222656,118.08777166748047L664.305240234375,92.31343402099611L667.0232578125,105.53855444335937L670.2446522460938,93.64400195312504L672.9626698242187,93.06683575439456L676.1666689453125,89.5529168701172L678.8846865234375,89.26970666503905L681.6027041015625,87.16564904785156L684.788220703125,90.94579656982421L687.50623828125,92.99748284912107L690.224255859375,107.20389855957029L693.1026364746093,163.9471616821289L696.3577343261718,86.75595147705076L699.0757519042969,107.75678894042966L701.7937694824219,102.06568585205076L704.9287309570312,153.5076510925293L707.8723439941407,97.57730572509769L710.5903615722656,138.52909179687498L713.5279949707032,93.9289149169922L716.2460125488282,92.1175707397461L718.9640301269532,105.64550610351563L721.7875067871094,91.57708288574219L724.9844390625,91.88753723144532L727.702456640625,93.41244976806644L730.5498518554687,131.1330899658203L733.7277580078124,99.47139477539059L736.9159926269531,90.0029514160156L740.1710904785156,96.53073034667972L743.288656640625,100.07493072509766L746.4002431640625,132.0449403076172L749.472690234375,144.54598556518556L752.6424423339844,96.04199255371094L755.3604599121094,106.27739068603518L758.0784774902344,105.95135839843749L760.7964950683594,116.35098071289065L763.5145126464844,105.2823812866211L766.2325302246094,92.07962683105467L769.3256342285156,92.39868701171872L772.108340625,96.21475354003906L774.826358203125,90.61373559570313L778.0852612792969,140.6382576904297L780.97995,110.19617498779297L783.9926006835938,101.52239074707029L786.7671530273437,115.89211022949218L789.7020684082031,102.84943811035157L792.8957390625,97.22267169189456L796.1209387207032,99.16791253662109L798.8389562988281,82.33252929687501L802.0652431640625,120.37280493164064L804.9490598144531,116.89167565917967L807.8915856445312,87.63179077148436L811.1341806152344,107.1817166748047L814.0826860839843,109.2516270751953L816.8007036621094,91.2706783447266L819.5230700683593,100.26225720214842L822.6591187500001,96.863228515625" style="fill: none;" fill="none"></path></g></g></g></g></g></g><g transform="translate(63, 377)" clip-path="url(#clip_1)"><clipPath id="clip_1"><rect width="869" height="22"></rect></clipPath><g><g><line x1="0" y1="0" x2="0" y2="5" style="visibility: inherit;" fill="rgb(0, 0, 0)" stroke="rgb(204, 204, 204)" stroke-width="1px"></line><line x1="108.720703125" y1="0" x2="108.720703125" y2="5" style="visibility: inherit;" fill="rgb(0, 0, 0)" stroke="rgb(204, 204, 204)" stroke-width="1px"></line><line x1="217.44140625" y1="0" x2="217.44140625" y2="5" style="visibility: inherit;" fill="rgb(0, 0, 0)" stroke="rgb(204, 204, 204)" stroke-width="1px"></line><line x1="326.162109375" y1="0" x2="326.162109375" y2="5" style="visibility: inherit;" fill="rgb(0, 0, 0)" stroke="rgb(204, 204, 204)" stroke-width="1px"></line><line x1="434.8828125" y1="0" x2="434.8828125" y2="5" style="visibility: inherit;" fill="rgb(0, 0, 0)" stroke="rgb(204, 204, 204)" stroke-width="1px"></line><line x1="543.603515625" y1="0" x2="543.603515625" y2="5" style="visibility: inherit;" fill="rgb(0, 0, 0)" stroke="rgb(204, 204, 204)" stroke-width="1px"></line><line x1="652.32421875" y1="0" x2="652.32421875" y2="5" style="visibility: inherit;" fill="rgb(0, 0, 0)" stroke="rgb(204, 204, 204)" stroke-width="1px"></line><line x1="761.044921875" y1="0" x2="761.044921875" y2="5" style="visibility: inherit;" fill="rgb(0, 0, 0)" stroke="rgb(204, 204, 204)" stroke-width="1px"></line><line x1="869.765625" y1="0" x2="869.765625" y2="5" style="visibility: inherit;" fill="rgb(0, 0, 0)" stroke="rgb(204, 204, 204)" stroke-width="1px"></line></g><g transform="translate(0, 8)"><text x="0" y="0" dx="0em" dy="0.95em" style="text-anchor: middle; visibility: hidden; font-family: &quot;Helvetica Neue&quot;, sans-serif; font-size: 12px; font-weight: 200;" fill="rgb(50, 49, 63)" stroke="none" stroke-width="1px">-200k</text><text x="108.720703125" y="0" dx="0em" dy="0.95em" style="text-anchor: middle; visibility: inherit; font-family: &quot;Helvetica Neue&quot;, sans-serif; font-size: 12px; font-weight: 200;" fill="rgb(50, 49, 63)" stroke="none" stroke-width="1px">0</text><text x="217.44140625" y="0" dx="0em" dy="0.95em" style="text-anchor: middle; visibility: inherit; font-family: &quot;Helvetica Neue&quot;, sans-serif; font-size: 12px; font-weight: 200;" fill="rgb(50, 49, 63)" stroke="none" stroke-width="1px">200k</text><text x="326.162109375" y="0" dx="0em" dy="0.95em" style="text-anchor: middle; visibility: inherit; font-family: &quot;Helvetica Neue&quot;, sans-serif; font-size: 12px; font-weight: 200;" fill="rgb(50, 49, 63)" stroke="none" stroke-width="1px">400k</text><text x="434.8828125" y="0" dx="0em" dy="0.95em" style="text-anchor: middle; visibility: inherit; font-family: &quot;Helvetica Neue&quot;, sans-serif; font-size: 12px; font-weight: 200;" fill="rgb(50, 49, 63)" stroke="none" stroke-width="1px">600k</text><text x="543.603515625" y="0" dx="0em" dy="0.95em" style="text-anchor: middle; visibility: inherit; font-family: &quot;Helvetica Neue&quot;, sans-serif; font-size: 12px; font-weight: 200;" fill="rgb(50, 49, 63)" stroke="none" stroke-width="1px">800k</text><text x="652.32421875" y="0" dx="0em" dy="0.95em" style="text-anchor: middle; visibility: inherit; font-family: &quot;Helvetica Neue&quot;, sans-serif; font-size: 12px; font-weight: 200;" fill="rgb(50, 49, 63)" stroke="none" stroke-width="1px">1M</text><text x="761.044921875" y="0" dx="0em" dy="0.95em" style="text-anchor: middle; visibility: inherit; font-family: &quot;Helvetica Neue&quot;, sans-serif; font-size: 12px; font-weight: 200;" fill="rgb(50, 49, 63)" stroke="none" stroke-width="1px">1.2M</text><text x="869.765625" y="0" dx="0em" dy="0.95em" style="text-anchor: middle; visibility: hidden; font-family: &quot;Helvetica Neue&quot;, sans-serif; font-size: 12px; font-weight: 200;" fill="rgb(50, 49, 63)" stroke="none" stroke-width="1px">1.4M</text></g><line x1="0" y1="0" x2="869.765625" y2="0" fill="rgb(0, 0, 0)" stroke="rgb(204, 204, 204)" stroke-width="1px"></line></g></g></g></g></svg>