<svg viewBox="0 0 911.25 400" xmlns="http://www.w3.org/2000/svg"><g><g><g><g><g><line x1="74.78125" y1="377" x2="69.78125" y2="377" style="visibility: inherit;" fill="rgb(0, 0, 0)" stroke="rgb(204, 204, 204)" stroke-width="1px"></line><line x1="74.78125" y1="348" x2="69.78125" y2="348" style="visibility: inherit;" fill="rgb(0, 0, 0)" stroke="rgb(204, 204, 204)" stroke-width="1px"></line><line x1="74.78125" y1="319" x2="69.78125" y2="319" style="visibility: inherit;" fill="rgb(0, 0, 0)" stroke="rgb(204, 204, 204)" stroke-width="1px"></line><line x1="74.78125" y1="290" x2="69.78125" y2="290" style="visibility: inherit;" fill="rgb(0, 0, 0)" stroke="rgb(204, 204, 204)" stroke-width="1px"></line><line x1="74.78125" y1="261" x2="69.78125" y2="261" style="visibility: inherit;" fill="rgb(0, 0, 0)" stroke="rgb(204, 204, 204)" stroke-width="1px"></line><line x1="74.78125" y1="232" x2="69.78125" y2="232" style="visibility: inherit;" fill="rgb(0, 0, 0)" stroke="rgb(204, 204, 204)" stroke-width="1px"></line><line x1="74.78125" y1="203" x2="69.78125" y2="203" style="visibility: inherit;" fill="rgb(0, 0, 0)" stroke="rgb(204, 204, 204)" stroke-width="1px"></line><line x1="74.78125" y1="174" x2="69.78125" y2="174" style="visibility: inherit;" fill="rgb(0, 0, 0)" stroke="rgb(204, 204, 204)" stroke-width="1px"></line><line x1="74.78125" y1="145" x2="69.78125" y2="145" style="visibility: inherit;" fill="rgb(0, 0, 0)" stroke="rgb(204, 204, 204)" stroke-width="1px"></line><line x1="74.78125" y1="116" x2="69.78125" y2="116" style="visibility: inherit;" fill="rgb(0, 0, 0)" stroke="rgb(204, 204, 204)" stroke-width="1px"></line><line x1="74.78125" y1="87" x2="69.78125" y2="87" style="visibility: inherit;" fill="rgb(0, 0, 0)" stroke="rgb(204, 204, 204)" stroke-width="1px"></line><line x1="74.78125" y1="58" x2="69.78125" y2="58" style="visibility: inherit;" fill="rgb(0, 0, 0)" stroke="rgb(204, 204, 204)" stroke-width="1px"></line><line x1="74.78125" y1="29" x2="69.78125" y2="29" style="visibility: inherit;" fill="rgb(0, 0, 0)" stroke="rgb(204, 204, 204)" stroke-width="1px"></line><line x1="74.78125" y1="0" x2="69.78125" y2="0" style="visibility: inherit;" fill="rgb(0, 0, 0)" stroke="rgb(204, 204, 204)" stroke-width="1px"></line></g><g transform="translate(64.78125, 0)"><text x="0" y="377" dx="0em" dy="0.3em" style="text-anchor: end; visibility: hidden; font-family: &quot;Helvetica Neue&quot;, sans-serif; font-size: 12px; font-weight: 200;" fill="rgb(50, 49, 63)" stroke="none" stroke-width="1px">-1e+3</text><text x="0" y="348" dx="0em" dy="0.3em" style="text-anchor: end; visibility: inherit; font-family: &quot;Helvetica Neue&quot;, sans-serif; font-size: 12px; font-weight: 200;" fill="rgb(50, 49, 63)" stroke="none" stroke-width="1px">0</text><text x="0" y="319" dx="0em" dy="0.3em" style="text-anchor: end; visibility: inherit; font-family: &quot;Helvetica Neue&quot;, sans-serif; font-size: 12px; font-weight: 200;" fill="rgb(50, 49, 63)" stroke="none" stroke-width="1px">1e+3</text><text x="0" y="290" dx="0em" dy="0.3em" style="text-anchor: end; visibility: inherit; font-family: &quot;Helvetica Neue&quot;, sans-serif; font-size: 12px; font-weight: 200;" fill="rgb(50, 49, 63)" stroke="none" stroke-width="1px">2e+3</text><text x="0" y="261" dx="0em" dy="0.3em" style="text-anchor: end; visibility: inherit; font-family: &quot;Helvetica Neue&quot;, sans-serif; font-size: 12px; font-weight: 200;" fill="rgb(50, 49, 63)" stroke="none" stroke-width="1px">3e+3</text><text x="0" y="232" dx="0em" dy="0.3em" style="text-anchor: end; visibility: inherit; font-family: &quot;Helvetica Neue&quot;, sans-serif; font-size: 12px; font-weight: 200;" fill="rgb(50, 49, 63)" stroke="none" stroke-width="1px">4e+3</text><text x="0" y="203" dx="0em" dy="0.3em" style="text-anchor: end; visibility: inherit; font-family: &quot;Helvetica Neue&quot;, sans-serif; font-size: 12px; font-weight: 200;" fill="rgb(50, 49, 63)" stroke="none" stroke-width="1px">5e+3</text><text x="0" y="174" dx="0em" dy="0.3em" style="text-anchor: end; visibility: inherit; font-family: &quot;Helvetica Neue&quot;, sans-serif; font-size: 12px; font-weight: 200;" fill="rgb(50, 49, 63)" stroke="none" stroke-width="1px">6e+3</text><text x="0" y="145" dx="0em" dy="0.3em" style="text-anchor: end; visibility: inherit; font-family: &quot;Helvetica Neue&quot;, sans-serif; font-size: 12px; font-weight: 200;" fill="rgb(50, 49, 63)" stroke="none" stroke-width="1px">7e+3</text><text x="0" y="116" dx="0em" dy="0.3em" style="text-anchor: end; visibility: inherit; font-family: &quot;Helvetica Neue&quot;, sans-serif; font-size: 12px; font-weight: 200;" fill="rgb(50, 49, 63)" stroke="none" stroke-width="1px">8e+3</text><text x="0" y="87" dx="0em" dy="0.3em" style="text-anchor: end; visibility: inherit; font-family: &quot;Helvetica Neue&quot;, sans-serif; font-size: 12px; font-weight: 200;" fill="rgb(50, 49, 63)" stroke="none" stroke-width="1px">9e+3</text><text x="0" y="58" dx="0em" dy="0.3em" style="text-anchor: end; visibility: inherit; font-family: &quot;Helvetica Neue&quot;, sans-serif; font-size: 12px; font-weight: 200;" fill="rgb(50, 49, 63)" stroke="none" stroke-width="1px">1e+4</text><text x="0" y="29" dx="0em" dy="0.3em" style="text-anchor: end; visibility: inherit; font-family: &quot;Helvetica Neue&quot;, sans-serif; font-size: 12px; font-weight: 200;" fill="rgb(50, 49, 63)" stroke="none" stroke-width="1px">1.1e+4</text><text x="0" y="0" dx="0em" dy="0.3em" style="text-anchor: end; visibility: hidden; font-family: &quot;Helvetica Neue&quot;, sans-serif; font-size: 12px; font-weight: 200;" fill="rgb(50, 49, 63)" stroke="none" stroke-width="1px">1.2e+4</text></g><line x1="74.78125" y1="0" x2="74.78125" y2="377" fill="rgb(0, 0, 0)" stroke="rgb(204, 204, 204)" stroke-width="1px"></line></g></g><g transform="translate(74, 0)" clip-path="url(#clip_0)"><clipPath id="clip_0"><rect width="836" height="376"></rect></clipPath><g><g><g><line x1="0" y1="0" x2="0" y2="377" fill="rgb(0, 0, 0)" stroke="rgb(60, 60, 60)" stroke-width="1px" opacity="0.25"></line><line x1="104.55859375" y1="0" x2="104.55859375" y2="377" fill="rgb(0, 0, 0)" stroke="rgb(60, 60, 60)" stroke-width="1px" opacity="0.25"></line><line x1="209.1171875" y1="0" x2="209.1171875" y2="377" fill="rgb(0, 0, 0)" stroke="rgb(60, 60, 60)" stroke-width="1px" opacity="0.25"></line><line x1="313.67578125" y1="0" x2="313.67578125" y2="377" fill="rgb(0, 0, 0)" stroke="rgb(60, 60, 60)" stroke-width="1px" opacity="0.25"></line><line x1="418.234375" y1="0" x2="418.234375" y2="377" fill="rgb(0, 0, 0)" stroke="rgb(60, 60, 60)" stroke-width="1px" opacity="0.25"></line><line x1="522.79296875" y1="0" x2="522.79296875" y2="377" fill="rgb(0, 0, 0)" stroke="rgb(60, 60, 60)" stroke-width="1px" opacity="0.25"></line><line x1="627.3515625" y1="0" x2="627.3515625" y2="377" fill="rgb(0, 0, 0)" stroke="rgb(60, 60, 60)" stroke-width="1px" opacity="0.25"></line><line x1="731.91015625" y1="0" x2="731.91015625" y2="377" fill="rgb(0, 0, 0)" stroke="rgb(60, 60, 60)" stroke-width="1px" opacity="0.25"></line><line x1="836.46875" y1="0" x2="836.46875" y2="377" fill="rgb(0, 0, 0)" stroke="rgb(60, 60, 60)" stroke-width="1px" opacity="0.25"></line></g><g><line x1="0" y1="377" x2="836.46875" y2="377" fill="rgb(0, 0, 0)" stroke="rgb(60, 60, 60)" stroke-width="1px" opacity="0.25"></line><line x1="0" y1="348" x2="836.46875" y2="348" fill="rgb(0, 0, 0)" stroke="rgb(60, 60, 60)" stroke-width="1px" opacity="0.25"></line><line x1="0" y1="319" x2="836.46875" y2="319" fill="rgb(0, 0, 0)" stroke="rgb(60, 60, 60)" stroke-width="1px" opacity="0.25"></line><line x1="0" y1="290" x2="836.46875" y2="290" fill="rgb(0, 0, 0)" stroke="rgb(60, 60, 60)" stroke-width="1px" opacity="0.25"></line><line x1="0" y1="261" x2="836.46875" y2="261" fill="rgb(0, 0, 0)" stroke="rgb(60, 60, 60)" stroke-width="1px" opacity="0.25"></line><line x1="0" y1="232" x2="836.46875" y2="232" fill="rgb(0, 0, 0)" stroke="rgb(60, 60, 60)" stroke-width="1px" opacity="0.25"></line><line x1="0" y1="203" x2="836.46875" y2="203" fill="rgb(0, 0, 0)" stroke="rgb(60, 60, 60)" stroke-width="1px" opacity="0.25"></line><line x1="0" y1="174" x2="836.46875" y2="174" fill="rgb(0, 0, 0)" stroke="rgb(60, 60, 60)" stroke-width="1px" opacity="0.25"></line><line x1="0" y1="145" x2="836.46875" y2="145" fill="rgb(0, 0, 0)" stroke="rgb(60, 60, 60)" stroke-width="1px" opacity="0.25"></line><line x1="0" y1="116" x2="836.46875" y2="116" fill="rgb(0, 0, 0)" stroke="rgb(60, 60, 60)" stroke-width="1px" opacity="0.25"></line><line x1="0" y1="87" x2="836.46875" y2="87" fill="rgb(0, 0, 0)" stroke="rgb(60, 60, 60)" stroke-width="1px" opacity="0.25"></line><line x1="0" y1="58" x2="836.46875" y2="58" fill="rgb(0, 0, 0)" stroke="rgb(60, 60, 60)" stroke-width="1px" opacity="0.25"></line><line x1="0" y1="29" x2="836.46875" y2="29" fill="rgb(0, 0, 0)" stroke="rgb(60, 60, 60)" stroke-width="1px" opacity="0.25"></line><line x1="0" y1="0" x2="836.46875" y2="0" fill="rgb(0, 0, 0)" stroke="rgb(60, 60, 60)" stroke-width="1px" opacity="0.25"></line></g></g></g><g><g><line x1="0" y1="348" x2="836.46875" y2="348" fill="rgb(0, 0, 0)" stroke="rgb(153, 153, 153)" stroke-width="1.5px"></line></g></g><g><g><line x1="104.55859375" y1="0" x2="104.55859375" y2="377" fill="rgb(0, 0, 0)" stroke="rgb(153, 153, 153)" stroke-width="1.5px"></line></g></g><g><g><g><g><g><path stroke="rgb(0, 119, 187)" stroke-width="2px" d="M107.18092328125,338.018589050293L109.81841380859376,337.8346601257324L112.49615939453125,322.11026947021486L115.2706216796875,76.5711298828125L117.8845865234375,76.84912207031249L120.4985513671875,77.63764453124998L123.11251621093751,77.9063193359375L125.7264810546875,77.94177636718752L128.34044589843748,77.92583203125002L130.95441074218752,78.00929199218751L133.5683755859375,77.84829101562502L136.1823404296875,78.03562988281249L138.7963052734375,77.94670410156249L141.41027011718748,77.88547558593751L144.02423496093752,78.02427343749997L146.72341505859376,77.714392578125L149.33737990234374,77.91104882812499L151.95134474609375,77.85786328124999L154.56530958984374,78.03158007812499L157.17927443359375,78.01838281250002L159.79323927734376,77.97190917968749L162.40720412109374,78.03367578125L165.02116896484375,78.0356015625L167.63513380859374,78.03166503906249L170.24909865234375,78.00133398437498L172.95507505859374,77.9754208984375L175.72117265625002,78.11376562499998L178.6644970703125,78.06887792968752L181.2784619140625,77.93330859374998L183.8924267578125,77.98298242187496L186.50639160156248,78.04568359374997L189.1203564453125,78.02648242187502L191.7343212890625,78.004166015625L194.3482861328125,78.00886718750002L196.9622509765625,78.00985839843753L199.98922226562502,78.05440625L202.603187109375,78.02110156250001L205.21715195312498,78.02433007812499L207.95501873046877,103.71147656250002L210.67563333984376,78.06406347656252L213.28959818359377,78.02755859375003L216.11581697265623,78.0474111328125L218.72978181640624,78.01965722656246L221.34374666015623,77.98227441406249L223.96869015625,78.04191699218751L226.58265500000002,78.01852441406254L229.19661984375,78.0544912109375L231.81058468749998,78.08895703125L234.42454953125,78.015041015625L237.038514375,78.09929394531252L239.65247921875002,78.0546611328125L242.2664440625,78.0833212890625L244.88040890624998,78.0836611328125L247.66741822265627,78.0620810546875L250.288179375,78.05602050781249L252.90214421874998,78.0622509765625L255.51610906250002,78.03486523437505L258.13007390625,78.0834912109375L260.74403875,78.039396484375L263.35800359374997,78.13075781250001L265.9719684375,78.09810449218753L268.58593328125,78.13741308593751L271.199898125,78.08915527343748L273.81386296875,78.14319042968748L276.4942225195312,78.14353027343748L279.1081873632813,78.12296972656253L281.7221522070313,78.10858300781251L284.33611705078124,78.13778124999999L286.95008189453125,78.16573339843751L289.5640467382812,78.12979492187503L292.1780115820313,78.11594628906249L294.7919764257813,78.16663964843752L297.680407578125,78.18728515625003L300.294372421875,78.17250195312499L302.908337265625,78.22656542968747L305.522302109375,78.13690332031251L308.136266953125,78.19020214843749L310.896613828125,78.17615527343753L313.72806054687504,78.1298515625L316.342025390625,78.14707031249998L318.955990234375,78.07131347656247L321.56995507812496,78.12161035156248L324.183919921875,78.17250195312499L326.79788476562504,78.11319921874997L329.411849609375,78.20529687499999L332.025814453125,78.19362890625001L334.63977929687496,78.14086816406251L337.253744140625,78.04333300781246L339.86770898437504,78.1606923828125L342.7707783398438,78.18079980468752L345.74965267578125,78.10133300781251L348.3636175195312,78.16890527343747L350.9775823632813,78.19181640624998L353.5915472070313,78.18136621093748L356.20551205078124,78.20070898437501L358.8775069140625,78.1771181640625L361.4914717578125,77.98383203124996L364.1054366015625,78.18187597656248L366.7194014453125,78.07431542968749L369.8268828515625,78.048515625L372.4408476953125,78.1952431640625L375.44011095703127,78.07255957031254L378.0540758007812,78.08156542968754L380.6680406445313,78.15417871093752L383.30187162109377,78.16216503906247L385.9158364648437,78.08952343749996L388.52980130859373,78.15168652343749L391.14376615234374,78.16219335937501L393.75773099609376,78.14035839843751L396.37169583984377,78.1321171875L399.06564800781246,78.05585058593749L402.00531287109374,78.25310156249998L404.61927771484375,78.17961035156253L407.23324255859376,78.16352441406252L409.84720740234377,78.1964326171875L412.4611722460937,78.15287597656248L415.07513708984374,78.05287695312501L417.68910193359375,78.0625908203125L420.68052330078126,78.14633398437502L423.3483358203125,78.05839941406254L425.96230066406247,78.20651464843752L428.6301131835938,78.16714941406252L431.24407802734373,77.96437597656251L433.9610330859375,78.20002929687502L436.69785427734377,78.12489550781248L439.69136681640623,78.14919433593747L442.3429727539062,78.13888574218748L445.46091001953124,78.08663476562498L448.07487486328125,78.15703906249996L450.75680279296876,78.17757128906248L453.73306316406246,78.17723144531249L456.6167891796875,76.84201367187501L459.382363984375,78.17496582031254L462.3753537304687,78.18003515624997L465.137268984375,78.00790429687498L467.751233828125,78.05180078125L470.5612460351562,78.11280273437501L473.1752108789062,78.00059765625002L475.8304763671875,78.12206347656252L478.4846962695312,78.0538115234375L481.53989837890623,78.18711523437503L484.53184253906255,78.161796875L487.1458073828125,78.2128583984375L490.151866953125,78.14874121093749L492.9503777148437,78.1415478515625L495.58577707031253,78.15618945312497L498.1997419140625,78.07389062499999L501.33440855468746,78.1434169921875L504.44868626953127,78.15497167968749L507.4537002539063,78.16930175781249L510.377681328125,78.1044765625L513.3136866406251,78.14401171875L515.927651484375,78.1187216796875L518.541616328125,77.9792158203125L521.155581171875,77.9730703125L523.769546015625,78.09824609374999L526.7881526171875,77.98606933593749L529.8851781640625,78.04154882812503L532.4991430078126,78.041265625L535.1575452539063,78.03744238281251L537.9576243945313,78.1026923828125L540.5715892382813,77.97966894531254L543.1855540820312,78.05800292968746L545.810497578125,78.1096875L548.7893719140625,197.242650390625L551.4697314648437,77.97369335937503L554.0836963085937,77.93226074218751L556.776602890625,77.71096582031248L559.4449382031249,78.2563583984375L562.2078990429687,77.77867968750002L564.8218638867187,332.75348364257815L567.9507798046875,77.98989257812502L570.6044769140625,78.09357324218752L573.4761786914062,78.20631640624998L576.1162831835937,328.46735479736327L578.8295786914063,137.29456689453124L581.4508626367187,77.4112236328125L584.4516942773438,76.8159873046875L587.0656591210937,78.1562177734375L589.9833666796875,76.8790283203125L593.0777782617188,76.87664941406251L596.00489609375,76.88633496093746L599.1176054296875,76.84762109374998L601.8983412304688,76.87568652343754L604.9744550585938,77.09998339843753L607.5884199023437,77.224677734375L610.2023847460938,76.68942382812497L612.8163495898438,76.72847753906251L615.4303144335937,77.30870410156251L618.1927524804687,77.90558300781248L621.245340625,78.090486328125L624.0976990625,76.77036328125001L626.7728306835937,76.87061718749999L629.4359380664063,76.87475195312498L632.1011366210937,76.89754980468751L634.7401955273438,76.90655566406252L637.3541603710938,76.85410644531248L640.3518552539063,76.82408691406249L642.9658200976562,76.78888476562503L645.5797849414063,76.8016572265625L648.1937497851562,76.93059960937501L650.8275807617188,76.73490625L653.4415456054687,76.72522070312499L656.0555104492187,76.7342265625L658.6694752929687,76.80904882812501L661.2834401367188,76.81341015624997L663.8974049804688,76.74784863281252L666.5113698242187,77.08556835937497L669.1284714257813,322.05822912597654L671.9196630859375,76.68834765625002L674.5336279296874,77.3839794921875L677.5862160742187,77.92526562500001L680.7187915429688,77.50247167968752L683.3327563867188,77.82433203124998L686.1312671484375,77.32762207031249L688.7975112890625,323.43403875732423L691.4778708398438,78.15148828125001L694.4306055273437,77.49935644531251L697.0445703710938,76.78375878906252L699.6585352148437,77.83333789062499L702.4042438867187,77.9520849609375L705.0610777539063,321.5503538818359L707.9787853125,77.71334472656247L710.766317421875,76.91601464843745L713.3802822656249,77.7635283203125L715.994247109375,77.72608886718751L718.808964453125,77.20440039062498L721.422929296875,76.7648974609375L724.036894140625,77.08636132812501L726.650858984375,77.22793457031247L729.6820126171875,77.08573828124997L732.627428203125,77.45359082031246L735.76209484375,77.29576171874999L738.3760596875001,77.59020800781252L740.9900245312499,77.35081640624998L743.6777031835937,77.57596289062496L746.3622450781249,77.30638183593754L749.1440264648438,77.31181933593751L751.7579913085938,77.36186132812497L754.5193837695313,76.79477539062498L757.1333486132812,76.63196191406252L759.7473134570313,76.61253417968749L762.3612783007812,76.56348339843748L764.9752431445312,76.570365234375L767.5892079882813,78.17918554687498L770.2031728320312,77.91492871093749L772.8171376757813,78.12135546874998L775.4311025195312,77.95333105468751L778.0450673632812,77.88417285156248L780.6590322070313,78.02721875000003" style="fill: none;" fill="none"></path></g></g></g></g></g></g><g transform="translate(74, 377)" clip-path="url(#clip_1)"><clipPath id="clip_1"><rect width="836" height="22"></rect></clipPath><g><g><line x1="0" y1="0" x2="0" y2="5" style="visibility: inherit;" fill="rgb(0, 0, 0)" stroke="rgb(204, 204, 204)" stroke-width="1px"></line><line x1="104.55859375" y1="0" x2="104.55859375" y2="5" style="visibility: inherit;" fill="rgb(0, 0, 0)" stroke="rgb(204, 204, 204)" stroke-width="1px"></line><line x1="209.1171875" y1="0" x2="209.1171875" y2="5" style="visibility: inherit;" fill="rgb(0, 0, 0)" stroke="rgb(204, 204, 204)" stroke-width="1px"></line><line x1="313.67578125" y1="0" x2="313.67578125" y2="5" style="visibility: inherit;" fill="rgb(0, 0, 0)" stroke="rgb(204, 204, 204)" stroke-width="1px"></line><line x1="418.234375" y1="0" x2="418.234375" y2="5" style="visibility: inherit;" fill="rgb(0, 0, 0)" stroke="rgb(204, 204, 204)" stroke-width="1px"></line><line x1="522.79296875" y1="0" x2="522.79296875" y2="5" style="visibility: inherit;" fill="rgb(0, 0, 0)" stroke="rgb(204, 204, 204)" stroke-width="1px"></line><line x1="627.3515625" y1="0" x2="627.3515625" y2="5" style="visibility: inherit;" fill="rgb(0, 0, 0)" stroke="rgb(204, 204, 204)" stroke-width="1px"></line><line x1="731.91015625" y1="0" x2="731.91015625" y2="5" style="visibility: inherit;" fill="rgb(0, 0, 0)" stroke="rgb(204, 204, 204)" stroke-width="1px"></line><line x1="836.46875" y1="0" x2="836.46875" y2="5" style="visibility: inherit;" fill="rgb(0, 0, 0)" stroke="rgb(204, 204, 204)" stroke-width="1px"></line></g><g transform="translate(0, 8)"><text x="0" y="0" dx="0em" dy="0.95em" style="text-anchor: middle; visibility: hidden; font-family: &quot;Helvetica Neue&quot;, sans-serif; font-size: 12px; font-weight: 200;" fill="rgb(50, 49, 63)" stroke="none" stroke-width="1px">-200k</text><text x="104.55859375" y="0" dx="0em" dy="0.95em" style="text-anchor: middle; visibility: inherit; font-family: &quot;Helvetica Neue&quot;, sans-serif; font-size: 12px; font-weight: 200;" fill="rgb(50, 49, 63)" stroke="none" stroke-width="1px">0</text><text x="209.1171875" y="0" dx="0em" dy="0.95em" style="text-anchor: middle; visibility: inherit; font-family: &quot;Helvetica Neue&quot;, sans-serif; font-size: 12px; font-weight: 200;" fill="rgb(50, 49, 63)" stroke="none" stroke-width="1px">200k</text><text x="313.67578125" y="0" dx="0em" dy="0.95em" style="text-anchor: middle; visibility: inherit; font-family: &quot;Helvetica Neue&quot;, sans-serif; font-size: 12px; font-weight: 200;" fill="rgb(50, 49, 63)" stroke="none" stroke-width="1px">400k</text><text x="418.234375" y="0" dx="0em" dy="0.95em" style="text-anchor: middle; visibility: inherit; font-family: &quot;Helvetica Neue&quot;, sans-serif; font-size: 12px; font-weight: 200;" fill="rgb(50, 49, 63)" stroke="none" stroke-width="1px">600k</text><text x="522.79296875" y="0" dx="0em" dy="0.95em" style="text-anchor: middle; visibility: inherit; font-family: &quot;Helvetica Neue&quot;, sans-serif; font-size: 12px; font-weight: 200;" fill="rgb(50, 49, 63)" stroke="none" stroke-width="1px">800k</text><text x="627.3515625" y="0" dx="0em" dy="0.95em" style="text-anchor: middle; visibility: inherit; font-family: &quot;Helvetica Neue&quot;, sans-serif; font-size: 12px; font-weight: 200;" fill="rgb(50, 49, 63)" stroke="none" stroke-width="1px">1M</text><text x="731.91015625" y="0" dx="0em" dy="0.95em" style="text-anchor: middle; visibility: inherit; font-family: &quot;Helvetica Neue&quot;, sans-serif; font-size: 12px; font-weight: 200;" fill="rgb(50, 49, 63)" stroke="none" stroke-width="1px">1.2M</text><text x="836.46875" y="0" dx="0em" dy="0.95em" style="text-anchor: middle; visibility: hidden; font-family: &quot;Helvetica Neue&quot;, sans-serif; font-size: 12px; font-weight: 200;" fill="rgb(50, 49, 63)" stroke="none" stroke-width="1px">1.4M</text></g><line x1="0" y1="0" x2="836.46875" y2="0" fill="rgb(0, 0, 0)" stroke="rgb(204, 204, 204)" stroke-width="1px"></line></g></g></g></g></svg>