<svg viewBox="0 0 911.25 400" xmlns="http://www.w3.org/2000/svg"><g><g><g><g><g><line x1="74.78125" y1="377" x2="69.78125" y2="377" style="visibility: inherit;" fill="rgb(0, 0, 0)" stroke="rgb(204, 204, 204)" stroke-width="1px"></line><line x1="74.78125" y1="348" x2="69.78125" y2="348" style="visibility: inherit;" fill="rgb(0, 0, 0)" stroke="rgb(204, 204, 204)" stroke-width="1px"></line><line x1="74.78125" y1="319" x2="69.78125" y2="319" style="visibility: inherit;" fill="rgb(0, 0, 0)" stroke="rgb(204, 204, 204)" stroke-width="1px"></line><line x1="74.78125" y1="290" x2="69.78125" y2="290" style="visibility: inherit;" fill="rgb(0, 0, 0)" stroke="rgb(204, 204, 204)" stroke-width="1px"></line><line x1="74.78125" y1="261" x2="69.78125" y2="261" style="visibility: inherit;" fill="rgb(0, 0, 0)" stroke="rgb(204, 204, 204)" stroke-width="1px"></line><line x1="74.78125" y1="232" x2="69.78125" y2="232" style="visibility: inherit;" fill="rgb(0, 0, 0)" stroke="rgb(204, 204, 204)" stroke-width="1px"></line><line x1="74.78125" y1="203" x2="69.78125" y2="203" style="visibility: inherit;" fill="rgb(0, 0, 0)" stroke="rgb(204, 204, 204)" stroke-width="1px"></line><line x1="74.78125" y1="174" x2="69.78125" y2="174" style="visibility: inherit;" fill="rgb(0, 0, 0)" stroke="rgb(204, 204, 204)" stroke-width="1px"></line><line x1="74.78125" y1="145" x2="69.78125" y2="145" style="visibility: inherit;" fill="rgb(0, 0, 0)" stroke="rgb(204, 204, 204)" stroke-width="1px"></line><line x1="74.78125" y1="116" x2="69.78125" y2="116" style="visibility: inherit;" fill="rgb(0, 0, 0)" stroke="rgb(204, 204, 204)" stroke-width="1px"></line><line x1="74.78125" y1="87" x2="69.78125" y2="87" style="visibility: inherit;" fill="rgb(0, 0, 0)" stroke="rgb(204, 204, 204)" stroke-width="1px"></line><line x1="74.78125" y1="58" x2="69.78125" y2="58" style="visibility: inherit;" fill="rgb(0, 0, 0)" stroke="rgb(204, 204, 204)" stroke-width="1px"></line><line x1="74.78125" y1="29" x2="69.78125" y2="29" style="visibility: inherit;" fill="rgb(0, 0, 0)" stroke="rgb(204, 204, 204)" stroke-width="1px"></line><line x1="74.78125" y1="0" x2="69.78125" y2="0" style="visibility: inherit;" fill="rgb(0, 0, 0)" stroke="rgb(204, 204, 204)" stroke-width="1px"></line></g><g transform="translate(64.78125, 0)"><text x="0" y="377" dx="0em" dy="0.3em" style="text-anchor: end; visibility: hidden; font-family: &quot;Helvetica Neue&quot;, sans-serif; font-size: 12px; font-weight: 200;" fill="rgb(50, 49, 63)" stroke="none" stroke-width="1px">-100</text><text x="0" y="348" dx="0em" dy="0.3em" style="text-anchor: end; visibility: inherit; font-family: &quot;Helvetica Neue&quot;, sans-serif; font-size: 12px; font-weight: 200;" fill="rgb(50, 49, 63)" stroke="none" stroke-width="1px">0</text><text x="0" y="319" dx="0em" dy="0.3em" style="text-anchor: end; visibility: inherit; font-family: &quot;Helvetica Neue&quot;, sans-serif; font-size: 12px; font-weight: 200;" fill="rgb(50, 49, 63)" stroke="none" stroke-width="1px">100</text><text x="0" y="290" dx="0em" dy="0.3em" style="text-anchor: end; visibility: inherit; font-family: &quot;Helvetica Neue&quot;, sans-serif; font-size: 12px; font-weight: 200;" fill="rgb(50, 49, 63)" stroke="none" stroke-width="1px">200</text><text x="0" y="261" dx="0em" dy="0.3em" style="text-anchor: end; visibility: inherit; font-family: &quot;Helvetica Neue&quot;, sans-serif; font-size: 12px; font-weight: 200;" fill="rgb(50, 49, 63)" stroke="none" stroke-width="1px">300</text><text x="0" y="232" dx="0em" dy="0.3em" style="text-anchor: end; visibility: inherit; font-family: &quot;Helvetica Neue&quot;, sans-serif; font-size: 12px; font-weight: 200;" fill="rgb(50, 49, 63)" stroke="none" stroke-width="1px">400</text><text x="0" y="203" dx="0em" dy="0.3em" style="text-anchor: end; visibility: inherit; font-family: &quot;Helvetica Neue&quot;, sans-serif; font-size: 12px; font-weight: 200;" fill="rgb(50, 49, 63)" stroke="none" stroke-width="1px">500</text><text x="0" y="174" dx="0em" dy="0.3em" style="text-anchor: end; visibility: inherit; font-family: &quot;Helvetica Neue&quot;, sans-serif; font-size: 12px; font-weight: 200;" fill="rgb(50, 49, 63)" stroke="none" stroke-width="1px">600</text><text x="0" y="145" dx="0em" dy="0.3em" style="text-anchor: end; visibility: inherit; font-family: &quot;Helvetica Neue&quot;, sans-serif; font-size: 12px; font-weight: 200;" fill="rgb(50, 49, 63)" stroke="none" stroke-width="1px">700</text><text x="0" y="116" dx="0em" dy="0.3em" style="text-anchor: end; visibility: inherit; font-family: &quot;Helvetica Neue&quot;, sans-serif; font-size: 12px; font-weight: 200;" fill="rgb(50, 49, 63)" stroke="none" stroke-width="1px">800</text><text x="0" y="87" dx="0em" dy="0.3em" style="text-anchor: end; visibility: inherit; font-family: &quot;Helvetica Neue&quot;, sans-serif; font-size: 12px; font-weight: 200;" fill="rgb(50, 49, 63)" stroke="none" stroke-width="1px">900</text><text x="0" y="58" dx="0em" dy="0.3em" style="text-anchor: end; visibility: inherit; font-family: &quot;Helvetica Neue&quot;, sans-serif; font-size: 12px; font-weight: 200;" fill="rgb(50, 49, 63)" stroke="none" stroke-width="1px">1e+3</text><text x="0" y="29" dx="0em" dy="0.3em" style="text-anchor: end; visibility: inherit; font-family: &quot;Helvetica Neue&quot;, sans-serif; font-size: 12px; font-weight: 200;" fill="rgb(50, 49, 63)" stroke="none" stroke-width="1px">1.1e+3</text><text x="0" y="0" dx="0em" dy="0.3em" style="text-anchor: end; visibility: hidden; font-family: &quot;Helvetica Neue&quot;, sans-serif; font-size: 12px; font-weight: 200;" fill="rgb(50, 49, 63)" stroke="none" stroke-width="1px">1.2e+3</text></g><line x1="74.78125" y1="0" x2="74.78125" y2="377" fill="rgb(0, 0, 0)" stroke="rgb(204, 204, 204)" stroke-width="1px"></line></g></g><g transform="translate(74, 0)" clip-path="url(#clip_0)"><clipPath id="clip_0"><rect width="836" height="376"></rect></clipPath><g><g><g><line x1="0" y1="0" x2="0" y2="377" fill="rgb(0, 0, 0)" stroke="rgb(60, 60, 60)" stroke-width="1px" opacity="0.25"></line><line x1="59.747767857142854" y1="0" x2="59.747767857142854" y2="377" fill="rgb(0, 0, 0)" stroke="rgb(60, 60, 60)" stroke-width="1px" opacity="0.25"></line><line x1="119.49553571428571" y1="0" x2="119.49553571428571" y2="377" fill="rgb(0, 0, 0)" stroke="rgb(60, 60, 60)" stroke-width="1px" opacity="0.25"></line><line x1="179.24330357142856" y1="0" x2="179.24330357142856" y2="377" fill="rgb(0, 0, 0)" stroke="rgb(60, 60, 60)" stroke-width="1px" opacity="0.25"></line><line x1="238.99107142857142" y1="0" x2="238.99107142857142" y2="377" fill="rgb(0, 0, 0)" stroke="rgb(60, 60, 60)" stroke-width="1px" opacity="0.25"></line><line x1="298.7388392857143" y1="0" x2="298.7388392857143" y2="377" fill="rgb(0, 0, 0)" stroke="rgb(60, 60, 60)" stroke-width="1px" opacity="0.25"></line><line x1="358.4866071428571" y1="0" x2="358.4866071428571" y2="377" fill="rgb(0, 0, 0)" stroke="rgb(60, 60, 60)" stroke-width="1px" opacity="0.25"></line><line x1="418.234375" y1="0" x2="418.234375" y2="377" fill="rgb(0, 0, 0)" stroke="rgb(60, 60, 60)" stroke-width="1px" opacity="0.25"></line><line x1="477.98214285714283" y1="0" x2="477.98214285714283" y2="377" fill="rgb(0, 0, 0)" stroke="rgb(60, 60, 60)" stroke-width="1px" opacity="0.25"></line><line x1="537.7299107142858" y1="0" x2="537.7299107142858" y2="377" fill="rgb(0, 0, 0)" stroke="rgb(60, 60, 60)" stroke-width="1px" opacity="0.25"></line><line x1="597.4776785714286" y1="0" x2="597.4776785714286" y2="377" fill="rgb(0, 0, 0)" stroke="rgb(60, 60, 60)" stroke-width="1px" opacity="0.25"></line><line x1="657.2254464285714" y1="0" x2="657.2254464285714" y2="377" fill="rgb(0, 0, 0)" stroke="rgb(60, 60, 60)" stroke-width="1px" opacity="0.25"></line><line x1="716.9732142857142" y1="0" x2="716.9732142857142" y2="377" fill="rgb(0, 0, 0)" stroke="rgb(60, 60, 60)" stroke-width="1px" opacity="0.25"></line><line x1="776.7209821428572" y1="0" x2="776.7209821428572" y2="377" fill="rgb(0, 0, 0)" stroke="rgb(60, 60, 60)" stroke-width="1px" opacity="0.25"></line><line x1="836.46875" y1="0" x2="836.46875" y2="377" fill="rgb(0, 0, 0)" stroke="rgb(60, 60, 60)" stroke-width="1px" opacity="0.25"></line></g><g><line x1="0" y1="377" x2="836.46875" y2="377" fill="rgb(0, 0, 0)" stroke="rgb(60, 60, 60)" stroke-width="1px" opacity="0.25"></line><line x1="0" y1="348" x2="836.46875" y2="348" fill="rgb(0, 0, 0)" stroke="rgb(60, 60, 60)" stroke-width="1px" opacity="0.25"></line><line x1="0" y1="319" x2="836.46875" y2="319" fill="rgb(0, 0, 0)" stroke="rgb(60, 60, 60)" stroke-width="1px" opacity="0.25"></line><line x1="0" y1="290" x2="836.46875" y2="290" fill="rgb(0, 0, 0)" stroke="rgb(60, 60, 60)" stroke-width="1px" opacity="0.25"></line><line x1="0" y1="261" x2="836.46875" y2="261" fill="rgb(0, 0, 0)" stroke="rgb(60, 60, 60)" stroke-width="1px" opacity="0.25"></line><line x1="0" y1="232" x2="836.46875" y2="232" fill="rgb(0, 0, 0)" stroke="rgb(60, 60, 60)" stroke-width="1px" opacity="0.25"></line><line x1="0" y1="203" x2="836.46875" y2="203" fill="rgb(0, 0, 0)" stroke="rgb(60, 60, 60)" stroke-width="1px" opacity="0.25"></line><line x1="0" y1="174" x2="836.46875" y2="174" fill="rgb(0, 0, 0)" stroke="rgb(60, 60, 60)" stroke-width="1px" opacity="0.25"></line><line x1="0" y1="145" x2="836.46875" y2="145" fill="rgb(0, 0, 0)" stroke="rgb(60, 60, 60)" stroke-width="1px" opacity="0.25"></line><line x1="0" y1="116" x2="836.46875" y2="116" fill="rgb(0, 0, 0)" stroke="rgb(60, 60, 60)" stroke-width="1px" opacity="0.25"></line><line x1="0" y1="87" x2="836.46875" y2="87" fill="rgb(0, 0, 0)" stroke="rgb(60, 60, 60)" stroke-width="1px" opacity="0.25"></line><line x1="0" y1="58" x2="836.46875" y2="58" fill="rgb(0, 0, 0)" stroke="rgb(60, 60, 60)" stroke-width="1px" opacity="0.25"></line><line x1="0" y1="29" x2="836.46875" y2="29" fill="rgb(0, 0, 0)" stroke="rgb(60, 60, 60)" stroke-width="1px" opacity="0.25"></line><line x1="0" y1="0" x2="836.46875" y2="0" fill="rgb(0, 0, 0)" stroke="rgb(60, 60, 60)" stroke-width="1px" opacity="0.25"></line></g></g></g><g><g><line x1="0" y1="348" x2="836.46875" y2="348" fill="rgb(0, 0, 0)" stroke="rgb(153, 153, 153)" stroke-width="1.5px"></line></g></g><g><g><line x1="59.747767857142854" y1="0" x2="59.747767857142854" y2="377" fill="rgb(0, 0, 0)" stroke="rgb(153, 153, 153)" stroke-width="1.5px"></line></g></g><g><g><g><g><g><path stroke="rgb(204, 51, 17)" stroke-width="2px" d="M62.750690669642864,332.92L65.74823618303571,332.34L68.74040439732143,333.8189995574951L71.74691207589287,330.9189995574951L74.7384828125,329.875L77.77486437499999,309.98099822998046L81.08011089285715,58L84.06749928571429,58L87.05488767857143,58L90.04227607142857,58L93.02966446428572,58L96.23453473214286,58L99.221923125,58L102.20931151785715,58L105.19669991071429,58L108.18408830357143,58L111.17147669642858,58L114.15886508928571,58L117.14625348214287,58L120.133641875,58L123.12103026785715,58L126.10841866071429,58L129.0958070535714,58L132.08319544642856,58L135.07058383928572,58L138.05797223214287,58L141.045360625,58L144.03274901785716,58L147.02013741071428,58L150.00752580357144,58L152.99491419642857,58L155.98230258928572,58L158.96969098214285,58L161.95707937499998,58L164.94446776785713,58L167.9318561607143,58L170.91924455357145,58L173.90663294642857,58L176.89402133928573,58L179.88140973214286,58L182.868798125,58L185.85618651785714,58L188.8435749107143,58L191.83096330357142,58L194.81835169642858,58L197.8057400892857,58L200.79312848214283,58L203.780516875,58L206.76790526785715,58L209.75529366071427,58L212.74268205357146,58L215.73007044642858,58L218.7174588392857,58L221.70484723214284,58L224.69223562500002,58L227.67962401785715,58L230.66701241071428,58L233.6544008035714,58L236.64178919642856,58L239.62917758928572,58L242.61656598214287,58L245.603954375,58L248.59134276785713,58L251.5787311607143,58L254.56611955357144,58L257.55350794642857,58L260.5408963392857,58L263.5282847321429,58L266.51567312500003,58L269.50306151785713,58L272.4904499107143,58L275.4778383035714,58L278.4652266964286,58L281.4526150892857,58L284.44000348214286,58L287.427391875,58L290.41478026785717,58L293.40216866071427,58L296.3895570535714,58L299.3769454464286,58L302.3643338392857,58L305.3517222321429,58L308.339110625,58L311.32649901785715,58L314.31388741071424,58L317.30127580357146,58L320.28866419642856,58L323.2760525892857,58L326.26344098214287,58L329.250829375,58L332.2382177678572,58L335.2256061607143,58L338.21299455357143,58L341.20038294642853,58L344.18777133928575,58L347.17515973214284,58L350.162548125,58L353.1499365178571,58L356.1373249107143,58L359.1247133035714,58L362.11210169642857,58L365.0994900892857,58L368.0868784821429,58L371.07426687500003,58L374.06165526785713,58L377.0490436607143,58L380.0364320535714,58L383.0238204464286,58L386.0112088392857,58L388.99859723214286,58L391.985985625,58L394.97337401785717,58L397.96076241071427,58L400.9481508035714,58L403.9355391964286,58L406.9229275892857,58L409.9103159821429,58L412.897704375,58L415.88509276785715,58L418.8724811607143,58L421.85986955357146,58L424.84725794642856,58L427.8346463392857,58L430.82203473214287,58L433.80942312499997,58L436.7968115178571,58L439.7841999107142,58L442.7715883035715,58L445.7589766964286,58L448.74636508928575,58L451.73375348214284,58L454.721141875,58L457.7085302678571,58L460.69591866071426,58L463.6833070535714,58L466.6706954464286,58L469.6580838392857,58L472.6454722321429,58L475.63286062500003,58L478.62024901785713,58L481.6076374107143,58L484.5950258035714,58L487.58241419642854,58L490.5698025892857,58L493.5571909821429,58L496.544579375,58L499.53196776785717,58L502.51935616071427,58L505.5067445535714,58L508.4941329464286,58L511.4815213392857,58L514.4689097321428,58L517.456298125,58L520.4436865178571,58L523.4310749107143,58L526.4184633035715,58L529.4058516964286,58L532.3932400892857,58L535.3806284821428,58L538.368016875,58L541.3554052678571,58L544.3427936607143,58L547.3301820535714,58L550.3175704464286,58L553.3049588392857,58L556.2923472321429,58L559.279735625,58L562.2671240178571,58L565.2545124107143,58L568.2419008035714,58L571.2292891964286,58L574.2166775892857,58L577.2040659821429,58L580.191454375,58L583.1788427678572,58L586.1662311607142,58L589.1536195535714,58L592.1410079464285,58L595.1283963392857,58L598.1157847321429,58L601.103173125,58L604.0905615178572,58L607.2368789732143,58L610.2242673660714,267.93099822998045L613.3431008482142,58L616.3304892410714,58L619.3178776339286,58L622.3052660267857,58L625.2926544196429,58L628.2800428125,58L631.2674312053572,58L634.2548195982143,58L637.2422079910715,58L640.2295963839285,58L643.2169847767857,58L646.2043731696428,58L649.1917615625,58L652.179149955357,58L655.1665383482143,58L658.1539267410715,58L661.1413151339286,58L664.1287035267857,58L667.1160919196428,91.40800354003903L670.1034803125,58L673.0908687053571,58L676.0782570982143,58L679.0656454910713,58L682.0530338839286,58L685.0404222767858,58L688.0278106696429,58L691.10302828125,58L694.0904166741071,58L697.0778050669643,58L700.0651934598214,58L703.0525818526786,58L706.0399702455356,58L709.0273586383928,58L712.0147470312501,58L715.0021354241072,58L717.9895238169643,58L720.9769122098214,58L723.9643006026786,58L726.9516889955357,58L729.9390773883929,58L733.0662755580357,58L736.0536639508929,58L739.04105234375,58L742.0284407366071,58L745.0158291294642,58L748.0032175223214,58L750.9906059151785,58L753.9779943080357,58L756.9653827008929,58L759.95277109375,58L762.9401594866072,68.96199645996091L765.9275478794643,58L769.3176362276786,58L772.3050246205357,58L775.2924130133929,58L778.27980140625,58L781.2671897991071,58L784.3716838169643,58L787.3590722098214,58L790.3464606026786,58L793.3338489955357,58L796.3212373883928,58L799.3086257812499,58L802.3402275223215,318.565L805.3276159151785,58L808.3150043080357,58" style="fill: none;" fill="none"></path></g></g></g></g></g></g><g transform="translate(74, 377)" clip-path="url(#clip_1)"><clipPath id="clip_1"><rect width="836" height="22"></rect></clipPath><g><g><line x1="0" y1="0" x2="0" y2="5" style="visibility: inherit;" fill="rgb(0, 0, 0)" stroke="rgb(204, 204, 204)" stroke-width="1px"></line><line x1="59.747767857142854" y1="0" x2="59.747767857142854" y2="5" style="visibility: inherit;" fill="rgb(0, 0, 0)" stroke="rgb(204, 204, 204)" stroke-width="1px"></line><line x1="119.49553571428571" y1="0" x2="119.49553571428571" y2="5" style="visibility: inherit;" fill="rgb(0, 0, 0)" stroke="rgb(204, 204, 204)" stroke-width="1px"></line><line x1="179.24330357142856" y1="0" x2="179.24330357142856" y2="5" style="visibility: inherit;" fill="rgb(0, 0, 0)" stroke="rgb(204, 204, 204)" stroke-width="1px"></line><line x1="238.99107142857142" y1="0" x2="238.99107142857142" y2="5" style="visibility: inherit;" fill="rgb(0, 0, 0)" stroke="rgb(204, 204, 204)" stroke-width="1px"></line><line x1="298.7388392857143" y1="0" x2="298.7388392857143" y2="5" style="visibility: inherit;" fill="rgb(0, 0, 0)" stroke="rgb(204, 204, 204)" stroke-width="1px"></line><line x1="358.4866071428571" y1="0" x2="358.4866071428571" y2="5" style="visibility: inherit;" fill="rgb(0, 0, 0)" stroke="rgb(204, 204, 204)" stroke-width="1px"></line><line x1="418.234375" y1="0" x2="418.234375" y2="5" style="visibility: inherit;" fill="rgb(0, 0, 0)" stroke="rgb(204, 204, 204)" stroke-width="1px"></line><line x1="477.98214285714283" y1="0" x2="477.98214285714283" y2="5" style="visibility: inherit;" fill="rgb(0, 0, 0)" stroke="rgb(204, 204, 204)" stroke-width="1px"></line><line x1="537.7299107142858" y1="0" x2="537.7299107142858" y2="5" style="visibility: inherit;" fill="rgb(0, 0, 0)" stroke="rgb(204, 204, 204)" stroke-width="1px"></line><line x1="597.4776785714286" y1="0" x2="597.4776785714286" y2="5" style="visibility: inherit;" fill="rgb(0, 0, 0)" stroke="rgb(204, 204, 204)" stroke-width="1px"></line><line x1="657.2254464285714" y1="0" x2="657.2254464285714" y2="5" style="visibility: inherit;" fill="rgb(0, 0, 0)" stroke="rgb(204, 204, 204)" stroke-width="1px"></line><line x1="716.9732142857142" y1="0" x2="716.9732142857142" y2="5" style="visibility: inherit;" fill="rgb(0, 0, 0)" stroke="rgb(204, 204, 204)" stroke-width="1px"></line><line x1="776.7209821428572" y1="0" x2="776.7209821428572" y2="5" style="visibility: inherit;" fill="rgb(0, 0, 0)" stroke="rgb(204, 204, 204)" stroke-width="1px"></line><line x1="836.46875" y1="0" x2="836.46875" y2="5" style="visibility: inherit;" fill="rgb(0, 0, 0)" stroke="rgb(204, 204, 204)" stroke-width="1px"></line></g><g transform="translate(0, 8)"><text x="0" y="0" dx="0em" dy="0.95em" style="text-anchor: middle; visibility: hidden; font-family: &quot;Helvetica Neue&quot;, sans-serif; font-size: 12px; font-weight: 200;" fill="rgb(50, 49, 63)" stroke="none" stroke-width="1px">-100k</text><text x="59.747767857142854" y="0" dx="0em" dy="0.95em" style="text-anchor: middle; visibility: inherit; font-family: &quot;Helvetica Neue&quot;, sans-serif; font-size: 12px; font-weight: 200;" fill="rgb(50, 49, 63)" stroke="none" stroke-width="1px">0</text><text x="119.49553571428571" y="0" dx="0em" dy="0.95em" style="text-anchor: middle; visibility: inherit; font-family: &quot;Helvetica Neue&quot;, sans-serif; font-size: 12px; font-weight: 200;" fill="rgb(50, 49, 63)" stroke="none" stroke-width="1px">100k</text><text x="179.24330357142856" y="0" dx="0em" dy="0.95em" style="text-anchor: middle; visibility: inherit; font-family: &quot;Helvetica Neue&quot;, sans-serif; font-size: 12px; font-weight: 200;" fill="rgb(50, 49, 63)" stroke="none" stroke-width="1px">200k</text><text x="238.99107142857142" y="0" dx="0em" dy="0.95em" style="text-anchor: middle; visibility: inherit; font-family: &quot;Helvetica Neue&quot;, sans-serif; font-size: 12px; font-weight: 200;" fill="rgb(50, 49, 63)" stroke="none" stroke-width="1px">300k</text><text x="298.7388392857143" y="0" dx="0em" dy="0.95em" style="text-anchor: middle; visibility: inherit; font-family: &quot;Helvetica Neue&quot;, sans-serif; font-size: 12px; font-weight: 200;" fill="rgb(50, 49, 63)" stroke="none" stroke-width="1px">400k</text><text x="358.4866071428571" y="0" dx="0em" dy="0.95em" style="text-anchor: middle; visibility: inherit; font-family: &quot;Helvetica Neue&quot;, sans-serif; font-size: 12px; font-weight: 200;" fill="rgb(50, 49, 63)" stroke="none" stroke-width="1px">500k</text><text x="418.234375" y="0" dx="0em" dy="0.95em" style="text-anchor: middle; visibility: inherit; font-family: &quot;Helvetica Neue&quot;, sans-serif; font-size: 12px; font-weight: 200;" fill="rgb(50, 49, 63)" stroke="none" stroke-width="1px">600k</text><text x="477.98214285714283" y="0" dx="0em" dy="0.95em" style="text-anchor: middle; visibility: inherit; font-family: &quot;Helvetica Neue&quot;, sans-serif; font-size: 12px; font-weight: 200;" fill="rgb(50, 49, 63)" stroke="none" stroke-width="1px">700k</text><text x="537.7299107142858" y="0" dx="0em" dy="0.95em" style="text-anchor: middle; visibility: inherit; font-family: &quot;Helvetica Neue&quot;, sans-serif; font-size: 12px; font-weight: 200;" fill="rgb(50, 49, 63)" stroke="none" stroke-width="1px">800k</text><text x="597.4776785714286" y="0" dx="0em" dy="0.95em" style="text-anchor: middle; visibility: inherit; font-family: &quot;Helvetica Neue&quot;, sans-serif; font-size: 12px; font-weight: 200;" fill="rgb(50, 49, 63)" stroke="none" stroke-width="1px">900k</text><text x="657.2254464285714" y="0" dx="0em" dy="0.95em" style="text-anchor: middle; visibility: inherit; font-family: &quot;Helvetica Neue&quot;, sans-serif; font-size: 12px; font-weight: 200;" fill="rgb(50, 49, 63)" stroke="none" stroke-width="1px">1M</text><text x="716.9732142857142" y="0" dx="0em" dy="0.95em" style="text-anchor: middle; visibility: inherit; font-family: &quot;Helvetica Neue&quot;, sans-serif; font-size: 12px; font-weight: 200;" fill="rgb(50, 49, 63)" stroke="none" stroke-width="1px">1.1M</text><text x="776.7209821428572" y="0" dx="0em" dy="0.95em" style="text-anchor: middle; visibility: inherit; font-family: &quot;Helvetica Neue&quot;, sans-serif; font-size: 12px; font-weight: 200;" fill="rgb(50, 49, 63)" stroke="none" stroke-width="1px">1.2M</text><text x="836.46875" y="0" dx="0em" dy="0.95em" style="text-anchor: middle; visibility: hidden; font-family: &quot;Helvetica Neue&quot;, sans-serif; font-size: 12px; font-weight: 200;" fill="rgb(50, 49, 63)" stroke="none" stroke-width="1px">1.3M</text></g><line x1="0" y1="0" x2="836.46875" y2="0" fill="rgb(0, 0, 0)" stroke="rgb(204, 204, 204)" stroke-width="1px"></line></g></g></g></g></svg>