<svg viewBox="0 0 911.25 400" xmlns="http://www.w3.org/2000/svg"><g><g><g><g><g><line x1="42.390625" y1="377" x2="37.390625" y2="377" style="visibility: inherit;" fill="rgb(0, 0, 0)" stroke="rgb(204, 204, 204)" stroke-width="1px"></line><line x1="42.390625" y1="329.875" x2="37.390625" y2="329.875" style="visibility: inherit;" fill="rgb(0, 0, 0)" stroke="rgb(204, 204, 204)" stroke-width="1px"></line><line x1="42.390625" y1="282.75" x2="37.390625" y2="282.75" style="visibility: inherit;" fill="rgb(0, 0, 0)" stroke="rgb(204, 204, 204)" stroke-width="1px"></line><line x1="42.390625" y1="235.625" x2="37.390625" y2="235.625" style="visibility: inherit;" fill="rgb(0, 0, 0)" stroke="rgb(204, 204, 204)" stroke-width="1px"></line><line x1="42.390625" y1="188.5" x2="37.390625" y2="188.5" style="visibility: inherit;" fill="rgb(0, 0, 0)" stroke="rgb(204, 204, 204)" stroke-width="1px"></line><line x1="42.390625" y1="141.375" x2="37.390625" y2="141.375" style="visibility: inherit;" fill="rgb(0, 0, 0)" stroke="rgb(204, 204, 204)" stroke-width="1px"></line><line x1="42.390625" y1="94.25" x2="37.390625" y2="94.25" style="visibility: inherit;" fill="rgb(0, 0, 0)" stroke="rgb(204, 204, 204)" stroke-width="1px"></line><line x1="42.390625" y1="47.125" x2="37.390625" y2="47.125" style="visibility: inherit;" fill="rgb(0, 0, 0)" stroke="rgb(204, 204, 204)" stroke-width="1px"></line><line x1="42.390625" y1="0" x2="37.390625" y2="0" style="visibility: inherit;" fill="rgb(0, 0, 0)" stroke="rgb(204, 204, 204)" stroke-width="1px"></line></g><g transform="translate(32.390625, 0)"><text x="0" y="377" dx="0em" dy="0.3em" style="text-anchor: end; visibility: hidden; font-family: &quot;Helvetica Neue&quot;, sans-serif; font-size: 12px; font-weight: 200;" fill="rgb(50, 49, 63)" stroke="none" stroke-width="1px">-20</text><text x="0" y="329.875" dx="0em" dy="0.3em" style="text-anchor: end; visibility: inherit; font-family: &quot;Helvetica Neue&quot;, sans-serif; font-size: 12px; font-weight: 200;" fill="rgb(50, 49, 63)" stroke="none" stroke-width="1px">-18</text><text x="0" y="282.75" dx="0em" dy="0.3em" style="text-anchor: end; visibility: inherit; font-family: &quot;Helvetica Neue&quot;, sans-serif; font-size: 12px; font-weight: 200;" fill="rgb(50, 49, 63)" stroke="none" stroke-width="1px">-16</text><text x="0" y="235.625" dx="0em" dy="0.3em" style="text-anchor: end; visibility: inherit; font-family: &quot;Helvetica Neue&quot;, sans-serif; font-size: 12px; font-weight: 200;" fill="rgb(50, 49, 63)" stroke="none" stroke-width="1px">-14</text><text x="0" y="188.5" dx="0em" dy="0.3em" style="text-anchor: end; visibility: inherit; font-family: &quot;Helvetica Neue&quot;, sans-serif; font-size: 12px; font-weight: 200;" fill="rgb(50, 49, 63)" stroke="none" stroke-width="1px">-12</text><text x="0" y="141.375" dx="0em" dy="0.3em" style="text-anchor: end; visibility: inherit; font-family: &quot;Helvetica Neue&quot;, sans-serif; font-size: 12px; font-weight: 200;" fill="rgb(50, 49, 63)" stroke="none" stroke-width="1px">-10</text><text x="0" y="94.25" dx="0em" dy="0.3em" style="text-anchor: end; visibility: inherit; font-family: &quot;Helvetica Neue&quot;, sans-serif; font-size: 12px; font-weight: 200;" fill="rgb(50, 49, 63)" stroke="none" stroke-width="1px">-8</text><text x="0" y="47.125" dx="0em" dy="0.3em" style="text-anchor: end; visibility: inherit; font-family: &quot;Helvetica Neue&quot;, sans-serif; font-size: 12px; font-weight: 200;" fill="rgb(50, 49, 63)" stroke="none" stroke-width="1px">-6</text><text x="0" y="0" dx="0em" dy="0.3em" style="text-anchor: end; visibility: hidden; font-family: &quot;Helvetica Neue&quot;, sans-serif; font-size: 12px; font-weight: 200;" fill="rgb(50, 49, 63)" stroke="none" stroke-width="1px">-4</text></g><line x1="42.390625" y1="0" x2="42.390625" y2="377" fill="rgb(0, 0, 0)" stroke="rgb(204, 204, 204)" stroke-width="1px"></line></g></g><g transform="translate(42, 0)" clip-path="url(#clip_0)"><clipPath id="clip_0"><rect width="868" height="376"></rect></clipPath><g><g><g><line x1="0" y1="0" x2="0" y2="377" fill="rgb(0, 0, 0)" stroke="rgb(60, 60, 60)" stroke-width="1px" opacity="0.25"></line><line x1="62.06138392857142" y1="0" x2="62.06138392857142" y2="377" fill="rgb(0, 0, 0)" stroke="rgb(60, 60, 60)" stroke-width="1px" opacity="0.25"></line><line x1="124.12276785714285" y1="0" x2="124.12276785714285" y2="377" fill="rgb(0, 0, 0)" stroke="rgb(60, 60, 60)" stroke-width="1px" opacity="0.25"></line><line x1="186.18415178571428" y1="0" x2="186.18415178571428" y2="377" fill="rgb(0, 0, 0)" stroke="rgb(60, 60, 60)" stroke-width="1px" opacity="0.25"></line><line x1="248.2455357142857" y1="0" x2="248.2455357142857" y2="377" fill="rgb(0, 0, 0)" stroke="rgb(60, 60, 60)" stroke-width="1px" opacity="0.25"></line><line x1="310.30691964285717" y1="0" x2="310.30691964285717" y2="377" fill="rgb(0, 0, 0)" stroke="rgb(60, 60, 60)" stroke-width="1px" opacity="0.25"></line><line x1="372.36830357142856" y1="0" x2="372.36830357142856" y2="377" fill="rgb(0, 0, 0)" stroke="rgb(60, 60, 60)" stroke-width="1px" opacity="0.25"></line><line x1="434.4296875" y1="0" x2="434.4296875" y2="377" fill="rgb(0, 0, 0)" stroke="rgb(60, 60, 60)" stroke-width="1px" opacity="0.25"></line><line x1="496.4910714285714" y1="0" x2="496.4910714285714" y2="377" fill="rgb(0, 0, 0)" stroke="rgb(60, 60, 60)" stroke-width="1px" opacity="0.25"></line><line x1="558.5524553571429" y1="0" x2="558.5524553571429" y2="377" fill="rgb(0, 0, 0)" stroke="rgb(60, 60, 60)" stroke-width="1px" opacity="0.25"></line><line x1="620.6138392857143" y1="0" x2="620.6138392857143" y2="377" fill="rgb(0, 0, 0)" stroke="rgb(60, 60, 60)" stroke-width="1px" opacity="0.25"></line><line x1="682.6752232142857" y1="0" x2="682.6752232142857" y2="377" fill="rgb(0, 0, 0)" stroke="rgb(60, 60, 60)" stroke-width="1px" opacity="0.25"></line><line x1="744.7366071428571" y1="0" x2="744.7366071428571" y2="377" fill="rgb(0, 0, 0)" stroke="rgb(60, 60, 60)" stroke-width="1px" opacity="0.25"></line><line x1="806.7979910714286" y1="0" x2="806.7979910714286" y2="377" fill="rgb(0, 0, 0)" stroke="rgb(60, 60, 60)" stroke-width="1px" opacity="0.25"></line><line x1="868.859375" y1="0" x2="868.859375" y2="377" fill="rgb(0, 0, 0)" stroke="rgb(60, 60, 60)" stroke-width="1px" opacity="0.25"></line></g><g><line x1="0" y1="377" x2="868.859375" y2="377" fill="rgb(0, 0, 0)" stroke="rgb(60, 60, 60)" stroke-width="1px" opacity="0.25"></line><line x1="0" y1="329.875" x2="868.859375" y2="329.875" fill="rgb(0, 0, 0)" stroke="rgb(60, 60, 60)" stroke-width="1px" opacity="0.25"></line><line x1="0" y1="282.75" x2="868.859375" y2="282.75" fill="rgb(0, 0, 0)" stroke="rgb(60, 60, 60)" stroke-width="1px" opacity="0.25"></line><line x1="0" y1="235.625" x2="868.859375" y2="235.625" fill="rgb(0, 0, 0)" stroke="rgb(60, 60, 60)" stroke-width="1px" opacity="0.25"></line><line x1="0" y1="188.5" x2="868.859375" y2="188.5" fill="rgb(0, 0, 0)" stroke="rgb(60, 60, 60)" stroke-width="1px" opacity="0.25"></line><line x1="0" y1="141.375" x2="868.859375" y2="141.375" fill="rgb(0, 0, 0)" stroke="rgb(60, 60, 60)" stroke-width="1px" opacity="0.25"></line><line x1="0" y1="94.25" x2="868.859375" y2="94.25" fill="rgb(0, 0, 0)" stroke="rgb(60, 60, 60)" stroke-width="1px" opacity="0.25"></line><line x1="0" y1="47.125" x2="868.859375" y2="47.125" fill="rgb(0, 0, 0)" stroke="rgb(60, 60, 60)" stroke-width="1px" opacity="0.25"></line><line x1="0" y1="0" x2="868.859375" y2="0" fill="rgb(0, 0, 0)" stroke="rgb(60, 60, 60)" stroke-width="1px" opacity="0.25"></line></g></g></g><g><g><line x1="0" y1="-94.25" x2="868.859375" y2="-94.25" fill="rgb(0, 0, 0)" stroke="rgb(153, 153, 153)" stroke-width="1.5px"></line></g></g><g><g><line x1="62.06138392857142" y1="0" x2="62.06138392857142" y2="377" fill="rgb(0, 0, 0)" stroke="rgb(153, 153, 153)" stroke-width="1.5px"></line></g></g><g><g><g><g><g><path stroke="rgb(255, 112, 67)" stroke-width="2px" d="M65.164453125,129.11828714609146L68.26752232142857,112.64299029111862L71.37059151785714,127.05745375156403L74.47366071428571,77.14194363355637L77.57672991071429,196.06331765651703L80.67979910714286,133.07946640253067L83.78286830357143,128.9324523806572L86.88593750000001,187.9218448996544L89.98900669642858,190.80655324459076L93.09207589285714,201.9180116057396L96.19514508928572,212.99504446983337L99.29821428571428,129.09062540531158L102.40128348214286,126.21355718374252L105.50435267857142,101.09359556436539L108.607421875,224.0809308886528L111.71049107142856,261.68867415189743L114.81356026785714,191.80680269002914L117.9166294642857,92.25842207670212L121.01969866071428,134.51603430509567L124.12276785714285,88.68173202872276L127.22583705357144,155.0350911617279L130.32890625,182.20739215612411L133.43197544642857,109.44243025779724L136.53504464285714,96.59832674264908L139.63811383928572,111.20875936746597L142.74118303571427,166.46797400712967L145.84425223214285,178.20778757333755L148.94732142857143,166.8885178565979L152.05039062499998,283.20809280872345L155.15345982142858,186.5087816119194L158.25652901785713,198.6061304807663L161.3595982142857,208.30614346265793L164.4626674107143,148.9184758067131L167.56573660714287,217.84598350524902L170.66880580357142,143.13505971431732L173.77187500000002,160.90648102760315L176.87494419642857,141.78338706493378L179.97801339285715,208.34964722394943L183.08108258928573,204.05587542057037L186.18415178571428,205.24355506896973L189.28722098214286,182.274220764637L192.39029017857143,171.28473472595215L195.493359375,205.36242640018463L198.59642857142856,207.2306837439537L201.69949776785714,203.81143641471863L204.80256696428572,220.69183957576752L207.9056361607143,146.90575271844864L211.00870535714284,276.45301032066345L214.11177455357145,258.2794263958931L217.21484375,189.66359078884125L220.31791294642855,224.56985384225845L223.42098214285713,181.29689168930054L226.52405133928573,201.55688095092773L229.62712053571428,181.5537571310997L232.73018973214286,232.99540436267853L235.8332589285714,210.4470857977867L238.93632812500002,238.55669510364532L242.03939732142857,211.0209264755249L245.14246651785714,256.74526715278625L248.2455357142857,225.35285413265228L251.3486049107143,163.27957075834274L254.45167410714288,168.697474360466L257.55474330357146,184.85258263349533L260.6578125,236.21250301599503L263.76088169642856,232.44767493009567L266.86395089285713,150.99744325876236L269.9670200892857,198.05071598291397L273.0700892857143,251.25741147994995L276.17315848214287,253.94376873970032L279.27622767857144,187.37647491693497L282.379296875,211.93639302253723L285.48236607142854,248.4192854166031L288.5854352678571,211.1733918786049L291.6885044642857,255.4079983830452L294.7915736607143,256.3945405483246L297.89464285714286,218.51467406749725L300.99771205357143,235.154166162014L304.10078124999995,247.4699551463127L307.2038504464286,240.28005975484848L310.30691964285717,225.56484508514404L313.4099888392857,226.5539489388466L316.51305803571427,274.1026836633682L319.6161272321429,286.8403422832489L322.7191964285714,292.0524344444275L325.822265625,219.13714188337326L328.9253348214286,244.35112196207047L332.0284040178571,314.7000072002411L335.13147321428573,245.93721157312393L338.2345424107143,209.93944454193115L341.33761160714283,204.97806078195572L344.4406808035714,198.96314895153046L347.54375000000005,269.99611735343933L350.64681919642857,269.00168788433075L353.74988839285714,267.22502213716507L356.8529575892857,208.12237602472305L359.9560267857143,244.15596175193787L363.0590959821429,273.8559301495552L366.16216517857146,240.17352497577667L369.265234375,267.466719686985L372.36830357142856,237.47352784872055L375.47137276785713,205.9721531867981L378.5744419642857,240.1286055445671L381.6775111607143,249.5335749387741L384.78058035714287,247.87047737836838L387.88364955357144,218.6339498758316L390.98671875,193.74254029989243L394.08978794642854,239.95944422483444L397.1928571428571,270.0219589471817L400.2959263392857,235.7107491493225L403.3989955357143,238.00125813484192L406.50206473214286,229.4129055738449L409.60513392857143,254.0624378323555L412.70820312499995,256.0365333557129L415.8112723214286,242.2873673439026L418.91434151785717,249.26401340961456L422.0174107142857,217.41701304912567L425.12047991071427,232.54899644851685L428.2235491071429,242.89446502923965L431.3266183035714,299.4211536645889L434.4296875,210.72554582357407L437.5327566964286,259.704489171505L440.6358258928571,235.08940488100052L443.7388950892857,260.65267342329025L446.84196428571425,245.61592191457748L449.9450334821429,255.02401477098465L453.04810267857147,245.49705058336258L456.15117187500005,226.06203734874725L459.25424107142857,211.23907446861267L462.35731026785714,224.07958263158798L465.4603794642857,222.46798849105835L468.56344866071424,223.44502544403076L471.6665178571428,244.59783053398132L474.7695870535714,226.96256071329117L477.87265625000003,246.62228345870972L480.9757254464286,235.76137620210648L484.07879464285713,257.2620540857315L487.1818638392857,253.62043422460556L490.2849330357143,249.8176976442337L493.38800223214287,266.69153928756714L496.4910714285714,221.59968847036362L499.59414062499997,206.65003436803818L502.6972098214286,248.56581848859787L505.8002790178572,215.8664275407791L508.90334821428576,270.7489166855812L512.0064174107143,244.18647730350494L515.1094866071429,244.4884644150734L518.2125558035714,211.04517263174057L521.315625,206.22092908620834L524.4186941964285,273.3788493871689L527.5217633928571,210.63388681411743L530.6248325892858,247.87771302461624L533.7279017857143,274.2419136762619L536.8309709821428,243.38491600751877L539.9340401785714,256.06570065021515L543.037109375,193.93343102931976L546.1401785714286,187.4192596077919L549.2432477678572,217.4125188589096L552.3463169642857,250.27752071619034L555.4493861607142,228.09024292230606L558.5524553571429,228.1164665222168L561.6555245535715,230.29246354103088L564.75859375,211.23156917095184L567.8616629464286,220.48548883199692L570.9647321428571,222.44884324073792L574.0678013392857,233.80615627765656L577.1708705357142,203.60274869203568L580.2739397321428,228.32627779245377L583.3770089285714,257.4661127924919L586.4800781250001,255.42184048891068L589.5831473214286,199.95753347873688L592.6862165178571,249.84873002767563L595.7892857142857,210.7608027458191L598.8923549107143,254.59463983774185L601.9954241071429,223.40394854545593L605.0984933035714,221.81338721513748L608.2015624999999,197.9138903617859L611.3046316964286,229.2271157503128L614.4077008928572,245.75775855779648L617.5107700892858,231.62175512313843L620.6138392857143,232.16656333208084L623.7169084821429,251.95025831460953L626.8199776785714,239.77680033445358L629.923046875,237.70019233226776L633.0261160714285,244.35651499032974L636.1291852678571,216.1591116786003L639.2322544642858,206.57116132974625L642.3353236607143,223.05874979496002L645.4383928571428,247.55792891979218L648.5414620535714,270.4010663628578L651.64453125,233.41161131858826L654.7476004464286,231.79359048604965L657.8506696428572,191.80826330184937L660.9537388392857,252.58951193094254L664.0568080357142,292.9598114490509L667.1598772321429,214.74519449472427L670.2629464285715,243.42983543872833L673.366015625,226.62945133447647L676.4690848214286,252.6589696407318L679.5721540178571,219.6574792265892L682.6752232142857,257.1965063214302L685.7782924107142,234.29368603229523L688.8813616071428,247.724618434906L691.9844308035714,220.5868103504181L695.0875000000001,231.452661216259L698.1905691964286,214.52412527799606L701.2936383928571,262.6978670358658L704.3967075892857,266.5183556675911L707.4997767857143,254.96015232801437L710.6028459821429,284.16207456588745L713.7059151785714,260.07840579748154L716.8089843749999,226.84184676408768L719.9120535714286,250.1880413889885L723.0151227678572,249.49872249364853L726.1181919642858,248.8487727046013L729.2212611607143,265.97381711006165L732.3243303571429,296.96777522563934L735.4273995535714,272.5067517757416L738.53046875,239.80147343873978L741.6335379464285,296.0488930940628L744.7366071428571,238.92045485973358L747.8396763392858,326.23866081237793L750.9427455357143,236.02271336317062L754.0458147321428,289.75581336021423L757.1488839285714,230.10501086711884L760.251953125,312.4724168777466L763.3550223214286,238.9767445921898L766.4580915178572,237.32061302661896L769.5611607142857,279.46330881118774L772.6642299107142,252.74734789133072L775.7672991071429,269.67907470464706L778.8703683035715,273.59755915403366L781.9734375,240.6268539428711L785.0765066964286,284.1554231643677L788.1795758928571,309.77050971984863L791.2826450892857,293.23314809799194L794.3857142857142,265.7580285668373L797.4887834821428,260.8095206618309L800.5918526785714,290.67860543727875L803.6949218750001,199.19911640882492L806.7979910714286,267.47020268440247L809.9010602678571,215.94507586956024L813.0041294642857,243.14288139343262L816.1071986607143,256.28128695487976L819.2102678571429,242.5303457379341L822.3133370535714,245.2056023478508L825.4164062499999,261.3776537179947L828.5194754464286,235.48246675729752L831.6225446428572,216.8719351887703L834.7256138392858,251.71860527992249L837.8286830357143,295.34096825122833" style="fill: none;" fill="none"></path></g></g></g></g></g></g><g transform="translate(42, 377)" clip-path="url(#clip_1)"><clipPath id="clip_1"><rect width="868" height="22"></rect></clipPath><g><g><line x1="0" y1="0" x2="0" y2="5" style="visibility: inherit;" fill="rgb(0, 0, 0)" stroke="rgb(204, 204, 204)" stroke-width="1px"></line><line x1="62.06138392857142" y1="0" x2="62.06138392857142" y2="5" style="visibility: inherit;" fill="rgb(0, 0, 0)" stroke="rgb(204, 204, 204)" stroke-width="1px"></line><line x1="124.12276785714285" y1="0" x2="124.12276785714285" y2="5" style="visibility: inherit;" fill="rgb(0, 0, 0)" stroke="rgb(204, 204, 204)" stroke-width="1px"></line><line x1="186.18415178571428" y1="0" x2="186.18415178571428" y2="5" style="visibility: inherit;" fill="rgb(0, 0, 0)" stroke="rgb(204, 204, 204)" stroke-width="1px"></line><line x1="248.2455357142857" y1="0" x2="248.2455357142857" y2="5" style="visibility: inherit;" fill="rgb(0, 0, 0)" stroke="rgb(204, 204, 204)" stroke-width="1px"></line><line x1="310.30691964285717" y1="0" x2="310.30691964285717" y2="5" style="visibility: inherit;" fill="rgb(0, 0, 0)" stroke="rgb(204, 204, 204)" stroke-width="1px"></line><line x1="372.36830357142856" y1="0" x2="372.36830357142856" y2="5" style="visibility: inherit;" fill="rgb(0, 0, 0)" stroke="rgb(204, 204, 204)" stroke-width="1px"></line><line x1="434.4296875" y1="0" x2="434.4296875" y2="5" style="visibility: inherit;" fill="rgb(0, 0, 0)" stroke="rgb(204, 204, 204)" stroke-width="1px"></line><line x1="496.4910714285714" y1="0" x2="496.4910714285714" y2="5" style="visibility: inherit;" fill="rgb(0, 0, 0)" stroke="rgb(204, 204, 204)" stroke-width="1px"></line><line x1="558.5524553571429" y1="0" x2="558.5524553571429" y2="5" style="visibility: inherit;" fill="rgb(0, 0, 0)" stroke="rgb(204, 204, 204)" stroke-width="1px"></line><line x1="620.6138392857143" y1="0" x2="620.6138392857143" y2="5" style="visibility: inherit;" fill="rgb(0, 0, 0)" stroke="rgb(204, 204, 204)" stroke-width="1px"></line><line x1="682.6752232142857" y1="0" x2="682.6752232142857" y2="5" style="visibility: inherit;" fill="rgb(0, 0, 0)" stroke="rgb(204, 204, 204)" stroke-width="1px"></line><line x1="744.7366071428571" y1="0" x2="744.7366071428571" y2="5" style="visibility: inherit;" fill="rgb(0, 0, 0)" stroke="rgb(204, 204, 204)" stroke-width="1px"></line><line x1="806.7979910714286" y1="0" x2="806.7979910714286" y2="5" style="visibility: inherit;" fill="rgb(0, 0, 0)" stroke="rgb(204, 204, 204)" stroke-width="1px"></line><line x1="868.859375" y1="0" x2="868.859375" y2="5" style="visibility: inherit;" fill="rgb(0, 0, 0)" stroke="rgb(204, 204, 204)" stroke-width="1px"></line></g><g transform="translate(0, 8)"><text x="0" y="0" dx="0em" dy="0.95em" style="text-anchor: middle; visibility: hidden; font-family: &quot;Helvetica Neue&quot;, sans-serif; font-size: 12px; font-weight: 200;" fill="rgb(50, 49, 63)" stroke="none" stroke-width="1px">-100k</text><text x="62.06138392857142" y="0" dx="0em" dy="0.95em" style="text-anchor: middle; visibility: inherit; font-family: &quot;Helvetica Neue&quot;, sans-serif; font-size: 12px; font-weight: 200;" fill="rgb(50, 49, 63)" stroke="none" stroke-width="1px">0</text><text x="124.12276785714285" y="0" dx="0em" dy="0.95em" style="text-anchor: middle; visibility: inherit; font-family: &quot;Helvetica Neue&quot;, sans-serif; font-size: 12px; font-weight: 200;" fill="rgb(50, 49, 63)" stroke="none" stroke-width="1px">100k</text><text x="186.18415178571428" y="0" dx="0em" dy="0.95em" style="text-anchor: middle; visibility: inherit; font-family: &quot;Helvetica Neue&quot;, sans-serif; font-size: 12px; font-weight: 200;" fill="rgb(50, 49, 63)" stroke="none" stroke-width="1px">200k</text><text x="248.2455357142857" y="0" dx="0em" dy="0.95em" style="text-anchor: middle; visibility: inherit; font-family: &quot;Helvetica Neue&quot;, sans-serif; font-size: 12px; font-weight: 200;" fill="rgb(50, 49, 63)" stroke="none" stroke-width="1px">300k</text><text x="310.30691964285717" y="0" dx="0em" dy="0.95em" style="text-anchor: middle; visibility: inherit; font-family: &quot;Helvetica Neue&quot;, sans-serif; font-size: 12px; font-weight: 200;" fill="rgb(50, 49, 63)" stroke="none" stroke-width="1px">400k</text><text x="372.36830357142856" y="0" dx="0em" dy="0.95em" style="text-anchor: middle; visibility: inherit; font-family: &quot;Helvetica Neue&quot;, sans-serif; font-size: 12px; font-weight: 200;" fill="rgb(50, 49, 63)" stroke="none" stroke-width="1px">500k</text><text x="434.4296875" y="0" dx="0em" dy="0.95em" style="text-anchor: middle; visibility: inherit; font-family: &quot;Helvetica Neue&quot;, sans-serif; font-size: 12px; font-weight: 200;" fill="rgb(50, 49, 63)" stroke="none" stroke-width="1px">600k</text><text x="496.4910714285714" y="0" dx="0em" dy="0.95em" style="text-anchor: middle; visibility: inherit; font-family: &quot;Helvetica Neue&quot;, sans-serif; font-size: 12px; font-weight: 200;" fill="rgb(50, 49, 63)" stroke="none" stroke-width="1px">700k</text><text x="558.5524553571429" y="0" dx="0em" dy="0.95em" style="text-anchor: middle; visibility: inherit; font-family: &quot;Helvetica Neue&quot;, sans-serif; font-size: 12px; font-weight: 200;" fill="rgb(50, 49, 63)" stroke="none" stroke-width="1px">800k</text><text x="620.6138392857143" y="0" dx="0em" dy="0.95em" style="text-anchor: middle; visibility: inherit; font-family: &quot;Helvetica Neue&quot;, sans-serif; font-size: 12px; font-weight: 200;" fill="rgb(50, 49, 63)" stroke="none" stroke-width="1px">900k</text><text x="682.6752232142857" y="0" dx="0em" dy="0.95em" style="text-anchor: middle; visibility: inherit; font-family: &quot;Helvetica Neue&quot;, sans-serif; font-size: 12px; font-weight: 200;" fill="rgb(50, 49, 63)" stroke="none" stroke-width="1px">1M</text><text x="744.7366071428571" y="0" dx="0em" dy="0.95em" style="text-anchor: middle; visibility: inherit; font-family: &quot;Helvetica Neue&quot;, sans-serif; font-size: 12px; font-weight: 200;" fill="rgb(50, 49, 63)" stroke="none" stroke-width="1px">1.1M</text><text x="806.7979910714286" y="0" dx="0em" dy="0.95em" style="text-anchor: middle; visibility: inherit; font-family: &quot;Helvetica Neue&quot;, sans-serif; font-size: 12px; font-weight: 200;" fill="rgb(50, 49, 63)" stroke="none" stroke-width="1px">1.2M</text><text x="868.859375" y="0" dx="0em" dy="0.95em" style="text-anchor: middle; visibility: hidden; font-family: &quot;Helvetica Neue&quot;, sans-serif; font-size: 12px; font-weight: 200;" fill="rgb(50, 49, 63)" stroke="none" stroke-width="1px">1.3M</text></g><line x1="0" y1="0" x2="868.859375" y2="0" fill="rgb(0, 0, 0)" stroke="rgb(204, 204, 204)" stroke-width="1px"></line></g></g></g></g></svg>