<svg viewBox="0 0 911.25 400" xmlns="http://www.w3.org/2000/svg"><g><g><g><g><g><line x1="74.78125" y1="377" x2="69.78125" y2="377" style="visibility: inherit;" fill="rgb(0, 0, 0)" stroke="rgb(204, 204, 204)" stroke-width="1px"></line><line x1="74.78125" y1="345.5833333333333" x2="69.78125" y2="345.5833333333333" style="visibility: inherit;" fill="rgb(0, 0, 0)" stroke="rgb(204, 204, 204)" stroke-width="1px"></line><line x1="74.78125" y1="314.1666666666667" x2="69.78125" y2="314.1666666666667" style="visibility: inherit;" fill="rgb(0, 0, 0)" stroke="rgb(204, 204, 204)" stroke-width="1px"></line><line x1="74.78125" y1="282.75" x2="69.78125" y2="282.75" style="visibility: inherit;" fill="rgb(0, 0, 0)" stroke="rgb(204, 204, 204)" stroke-width="1px"></line><line x1="74.78125" y1="251.33333333333334" x2="69.78125" y2="251.33333333333334" style="visibility: inherit;" fill="rgb(0, 0, 0)" stroke="rgb(204, 204, 204)" stroke-width="1px"></line><line x1="74.78125" y1="219.91666666666666" x2="69.78125" y2="219.91666666666666" style="visibility: inherit;" fill="rgb(0, 0, 0)" stroke="rgb(204, 204, 204)" stroke-width="1px"></line><line x1="74.78125" y1="188.5" x2="69.78125" y2="188.5" style="visibility: inherit;" fill="rgb(0, 0, 0)" stroke="rgb(204, 204, 204)" stroke-width="1px"></line><line x1="74.78125" y1="157.08333333333331" x2="69.78125" y2="157.08333333333331" style="visibility: inherit;" fill="rgb(0, 0, 0)" stroke="rgb(204, 204, 204)" stroke-width="1px"></line><line x1="74.78125" y1="125.66666666666669" x2="69.78125" y2="125.66666666666669" style="visibility: inherit;" fill="rgb(0, 0, 0)" stroke="rgb(204, 204, 204)" stroke-width="1px"></line><line x1="74.78125" y1="94.25" x2="69.78125" y2="94.25" style="visibility: inherit;" fill="rgb(0, 0, 0)" stroke="rgb(204, 204, 204)" stroke-width="1px"></line><line x1="74.78125" y1="62.833333333333314" x2="69.78125" y2="62.833333333333314" style="visibility: inherit;" fill="rgb(0, 0, 0)" stroke="rgb(204, 204, 204)" stroke-width="1px"></line><line x1="74.78125" y1="31.416666666666686" x2="69.78125" y2="31.416666666666686" style="visibility: inherit;" fill="rgb(0, 0, 0)" stroke="rgb(204, 204, 204)" stroke-width="1px"></line><line x1="74.78125" y1="0" x2="69.78125" y2="0" style="visibility: inherit;" fill="rgb(0, 0, 0)" stroke="rgb(204, 204, 204)" stroke-width="1px"></line></g><g transform="translate(64.78125, 0)"><text x="0" y="377" dx="0em" dy="0.3em" style="text-anchor: end; visibility: hidden; font-family: &quot;Helvetica Neue&quot;, sans-serif; font-size: 12px; font-weight: 200;" fill="rgb(50, 49, 63)" stroke="none" stroke-width="1px">-1e+3</text><text x="0" y="345.5833333333333" dx="0em" dy="0.3em" style="text-anchor: end; visibility: inherit; font-family: &quot;Helvetica Neue&quot;, sans-serif; font-size: 12px; font-weight: 200;" fill="rgb(50, 49, 63)" stroke="none" stroke-width="1px">-500</text><text x="0" y="314.1666666666667" dx="0em" dy="0.3em" style="text-anchor: end; visibility: inherit; font-family: &quot;Helvetica Neue&quot;, sans-serif; font-size: 12px; font-weight: 200;" fill="rgb(50, 49, 63)" stroke="none" stroke-width="1px">0</text><text x="0" y="282.75" dx="0em" dy="0.3em" style="text-anchor: end; visibility: inherit; font-family: &quot;Helvetica Neue&quot;, sans-serif; font-size: 12px; font-weight: 200;" fill="rgb(50, 49, 63)" stroke="none" stroke-width="1px">500</text><text x="0" y="251.33333333333334" dx="0em" dy="0.3em" style="text-anchor: end; visibility: inherit; font-family: &quot;Helvetica Neue&quot;, sans-serif; font-size: 12px; font-weight: 200;" fill="rgb(50, 49, 63)" stroke="none" stroke-width="1px">1e+3</text><text x="0" y="219.91666666666666" dx="0em" dy="0.3em" style="text-anchor: end; visibility: inherit; font-family: &quot;Helvetica Neue&quot;, sans-serif; font-size: 12px; font-weight: 200;" fill="rgb(50, 49, 63)" stroke="none" stroke-width="1px">1.5e+3</text><text x="0" y="188.5" dx="0em" dy="0.3em" style="text-anchor: end; visibility: inherit; font-family: &quot;Helvetica Neue&quot;, sans-serif; font-size: 12px; font-weight: 200;" fill="rgb(50, 49, 63)" stroke="none" stroke-width="1px">2e+3</text><text x="0" y="157.08333333333331" dx="0em" dy="0.3em" style="text-anchor: end; visibility: inherit; font-family: &quot;Helvetica Neue&quot;, sans-serif; font-size: 12px; font-weight: 200;" fill="rgb(50, 49, 63)" stroke="none" stroke-width="1px">2.5e+3</text><text x="0" y="125.66666666666669" dx="0em" dy="0.3em" style="text-anchor: end; visibility: inherit; font-family: &quot;Helvetica Neue&quot;, sans-serif; font-size: 12px; font-weight: 200;" fill="rgb(50, 49, 63)" stroke="none" stroke-width="1px">3e+3</text><text x="0" y="94.25" dx="0em" dy="0.3em" style="text-anchor: end; visibility: inherit; font-family: &quot;Helvetica Neue&quot;, sans-serif; font-size: 12px; font-weight: 200;" fill="rgb(50, 49, 63)" stroke="none" stroke-width="1px">3.5e+3</text><text x="0" y="62.833333333333314" dx="0em" dy="0.3em" style="text-anchor: end; visibility: inherit; font-family: &quot;Helvetica Neue&quot;, sans-serif; font-size: 12px; font-weight: 200;" fill="rgb(50, 49, 63)" stroke="none" stroke-width="1px">4e+3</text><text x="0" y="31.416666666666686" dx="0em" dy="0.3em" style="text-anchor: end; visibility: inherit; font-family: &quot;Helvetica Neue&quot;, sans-serif; font-size: 12px; font-weight: 200;" fill="rgb(50, 49, 63)" stroke="none" stroke-width="1px">4.5e+3</text><text x="0" y="0" dx="0em" dy="0.3em" style="text-anchor: end; visibility: hidden; font-family: &quot;Helvetica Neue&quot;, sans-serif; font-size: 12px; font-weight: 200;" fill="rgb(50, 49, 63)" stroke="none" stroke-width="1px">5e+3</text></g><line x1="74.78125" y1="0" x2="74.78125" y2="377" fill="rgb(0, 0, 0)" stroke="rgb(204, 204, 204)" stroke-width="1px"></line></g></g><g transform="translate(74, 0)" clip-path="url(#clip_0)"><clipPath id="clip_0"><rect width="836" height="376"></rect></clipPath><g><g><g><line x1="0" y1="0" x2="0" y2="377" fill="rgb(0, 0, 0)" stroke="rgb(60, 60, 60)" stroke-width="1px" opacity="0.25"></line><line x1="104.55859375" y1="0" x2="104.55859375" y2="377" fill="rgb(0, 0, 0)" stroke="rgb(60, 60, 60)" stroke-width="1px" opacity="0.25"></line><line x1="209.1171875" y1="0" x2="209.1171875" y2="377" fill="rgb(0, 0, 0)" stroke="rgb(60, 60, 60)" stroke-width="1px" opacity="0.25"></line><line x1="313.67578125" y1="0" x2="313.67578125" y2="377" fill="rgb(0, 0, 0)" stroke="rgb(60, 60, 60)" stroke-width="1px" opacity="0.25"></line><line x1="418.234375" y1="0" x2="418.234375" y2="377" fill="rgb(0, 0, 0)" stroke="rgb(60, 60, 60)" stroke-width="1px" opacity="0.25"></line><line x1="522.79296875" y1="0" x2="522.79296875" y2="377" fill="rgb(0, 0, 0)" stroke="rgb(60, 60, 60)" stroke-width="1px" opacity="0.25"></line><line x1="627.3515625" y1="0" x2="627.3515625" y2="377" fill="rgb(0, 0, 0)" stroke="rgb(60, 60, 60)" stroke-width="1px" opacity="0.25"></line><line x1="731.91015625" y1="0" x2="731.91015625" y2="377" fill="rgb(0, 0, 0)" stroke="rgb(60, 60, 60)" stroke-width="1px" opacity="0.25"></line><line x1="836.46875" y1="0" x2="836.46875" y2="377" fill="rgb(0, 0, 0)" stroke="rgb(60, 60, 60)" stroke-width="1px" opacity="0.25"></line></g><g><line x1="0" y1="377" x2="836.46875" y2="377" fill="rgb(0, 0, 0)" stroke="rgb(60, 60, 60)" stroke-width="1px" opacity="0.25"></line><line x1="0" y1="345.5833333333333" x2="836.46875" y2="345.5833333333333" fill="rgb(0, 0, 0)" stroke="rgb(60, 60, 60)" stroke-width="1px" opacity="0.25"></line><line x1="0" y1="314.1666666666667" x2="836.46875" y2="314.1666666666667" fill="rgb(0, 0, 0)" stroke="rgb(60, 60, 60)" stroke-width="1px" opacity="0.25"></line><line x1="0" y1="282.75" x2="836.46875" y2="282.75" fill="rgb(0, 0, 0)" stroke="rgb(60, 60, 60)" stroke-width="1px" opacity="0.25"></line><line x1="0" y1="251.33333333333334" x2="836.46875" y2="251.33333333333334" fill="rgb(0, 0, 0)" stroke="rgb(60, 60, 60)" stroke-width="1px" opacity="0.25"></line><line x1="0" y1="219.91666666666666" x2="836.46875" y2="219.91666666666666" fill="rgb(0, 0, 0)" stroke="rgb(60, 60, 60)" stroke-width="1px" opacity="0.25"></line><line x1="0" y1="188.5" x2="836.46875" y2="188.5" fill="rgb(0, 0, 0)" stroke="rgb(60, 60, 60)" stroke-width="1px" opacity="0.25"></line><line x1="0" y1="157.08333333333331" x2="836.46875" y2="157.08333333333331" fill="rgb(0, 0, 0)" stroke="rgb(60, 60, 60)" stroke-width="1px" opacity="0.25"></line><line x1="0" y1="125.66666666666669" x2="836.46875" y2="125.66666666666669" fill="rgb(0, 0, 0)" stroke="rgb(60, 60, 60)" stroke-width="1px" opacity="0.25"></line><line x1="0" y1="94.25" x2="836.46875" y2="94.25" fill="rgb(0, 0, 0)" stroke="rgb(60, 60, 60)" stroke-width="1px" opacity="0.25"></line><line x1="0" y1="62.833333333333314" x2="836.46875" y2="62.833333333333314" fill="rgb(0, 0, 0)" stroke="rgb(60, 60, 60)" stroke-width="1px" opacity="0.25"></line><line x1="0" y1="31.416666666666686" x2="836.46875" y2="31.416666666666686" fill="rgb(0, 0, 0)" stroke="rgb(60, 60, 60)" stroke-width="1px" opacity="0.25"></line><line x1="0" y1="0" x2="836.46875" y2="0" fill="rgb(0, 0, 0)" stroke="rgb(60, 60, 60)" stroke-width="1px" opacity="0.25"></line></g></g></g><g><g><line x1="0" y1="314.1666666666667" x2="836.46875" y2="314.1666666666667" fill="rgb(0, 0, 0)" stroke="rgb(153, 153, 153)" stroke-width="1.5px"></line></g></g><g><g><line x1="104.55859375" y1="0" x2="104.55859375" y2="377" fill="rgb(0, 0, 0)" stroke="rgb(153, 153, 153)" stroke-width="1.5px"></line></g></g><g><g><g><g><g><path stroke="rgb(238, 51, 119)" stroke-width="2px" d="M107.1777865234375,314.71856706730523L109.828346875,302.4521607844035L112.45485875,297.43340485127766L115.13835505859376,301.5328311513265L117.810349921875,301.31748777262374L120.45620513671875,297.16567095947266L123.11460738281251,292.5110340779622L125.7683044921875,298.12254853312174L128.42513835937498,303.5439637756348L131.06994798828126,299.30315768178303L133.78638025390626,292.00720731099443L136.41812005859376,269.62340564982094L139.08436419921875,260.02929562377926L141.745903203125,282.7175727996826L144.481156015625,294.3805270843506L147.31939904296874,302.93869822184246L149.95427560546875,295.8921301066081L152.63149839843751,292.54772009277343L155.29460578125,294.707895884196L157.9535308203125,295.09562249755857L160.56801845703123,291.6691713409424L163.18250609375002,294.83046383666994L165.8644340234375,291.5695676218669L168.49774220703125,292.1831207021078L171.174965,277.47492613728843L173.8129783203125,288.8592319997152L176.4624930859375,293.4156841278076L179.1705606640625,288.103588684082L182.0061897265625,294.4882150726318L184.66616035156252,299.2981596628825L187.329267734375,274.994919321696L190.03472134765624,274.4098069152832L192.80447849609374,287.7053252919515L195.522479140625,263.0855175476074L198.14376308593748,273.5997385965983L200.8079160546875,270.17200845336913L203.49664029296875,277.63800747680665L206.20993580078124,268.5718945719401L208.92689085937502,270.9269096883138L211.5523571484375,273.41696814982095L214.200826328125,272.4668057352702L216.85295505859375,268.3423711242676L219.48887720703124,279.8048792521159L222.20217271484373,274.8778776652018L224.92801525390627,267.0530874226888L227.60157849609377,267.21145549519855L230.22495361328123,263.11076746622723L232.925179296875,263.890343363444L235.68500337890626,253.86028106689452L238.31412921875003,262.21826107788087L240.95057416015624,271.059233988444L243.64295794921873,262.44177117919924L246.28201685546875,260.2876010640462L248.9006868359375,280.3150626017253L251.56954494140626,257.2475591837565L254.22428763671874,247.9757998046875L256.894191328125,302.42293776194253L259.6304897265625,263.6608659362793L262.4953951953125,243.97734633382163L265.21862376953123,255.7793860982259L267.87127529296873,257.87695482381184L270.8726297265625,234.7442825317383L273.54567017578125,247.02694897460935L276.29451560546875,219.92547959391277L279.24306794921876,247.88918153889975L281.99452734375,232.9996450805664L284.6848199609375,197.97984877522788L287.429483046875,154.63047094726562L290.17571451171875,157.34347192382813L292.98572671875,156.30896158854168L296.06340892578123,233.6606759847005L298.9758885546875,169.6071855875651L301.846021953125,168.51702111816405L304.56820494140624,183.87651900227863L307.4393839257812,135.18996647135415L310.3288606640625,137.25142443847656L313.0201988671875,159.77169799804688L315.93476966796874,155.49252709960936L318.976901953125,176.13441227213542L322.01537468749996,128.50501216634115L324.78879138671874,202.50921783447265L327.5182934765625,236.82351208496095L330.48723474609375,191.21648319498698L333.29097343750004,149.160028523763L336.32787779296876,170.70729048665365L339.00666896484375,160.52509973144532L341.8339333398438,170.22748067220053L344.93148167968747,172.10126700846354L347.57838248046875,208.72386555989584L350.3240911523438,214.1733763224284L353.0682314453125,175.9047852783203L355.75695568359373,131.60688643391927L358.63649935546874,168.01944738769532L361.2703303320312,127.89295475260414L364.1603298632813,105.88404573567709L366.9201539453125,123.2243122965495L369.5628724023437,100.53939270019532L372.278781875,209.45666544596352L375.00148765625,139.5939143066406L377.822478515625,192.8428862915039L380.4667653515625,197.3214947306315L383.09170884765626,93.97616263834635L386.12443085937497,90.73888069661456L388.73839570312504,120.34310636393229L391.3931383984375,166.84376147460935L394.0071032421875,169.99283744303386L396.6210680859375,137.97535770670572L399.24601158203126,177.62119681803384L401.85997642578127,129.60392053222654L404.52883453125,159.0126817626953L407.4533383984375,114.45921569824219L410.1091266796875,100.44120027669271L412.96043953125,119.56888802083336L415.7024886523438,103.98838431803381L418.43094515625,129.8764386393229L421.3324461328125,131.68036584472657L424.2287191796875,101.81873213704426L426.84268402343747,117.8397288004557L429.7117718359375,146.2976603190104L432.32573667968745,150.73975915527345L434.9397015234375,111.57823986816408L437.8009474414062,118.47215795898438L440.53358628906244,90.5409004720052L443.43770123046875,91.4523826497396L446.05166607421876,95.40960941569011L448.66563091796877,109.67748551432288L451.4285917578125,88.13539318847654L454.17586880859375,98.59378369140626L456.7898336523437,93.26977852376302L459.40379849609377,103.04450370279949L462.24256431640623,96.78681913248698L464.85652916015624,85.7294717203776L467.4704940039062,101.46939046223957L470.08445884765626,107.3690968424479L472.6984236914063,126.57793408203125L475.31238853515623,81.89079378255207L477.92635337890624,90.08617183430988L480.5403182226562,114.66270304361979L483.15428306640626,90.9012870686849L485.7682479101563,130.35988407389323L488.38221275390623,93.70909029134117L491.41441197265624,96.77051253255212L494.26938437499996,93.06415889485675L496.88334921875,101.37863802083331L499.9312322265625,99.56153361002606L502.8400523046875,119.38621728515625L505.4540171484375,90.83526298014323L508.06798199218747,93.98154703776044L510.9266139453125,77.05649283854166L513.7679937304688,85.52736499023439L516.3819585742187,80.86769653320312L519.4387290625,92.54458736165367L522.2571059570313,94.69360701497396L524.8710708007812,105.84710660807292L527.4850356445313,122.21551208496095L530.0990004882813,94.86587711588538L532.7129653320312,141.755681640625L535.3269301757813,81.10839912923177L538.4459130273437,92.03589200846352L541.0598778710938,87.41715112304689L543.6738427148438,118.90714379882814L546.5230643945313,85.15105529785154L549.1370292382812,106.11669474283855L551.7509940820313,95.15442569986982L554.3649589257813,109.88752311197919L557.3516751562499,95.05789001464848L559.96564,94.62719942220053L562.57960484375,140.08731551106771L565.1935696875,85.60579927571615L568.3099385742187,122.02915970865885L570.9239034179687,89.40560522460942L573.9749231835938,84.37188208007814L576.5888880273437,80.59708060709636L579.2478130664063,88.40999755859377L582.1728397265625,117.56780895996093L584.7868045703125,81.84391422526039L587.4007694140626,96.05392720540368L590.0147342578125,84.91616662597653L592.6893430859375,98.77556469726562L595.714223203125,89.95111698404946L598.4965273828125,93.53626794433592L601.1104922265625,105.54851021321616L604.1442598242187,92.34752754720051L606.7582246679688,90.54422928873697L609.3721895117188,84.73825134277342L611.9861543554688,96.04183915201821L614.6001191992187,93.82544547526038L617.2140840429687,82.3649123942057L619.8280488867188,81.86839713541667L622.6202861328125,109.26400659179689L625.2342509765625,99.82702591959634L627.8482158203125,87.78180228678383L630.4621806640625,83.72530928548179L633.0761455078125,82.93443151855467L635.6901103515625,97.24585835774741L638.3040751953125,80.3679905192057L640.9180400390625,94.13694295247393L643.5320048828125,87.5181201171875L646.556885,105.81710123697917L649.17084984375,99.66035498046875L651.7848146875,77.21682828776039L654.39877953125,89.09743656412763L657.012744375,80.67052933756514L659.62670921875,87.2107184651693L662.2406740625,81.81005847167967L665.0438899609376,85.77589107259115L667.6578548046875,77.4277862955729L670.2718196484375,77.27278922526045L672.8857844921874,81.36172668457027L675.4997493359375,87.07610847981772L678.1137141796876,149.23583964029947L681.0078960546874,93.37113102213544L683.6349307226562,87.67979016113281L686.2488955664063,82.79887044270833L688.8628604101563,83.83555908203124L691.4768252539062,92.46664396158855L694.0907900976563,76.15329435221355L696.7047549414062,84.22434033203126L699.3187197851563,87.25627876790361L701.9326846289063,103.06831164550783L704.5466494726562,93.14833040364584L707.1606143164063,83.0433467203776L709.9199156054688,83.35384708658853L712.5338804492187,85.04803072102868L715.1478452929688,81.74475537109373L717.7618101367187,79.94859029134113L720.3757749804688,78.83158052571616L722.9897398242188,78.18246126302085L725.6037046679687,77.91324129231771L728.2176695117188,81.55953816731767L731.3000568554687,79.25765372721355L733.9140216992188,83.31899422200524L736.5279865429687,78.8180811767578L739.1419513867187,81.65230017089846L741.7559162304688,90.4044650065104L744.3698810742187,94.821559366862L746.9838459179688,74.64601534016924L749.6051298632811,78.01060534667971L752.2190947070312,73.83801794433595L754.8330595507813,78.84532531738284L757.8851249023438,80.80173380533853L760.4990897460937,75.07593892415366L763.5485411328125,83.74561966959635L766.1625059765624,86.32169429524737L768.7764708203125,98.1493329671224L771.531589765625,80.34777217610679L774.145554609375,76.27951326497396L777.1333164257813,73.18231774902347L779.7472812695312,69.09951635742186L782.3612461132813,69.27152567545573" style="fill: none;" fill="none"></path></g></g></g></g></g></g><g transform="translate(74, 377)" clip-path="url(#clip_1)"><clipPath id="clip_1"><rect width="836" height="22"></rect></clipPath><g><g><line x1="0" y1="0" x2="0" y2="5" style="visibility: inherit;" fill="rgb(0, 0, 0)" stroke="rgb(204, 204, 204)" stroke-width="1px"></line><line x1="104.55859375" y1="0" x2="104.55859375" y2="5" style="visibility: inherit;" fill="rgb(0, 0, 0)" stroke="rgb(204, 204, 204)" stroke-width="1px"></line><line x1="209.1171875" y1="0" x2="209.1171875" y2="5" style="visibility: inherit;" fill="rgb(0, 0, 0)" stroke="rgb(204, 204, 204)" stroke-width="1px"></line><line x1="313.67578125" y1="0" x2="313.67578125" y2="5" style="visibility: inherit;" fill="rgb(0, 0, 0)" stroke="rgb(204, 204, 204)" stroke-width="1px"></line><line x1="418.234375" y1="0" x2="418.234375" y2="5" style="visibility: inherit;" fill="rgb(0, 0, 0)" stroke="rgb(204, 204, 204)" stroke-width="1px"></line><line x1="522.79296875" y1="0" x2="522.79296875" y2="5" style="visibility: inherit;" fill="rgb(0, 0, 0)" stroke="rgb(204, 204, 204)" stroke-width="1px"></line><line x1="627.3515625" y1="0" x2="627.3515625" y2="5" style="visibility: inherit;" fill="rgb(0, 0, 0)" stroke="rgb(204, 204, 204)" stroke-width="1px"></line><line x1="731.91015625" y1="0" x2="731.91015625" y2="5" style="visibility: inherit;" fill="rgb(0, 0, 0)" stroke="rgb(204, 204, 204)" stroke-width="1px"></line><line x1="836.46875" y1="0" x2="836.46875" y2="5" style="visibility: inherit;" fill="rgb(0, 0, 0)" stroke="rgb(204, 204, 204)" stroke-width="1px"></line></g><g transform="translate(0, 8)"><text x="0" y="0" dx="0em" dy="0.95em" style="text-anchor: middle; visibility: hidden; font-family: &quot;Helvetica Neue&quot;, sans-serif; font-size: 12px; font-weight: 200;" fill="rgb(50, 49, 63)" stroke="none" stroke-width="1px">-200k</text><text x="104.55859375" y="0" dx="0em" dy="0.95em" style="text-anchor: middle; visibility: inherit; font-family: &quot;Helvetica Neue&quot;, sans-serif; font-size: 12px; font-weight: 200;" fill="rgb(50, 49, 63)" stroke="none" stroke-width="1px">0</text><text x="209.1171875" y="0" dx="0em" dy="0.95em" style="text-anchor: middle; visibility: inherit; font-family: &quot;Helvetica Neue&quot;, sans-serif; font-size: 12px; font-weight: 200;" fill="rgb(50, 49, 63)" stroke="none" stroke-width="1px">200k</text><text x="313.67578125" y="0" dx="0em" dy="0.95em" style="text-anchor: middle; visibility: inherit; font-family: &quot;Helvetica Neue&quot;, sans-serif; font-size: 12px; font-weight: 200;" fill="rgb(50, 49, 63)" stroke="none" stroke-width="1px">400k</text><text x="418.234375" y="0" dx="0em" dy="0.95em" style="text-anchor: middle; visibility: inherit; font-family: &quot;Helvetica Neue&quot;, sans-serif; font-size: 12px; font-weight: 200;" fill="rgb(50, 49, 63)" stroke="none" stroke-width="1px">600k</text><text x="522.79296875" y="0" dx="0em" dy="0.95em" style="text-anchor: middle; visibility: inherit; font-family: &quot;Helvetica Neue&quot;, sans-serif; font-size: 12px; font-weight: 200;" fill="rgb(50, 49, 63)" stroke="none" stroke-width="1px">800k</text><text x="627.3515625" y="0" dx="0em" dy="0.95em" style="text-anchor: middle; visibility: inherit; font-family: &quot;Helvetica Neue&quot;, sans-serif; font-size: 12px; font-weight: 200;" fill="rgb(50, 49, 63)" stroke="none" stroke-width="1px">1M</text><text x="731.91015625" y="0" dx="0em" dy="0.95em" style="text-anchor: middle; visibility: inherit; font-family: &quot;Helvetica Neue&quot;, sans-serif; font-size: 12px; font-weight: 200;" fill="rgb(50, 49, 63)" stroke="none" stroke-width="1px">1.2M</text><text x="836.46875" y="0" dx="0em" dy="0.95em" style="text-anchor: middle; visibility: hidden; font-family: &quot;Helvetica Neue&quot;, sans-serif; font-size: 12px; font-weight: 200;" fill="rgb(50, 49, 63)" stroke="none" stroke-width="1px">1.4M</text></g><line x1="0" y1="0" x2="836.46875" y2="0" fill="rgb(0, 0, 0)" stroke="rgb(204, 204, 204)" stroke-width="1px"></line></g></g></g></g></svg>