<svg viewBox="0 0 1059.4000244140625 400" xmlns="http://www.w3.org/2000/svg"><g><g><g><g><g><line x1="51.5625" y1="345.5269407389969" x2="46.5625" y2="345.5269407389969" style="visibility: inherit;" fill="rgb(0, 0, 0)" stroke="rgb(204, 204, 204)" stroke-width="1px"></line><line x1="51.5625" y1="309.617239524623" x2="46.5625" y2="309.617239524623" style="visibility: inherit;" fill="rgb(0, 0, 0)" stroke="rgb(204, 204, 204)" stroke-width="1px"></line><line x1="51.5625" y1="273.70753831024905" x2="46.5625" y2="273.70753831024905" style="visibility: inherit;" fill="rgb(0, 0, 0)" stroke="rgb(204, 204, 204)" stroke-width="1px"></line><line x1="51.5625" y1="237.7978370958751" x2="46.5625" y2="237.7978370958751" style="visibility: inherit;" fill="rgb(0, 0, 0)" stroke="rgb(204, 204, 204)" stroke-width="1px"></line><line x1="51.5625" y1="201.88813588150123" x2="46.5625" y2="201.88813588150123" style="visibility: inherit;" fill="rgb(0, 0, 0)" stroke="rgb(204, 204, 204)" stroke-width="1px"></line><line x1="51.5625" y1="165.9784346671273" x2="46.5625" y2="165.9784346671273" style="visibility: inherit;" fill="rgb(0, 0, 0)" stroke="rgb(204, 204, 204)" stroke-width="1px"></line><line x1="51.5625" y1="130.06873345275332" x2="46.5625" y2="130.06873345275332" style="visibility: inherit;" fill="rgb(0, 0, 0)" stroke="rgb(204, 204, 204)" stroke-width="1px"></line><line x1="51.5625" y1="94.1590322383794" x2="46.5625" y2="94.1590322383794" style="visibility: inherit;" fill="rgb(0, 0, 0)" stroke="rgb(204, 204, 204)" stroke-width="1px"></line><line x1="51.5625" y1="58.249331024005485" x2="46.5625" y2="58.249331024005485" style="visibility: inherit;" fill="rgb(0, 0, 0)" stroke="rgb(204, 204, 204)" stroke-width="1px"></line><line x1="51.5625" y1="22.339629809631546" x2="46.5625" y2="22.339629809631546" style="visibility: inherit;" fill="rgb(0, 0, 0)" stroke="rgb(204, 204, 204)" stroke-width="1px"></line></g><g transform="translate(41.5625, 0)"><text x="0" y="345.5269407389969" dx="0em" dy="0.3em" style="text-anchor: end; visibility: inherit; font-family: Roboto, sans-serif; font-size: 12px; font-weight: 200;" fill="rgb(50, 49, 63)" stroke="none" stroke-width="1px">1e+3</text><text x="0" y="309.617239524623" dx="0em" dy="0.3em" style="text-anchor: end; visibility: inherit; font-family: Roboto, sans-serif; font-size: 12px; font-weight: 200;" fill="rgb(50, 49, 63)" stroke="none" stroke-width="1px">2e+3</text><text x="0" y="273.70753831024905" dx="0em" dy="0.3em" style="text-anchor: end; visibility: inherit; font-family: Roboto, sans-serif; font-size: 12px; font-weight: 200;" fill="rgb(50, 49, 63)" stroke="none" stroke-width="1px">3e+3</text><text x="0" y="237.7978370958751" dx="0em" dy="0.3em" style="text-anchor: end; visibility: inherit; font-family: Roboto, sans-serif; font-size: 12px; font-weight: 200;" fill="rgb(50, 49, 63)" stroke="none" stroke-width="1px">4e+3</text><text x="0" y="201.88813588150123" dx="0em" dy="0.3em" style="text-anchor: end; visibility: inherit; font-family: Roboto, sans-serif; font-size: 12px; font-weight: 200;" fill="rgb(50, 49, 63)" stroke="none" stroke-width="1px">5e+3</text><text x="0" y="165.9784346671273" dx="0em" dy="0.3em" style="text-anchor: end; visibility: inherit; font-family: Roboto, sans-serif; font-size: 12px; font-weight: 200;" fill="rgb(50, 49, 63)" stroke="none" stroke-width="1px">6e+3</text><text x="0" y="130.06873345275332" dx="0em" dy="0.3em" style="text-anchor: end; visibility: inherit; font-family: Roboto, sans-serif; font-size: 12px; font-weight: 200;" fill="rgb(50, 49, 63)" stroke="none" stroke-width="1px">7e+3</text><text x="0" y="94.1590322383794" dx="0em" dy="0.3em" style="text-anchor: end; visibility: inherit; font-family: Roboto, sans-serif; font-size: 12px; font-weight: 200;" fill="rgb(50, 49, 63)" stroke="none" stroke-width="1px">8e+3</text><text x="0" y="58.249331024005485" dx="0em" dy="0.3em" style="text-anchor: end; visibility: inherit; font-family: Roboto, sans-serif; font-size: 12px; font-weight: 200;" fill="rgb(50, 49, 63)" stroke="none" stroke-width="1px">9e+3</text><text x="0" y="22.339629809631546" dx="0em" dy="0.3em" style="text-anchor: end; visibility: inherit; font-family: Roboto, sans-serif; font-size: 12px; font-weight: 200;" fill="rgb(50, 49, 63)" stroke="none" stroke-width="1px">1e+4</text></g><line x1="51.5625" y1="0" x2="51.5625" y2="378" fill="rgb(0, 0, 0)" stroke="rgb(204, 204, 204)" stroke-width="1px"></line></g></g><g transform="translate(51, 0)" clip-path="url(#clip_0)"><clipPath id="clip_0"><rect width="1007" height="378"></rect></clipPath><g><g><g><line x1="40.56113882013661" y1="0" x2="40.56113882013661" y2="378" fill="rgb(0, 0, 0)" stroke="rgb(60, 60, 60)" stroke-width="1px" opacity="0.25"></line><line x1="125.38022493231291" y1="0" x2="125.38022493231291" y2="378" fill="rgb(0, 0, 0)" stroke="rgb(60, 60, 60)" stroke-width="1px" opacity="0.25"></line><line x1="210.1993110444892" y1="0" x2="210.1993110444892" y2="378" fill="rgb(0, 0, 0)" stroke="rgb(60, 60, 60)" stroke-width="1px" opacity="0.25"></line><line x1="295.0183971566655" y1="0" x2="295.0183971566655" y2="378" fill="rgb(0, 0, 0)" stroke="rgb(60, 60, 60)" stroke-width="1px" opacity="0.25"></line><line x1="379.8374832688418" y1="0" x2="379.8374832688418" y2="378" fill="rgb(0, 0, 0)" stroke="rgb(60, 60, 60)" stroke-width="1px" opacity="0.25"></line><line x1="464.6565693810182" y1="0" x2="464.6565693810182" y2="378" fill="rgb(0, 0, 0)" stroke="rgb(60, 60, 60)" stroke-width="1px" opacity="0.25"></line><line x1="549.4756554931944" y1="0" x2="549.4756554931944" y2="378" fill="rgb(0, 0, 0)" stroke="rgb(60, 60, 60)" stroke-width="1px" opacity="0.25"></line><line x1="634.2947416053707" y1="0" x2="634.2947416053707" y2="378" fill="rgb(0, 0, 0)" stroke="rgb(60, 60, 60)" stroke-width="1px" opacity="0.25"></line><line x1="719.1138277175471" y1="0" x2="719.1138277175471" y2="378" fill="rgb(0, 0, 0)" stroke="rgb(60, 60, 60)" stroke-width="1px" opacity="0.25"></line><line x1="803.9329138297234" y1="0" x2="803.9329138297234" y2="378" fill="rgb(0, 0, 0)" stroke="rgb(60, 60, 60)" stroke-width="1px" opacity="0.25"></line><line x1="888.7519999418996" y1="0" x2="888.7519999418996" y2="378" fill="rgb(0, 0, 0)" stroke="rgb(60, 60, 60)" stroke-width="1px" opacity="0.25"></line><line x1="973.571086054076" y1="0" x2="973.571086054076" y2="378" fill="rgb(0, 0, 0)" stroke="rgb(60, 60, 60)" stroke-width="1px" opacity="0.25"></line></g><g><line x1="0" y1="345.5269407389969" x2="1007.8375000000001" y2="345.5269407389969" fill="rgb(0, 0, 0)" stroke="rgb(60, 60, 60)" stroke-width="1px" opacity="0.25"></line><line x1="0" y1="309.617239524623" x2="1007.8375000000001" y2="309.617239524623" fill="rgb(0, 0, 0)" stroke="rgb(60, 60, 60)" stroke-width="1px" opacity="0.25"></line><line x1="0" y1="273.70753831024905" x2="1007.8375000000001" y2="273.70753831024905" fill="rgb(0, 0, 0)" stroke="rgb(60, 60, 60)" stroke-width="1px" opacity="0.25"></line><line x1="0" y1="237.7978370958751" x2="1007.8375000000001" y2="237.7978370958751" fill="rgb(0, 0, 0)" stroke="rgb(60, 60, 60)" stroke-width="1px" opacity="0.25"></line><line x1="0" y1="201.88813588150123" x2="1007.8375000000001" y2="201.88813588150123" fill="rgb(0, 0, 0)" stroke="rgb(60, 60, 60)" stroke-width="1px" opacity="0.25"></line><line x1="0" y1="165.9784346671273" x2="1007.8375000000001" y2="165.9784346671273" fill="rgb(0, 0, 0)" stroke="rgb(60, 60, 60)" stroke-width="1px" opacity="0.25"></line><line x1="0" y1="130.06873345275332" x2="1007.8375000000001" y2="130.06873345275332" fill="rgb(0, 0, 0)" stroke="rgb(60, 60, 60)" stroke-width="1px" opacity="0.25"></line><line x1="0" y1="94.1590322383794" x2="1007.8375000000001" y2="94.1590322383794" fill="rgb(0, 0, 0)" stroke="rgb(60, 60, 60)" stroke-width="1px" opacity="0.25"></line><line x1="0" y1="58.249331024005485" x2="1007.8375000000001" y2="58.249331024005485" fill="rgb(0, 0, 0)" stroke="rgb(60, 60, 60)" stroke-width="1px" opacity="0.25"></line><line x1="0" y1="22.339629809631546" x2="1007.8375000000001" y2="22.339629809631546" fill="rgb(0, 0, 0)" stroke="rgb(60, 60, 60)" stroke-width="1px" opacity="0.25"></line></g></g></g><g><g><line x1="0" y1="381.43664195337084" x2="1007.8375000000001" y2="381.43664195337084" fill="rgb(0, 0, 0)" stroke="rgb(153, 153, 153)" stroke-width="1.5px"></line></g></g><g><g><line x1="40.56113882013661" y1="0" x2="40.56113882013661" y2="378" fill="rgb(0, 0, 0)" stroke="rgb(153, 153, 153)" stroke-width="1.5px"></line></g></g><g><g><g><g><g><path stroke="rgb(255, 112, 67)" stroke-width="2px" d="M40.56113882013661,381.49127918417196L44.80209312574543,347.9558878556683L49.04304743135424,285.1809821975713L53.284001736963056,211.15365014940738L57.52495604257187,166.52524016624042L61.76591034818069,139.76610088822318L66.00686465378949,120.68624359627566L70.24781895939832,110.29860882010091L74.48877326500713,97.14312666584615L78.72972757061595,86.26057980831689L82.97068187622476,78.59478577758493L87.21163618183358,70.67485758908987L91.4525904874424,65.04165867874964L95.69354479305122,60.50975217237141L99.93449909866003,55.5621739601704L104.17545340426885,51.1863860566331L108.41640770987766,48.120904757055285L112.65736201548647,45.193777014891396L116.8983163210953,42.345102525601064L121.13927062670409,39.79156780538721L125.38022493231291,38.39103803241652L129.62117923792175,39.13544459336267L133.86213354353055,37.84523431137675L138.10308784913937,36.57798322688942L142.34404215474817,34.68419786892138L146.584996460357,33.313602912965436L150.8259507659658,31.37120210470013L155.0669050715746,30.285815745034142L159.30785937718343,28.849612075665622L163.54881368279226,27.830180128781564L167.78976798840108,27.351972481350387L172.03072229400988,27.227199584178912L176.2716765996187,27.070157989974113L180.51263090522752,28.42165413432899L184.75358521083635,28.515100893646515L188.99453951644514,29.46760605936527L193.23549382205397,28.73172719725743L197.47644812766276,28.422755044877665L201.7174024332716,28.681244119421038L205.9583567388804,28.67255989327303L210.1993110444892,28.097777046118008L214.44026535009803,26.72587923444363L218.68121965570685,26.839826296664477L222.92217396131568,25.9134607489837L227.16312826692447,24.736263787717473L231.4040825725333,23.846471639251412L235.64503687814212,23.262869382638037L239.88599118375095,22.52468556602359L244.12694548935974,22.441648285421465L248.36789979496857,21.730482999231853L252.6088541005774,21.37233749961418L256.8498084061862,20.637481969943984L261.090762711795,20.507198045907337L265.33171701740383,19.64545865417431L269.5726713230126,18.883180554903053L273.8136256286215,18.746372716797893L278.0545799342302,18.05016780405598L282.29553423983907,18.150904185432424L286.5364885454479,17.52078379914895L290.7774428510567,17.33065625096084L295.0183971566655,17.23891982114906L299.25935146227437,16.909135522743732L303.50030576788316,17.64643650838799L307.741260073492,19.273216583652648L311.98221437910075,20.46330782650773L316.2231686847096,19.580628653746313L320.46412299031846,19.532464157767286L324.7050772959272,18.784385593451777L328.94603160153605,18.08810957824998L333.18698590714484,17.709170965046223L337.4279402127537,17.42375459331213L341.6688945183625,16.628831429011594L345.9098488239713,16.844221428959663L350.15080312958014,16.570669049927957L354.391757435189,16.322127782451847L358.63271174079773,17.440447196830984L362.8736660464066,17.127381655526587L367.1146203520154,16.573048363885025L371.3555746576242,16.6582487099248L375.596528963233,15.881711708047938L379.8374832688418,15.35173417558192L384.0784375744507,14.843069457017872L388.31939188005947,14.730176606684624L392.56034618566827,14.24284657137656L396.8013004912771,13.913240715254421L401.0422547968859,14.124019208117463L405.2832091024947,13.815512902701402L409.52416340810356,14.254901968788795L413.76511771371236,14.042848950506432L418.0060720193212,13.73599857566867L422.24702632492995,14.079918951880517L426.4879806305388,14.149562624681504L430.72893493614765,14.463540820139617L434.9698892417564,14.241018474746983L439.21084354736524,13.939966210622263L443.4517978529741,13.258393871048305L447.6927521585829,12.89912212197401L451.9337064641917,12.648322152403878L456.1746607698005,12.441776356163102L460.41561507540933,13.414315164613566L464.6565693810182,13.079091962185949L468.8975236866269,12.834738707151255L473.1384779922358,12.883573756778281L477.3794322978446,12.603487400371387L481.62038660345337,12.30626974976885L485.8613409090622,11.904596613662871L490.102295214671,12.927190902313733L494.34324952027987,14.511323264297891L498.58420382588866,15.121377919062308L502.82515813149746,15.587315838400459L507.06611243710626,14.903696871645208L511.3070667427151,14.98854697850717L515.5480210483239,14.560986849789801L519.7889753539328,14.58013065010364L524.0299296595416,13.979447928043665L528.2708839651503,13.938324639614335L532.5118382707592,13.777506564329231L536.752792576368,13.111346159195188L540.9937468819768,13.246450475001778L545.2347011875856,13.096582580775257L549.4756554931944,12.833958639482587L553.7166097988032,12.792130762362554L557.9575641044121,12.796318859008101L562.1985184100208,12.675120612032087L566.4394727156298,12.643761856706139L570.6804270212385,12.479641644480209L574.9213813268473,12.117816832635324L579.1623356324562,12.288791587551147L583.403289938065,11.868862087471063L587.6442442436737,11.628436926760369L591.8851985492827,11.45686980829064L596.1261528548914,11.53603114427856L600.3671071605002,11.166753248948718L604.6080614661091,11.951641044132629L608.8490157717179,11.508419297016362L613.0899700773267,11.268714644170563L617.3309243829355,11.06112717087335L621.5718786885443,10.710047861078314L625.8128329941532,10.379127457321346L630.0537872997619,10.188054577558184L634.2947416053707,9.870602828334016L638.5356959109796,9.808915035770163L642.7766502165883,9.766722543423452L647.0176045221972,10.068136427231238L651.258558827806,9.666241654629182L655.4995131334148,9.917760705438198L659.7404674390237,10.108566902866045L663.9814217446325,9.754359547821899L668.2223760502412,9.771044523150891L672.4633303558501,9.366717357585605L676.7042846614589,9.218773386538432L680.9452389670677,9.122842001098894L685.1861932726765,9.560017929101134L689.4271475782854,9.351150488327399L693.6681018838942,9.242646883500047L697.909056189503,9.067542805283693L702.1500104951118,8.957054549796958L706.3909648007207,9.575996846608302L710.6319191063294,9.299630901236196L714.8728734119383,9.08848498904075L719.1138277175471,10.182101750032048L723.3547820231558,10.928324772154566L727.5957363287646,10.882088011267733L731.8366906343736,12.278378960336832L736.0776449399823,11.823313907053805L740.3185992455911,11.763112688225565L744.5595535512,12.153087168813418L748.8005078568087,12.270143037533652L753.0414621624176,14.001097414128939L757.2824164680264,14.07195936772611L761.5233707736352,16.802210472425493L765.764325079244,17.548517904541175L770.0052793848529,16.945189387514205L774.2462336904616,16.15353065454688L778.4871879960705,15.526972066389948L782.7281423016792,14.88505214374096L786.9690966072882,14.561262470043962L791.2100509128969,14.502791876420495L795.4510052185057,17.653875196962392L799.6919595241146,16.961121672223964L803.9329138297234,16.87707040417544L808.1738681353321,16.45713739817033L812.4148224409411,15.946989229705158L816.6557767465498,15.998859652870598L820.8967310521585,15.659831375100769L825.1376853577675,16.40633153689069L829.3786396633762,17.778864514049186L833.6195939689851,17.20378042473651L837.8605482745938,16.87928915624079L842.1015025802027,16.724051119374657L846.3424568858115,18.04380723118233L850.5834111914203,17.506093382140875L854.8243654970291,18.577274946430208L859.065319802638,17.957052923481502L863.3062741082467,17.05576001428112L867.5472284138557,17.514974516620896L871.7881827194644,16.995265075782353L876.0291370250732,19.28169676455699L880.2700913306821,18.7588983810993L884.5110456362909,18.392433055332898L888.7519999418996,18.005214599336306" style="fill: none;" fill="none"></path></g></g></g></g><g opacity="0.2"><g><g><g><path stroke="rgb(255, 112, 67)" stroke-width="2px" d="M40.56113882013661,381.49127918417196L44.80209312574543,316.09726609358995L49.04304743135424,168.8904694659466L53.284001736963056,10.548833715389277L57.52495604257187,9.237708804253518L61.76591034818069,24.750980273403783L66.00686465378949,24.652474071537405L70.24781895939832,50.76093093844276L74.48877326500713,13.013662982239573L78.72972757061595,9.807845447166867L82.97068187622476,20.150786234731537L87.21163618183358,5.78848381202365L91.4525904874424,15.846040665523278L95.69354479305122,18.605476768215357L99.93449909866003,7.40157985319551L104.17545340426885,6.564434943635399L108.41640770987766,15.51156143682925L112.65736201548647,12.83229093665289L116.8983163210953,9.71943884876705L121.13927062670409,9.582533112887237L125.38022493231291,21.32030628893017L129.62117923792175,48.46235938004694L133.86213354353055,21.26233877320031L138.10308784913937,19.900680776664245L142.34404215474817,9.208602308152024L146.584996460357,14.495884995157477L150.8259507659658,4.190957992862673L155.0669050715746,14.826156055740448L159.30785937718343,8.051531417948631L163.54881368279226,12.83716539804822L167.78976798840108,20.216223248858537L172.03072229400988,25.339913400546557L176.2716765996187,24.664362146451147L180.51263090522752,49.37458502232185L184.75358521083635,29.9801902404766L188.99453951644514,44.559493865444864L193.23549382205397,16.956050209017995L197.47644812766276,23.432210523532916L201.7174024332716,32.893189411154744L205.9583567388804,28.52988016906759L210.1993110444892,18.58036803181937L214.44026535009803,3.8421359245234488L218.68121965570685,28.753719644508323L222.92217396131568,10.251842250951238L227.16312826692447,4.710736890713733L231.4040825725333,8.621562856659207L235.64503687814212,13.221932235669424L239.88599118375095,9.757908518915638L244.12694548935974,20.998451564569315L248.36789979496857,9.312754468900739L252.6088541005774,15.091165442534436L256.8498084061862,7.695836008361345L261.090762711795,18.20370191781195L265.33171701740383,4.352551648327374L269.5726713230126,5.307595401132322L273.8136256286215,16.30178527195104L278.0545799342302,5.57046563580314L282.29553423983907,19.96204989495054L286.5364885454479,6.159644239419086L290.7774428510567,13.893415593924132L295.0183971566655,15.5762269534692L299.25935146227437,10.917469241918061L303.50030576788316,31.072700818242815L307.741260073492,48.96116757347783L311.98221437910075,42.22655560080866L316.2231686847096,3.407572430921368L320.46412299031846,18.648329946812975L324.7050772959272,5.028173038557982L328.94603160153605,5.263199227560651L333.18698590714484,10.71838782219737L337.4279402127537,12.150427430390874L341.6688945183625,1.9210721137572087L345.9098488239713,20.834753825049106L350.15080312958014,11.496092357188722L354.391757435189,11.705939673660247L358.63271174079773,38.23500294326601L362.8736660464066,11.299746246740233L367.1146203520154,6.243597193234717L371.3555746576242,18.24743179809939L375.596528963233,1.3840046585832833L379.8374832688418,5.448463828650022L384.0784375744507,5.330074032458885L388.31939188005947,12.617183410042557L392.56034618566827,5.114685961307844L396.8013004912771,7.734971971794164L401.0422547968859,18.077632214818127L405.2832091024947,8.025055026916563L409.52416340810356,22.507009696248932L413.76511771371236,10.057985973301783L418.0060720193212,7.966526422105204L422.24702632492995,20.549790707795164L426.4879806305388,15.460362058144716L430.72893493614765,20.375888160605662L434.9698892417564,10.048938411862974L439.21084354736524,8.266042787409893L443.4517978529741,0.40760445261468137L447.6927521585829,6.122577291974155L451.9337064641917,7.9160284047725185L456.1746607698005,8.543150657523132L460.41561507540933,31.77739363650734L464.6565693810182,6.747560392601683L468.8975236866269,8.218139807078973L473.1384779922358,13.806481854363168L477.3794322978446,7.308859882481817L481.62038660345337,6.686366614653362L485.8613409090622,4.307769726012179L490.102295214671,32.27192352569202L494.34324952027987,44.48539503862262L498.58420382588866,26.666889078233947L502.82515813149746,24.407102802595045L507.06611243710626,1.9609795746771161L511.3070667427151,16.59526992962983L515.5480210483239,6.463333704767211L519.7889753539328,14.942757380484403L524.0299296595416,2.599428813260019L528.2708839651503,13.159125326611854L532.5118382707592,10.729925216435168L536.752792576368,0.48563090300727296L540.9937468819768,15.807395655036718L545.2347011875856,10.255454261913222L549.4756554931944,7.854694354553803L553.7166097988032,11.999003514527933L557.9575641044121,12.875740272399584L562.1985184100208,10.376544299308982L566.4394727156298,12.048975510846784L570.6804270212385,9.366478748451923L574.9213813268473,5.2538711215811364L579.1623356324562,15.53249707318176L583.403289938065,3.901436026821813L587.6442442436737,7.066469399284787L591.8851985492827,8.201236998499546L596.1261528548914,13.038280765689263L600.3671071605002,4.158520030339943L604.6080614661091,26.848261123820627L608.8490157717179,3.0959225142298488L613.0899700773267,6.718804577176091L617.3309243829355,7.120649563714695L621.5718786885443,4.045460580422816L625.8128329941532,4.096940503648098L630.0537872997619,6.560577456200245L634.2947416053707,3.843608783362346L638.5356959109796,8.637694167751626L642.7766502165883,8.965615667805919L647.0176045221972,15.791264343944338L651.258558827806,2.0349731972965817L655.4995131334148,14.693809168647638L659.7404674390237,13.73185700652705L663.9814217446325,3.027995667303819L668.2223760502412,10.087899034957903L672.4633303558501,1.6881850768776667L676.7042846614589,6.409118472269727L680.9452389670677,7.300934499206002L685.1861932726765,17.862945505018892L689.4271475782854,5.384219128821172L693.6681018838942,7.181843341663016L697.909056189503,5.74173807792326L702.1500104951118,6.858480690395684L706.3909648007207,21.332159295776293L710.6319191063294,4.050264905682948L714.8728734119383,5.077864490336042L719.1138277175471,30.955152655673924L723.3547820231558,25.102888331691116L727.5957363287646,10.003805808871874L731.8366906343736,38.80170291555535L736.0776449399823,3.178998766355658L740.3185992455911,10.619530939655045L744.5595535512,19.561116678169338L748.8005078568087,14.493780911101927L753.0414621624176,46.883279364439446L757.2824164680264,15.41810503669613L761.5233707736352,68.66850979051553L765.764325079244,31.726159189755187L770.0052793848529,5.483637100444954L774.2462336904616,1.1141208103939666L778.4871879960705,3.6239424079650076L782.7281423016792,2.6901148360533593L786.9690966072882,8.409997204875697L791.2100509128969,13.391977295423818L795.4510052185057,77.51797171546521L799.6919595241146,3.8001594476156533L803.9329138297234,15.280252462991339L808.1738681353321,8.479151434167454L812.4148224409411,6.25502938326974L816.6557767465498,16.984315071497285L820.8967310521585,9.218807115821319L825.1376853577675,30.588761485471L829.3786396633762,43.85511665978866L833.6195939689851,6.277928831407446L837.8605482745938,10.714354994424287L842.1015025802027,13.774710185124668L846.3424568858115,43.1177053344607L850.5834111914203,7.290098466320012L854.8243654970291,38.928649320238996L859.065319802638,6.1734259899827855L863.3062741082467,-0.0679886800702163L867.5472284138557,26.239654810758648L871.7881827194644,7.121210652796149L876.0291370250732,62.722122773115366L880.2700913306821,8.8261148949243L884.5110456362909,11.42984877750714L888.7519999418996,10.648321823148214" style="fill: none;" fill="none"></path></g></g></g></g></g></g><g transform="translate(51, 378)" clip-path="url(#clip_1)"><clipPath id="clip_1"><rect width="1007" height="22"></rect></clipPath><g><g><line x1="40.56113882013661" y1="0" x2="40.56113882013661" y2="5" style="visibility: inherit;" fill="rgb(0, 0, 0)" stroke="rgb(204, 204, 204)" stroke-width="1px"></line><line x1="125.38022493231291" y1="0" x2="125.38022493231291" y2="5" style="visibility: inherit;" fill="rgb(0, 0, 0)" stroke="rgb(204, 204, 204)" stroke-width="1px"></line><line x1="210.1993110444892" y1="0" x2="210.1993110444892" y2="5" style="visibility: inherit;" fill="rgb(0, 0, 0)" stroke="rgb(204, 204, 204)" stroke-width="1px"></line><line x1="295.0183971566655" y1="0" x2="295.0183971566655" y2="5" style="visibility: inherit;" fill="rgb(0, 0, 0)" stroke="rgb(204, 204, 204)" stroke-width="1px"></line><line x1="379.8374832688418" y1="0" x2="379.8374832688418" y2="5" style="visibility: inherit;" fill="rgb(0, 0, 0)" stroke="rgb(204, 204, 204)" stroke-width="1px"></line><line x1="464.6565693810182" y1="0" x2="464.6565693810182" y2="5" style="visibility: inherit;" fill="rgb(0, 0, 0)" stroke="rgb(204, 204, 204)" stroke-width="1px"></line><line x1="549.4756554931944" y1="0" x2="549.4756554931944" y2="5" style="visibility: inherit;" fill="rgb(0, 0, 0)" stroke="rgb(204, 204, 204)" stroke-width="1px"></line><line x1="634.2947416053707" y1="0" x2="634.2947416053707" y2="5" style="visibility: inherit;" fill="rgb(0, 0, 0)" stroke="rgb(204, 204, 204)" stroke-width="1px"></line><line x1="719.1138277175471" y1="0" x2="719.1138277175471" y2="5" style="visibility: inherit;" fill="rgb(0, 0, 0)" stroke="rgb(204, 204, 204)" stroke-width="1px"></line><line x1="803.9329138297234" y1="0" x2="803.9329138297234" y2="5" style="visibility: inherit;" fill="rgb(0, 0, 0)" stroke="rgb(204, 204, 204)" stroke-width="1px"></line><line x1="888.7519999418996" y1="0" x2="888.7519999418996" y2="5" style="visibility: inherit;" fill="rgb(0, 0, 0)" stroke="rgb(204, 204, 204)" stroke-width="1px"></line><line x1="973.571086054076" y1="0" x2="973.571086054076" y2="5" style="visibility: inherit;" fill="rgb(0, 0, 0)" stroke="rgb(204, 204, 204)" stroke-width="1px"></line></g><g transform="translate(0, 8)"><text x="40.56113882013661" y="0" dx="0em" dy="0.95em" style="text-anchor: middle; visibility: inherit; font-family: Roboto, sans-serif; font-size: 12px; font-weight: 200;" fill="rgb(50, 49, 63)" stroke="none" stroke-width="1px">0</text><text x="125.38022493231291" y="0" dx="0em" dy="0.95em" style="text-anchor: middle; visibility: inherit; font-family: Roboto, sans-serif; font-size: 12px; font-weight: 200;" fill="rgb(50, 49, 63)" stroke="none" stroke-width="1px">100k</text><text x="210.1993110444892" y="0" dx="0em" dy="0.95em" style="text-anchor: middle; visibility: inherit; font-family: Roboto, sans-serif; font-size: 12px; font-weight: 200;" fill="rgb(50, 49, 63)" stroke="none" stroke-width="1px">200k</text><text x="295.0183971566655" y="0" dx="0em" dy="0.95em" style="text-anchor: middle; visibility: inherit; font-family: Roboto, sans-serif; font-size: 12px; font-weight: 200;" fill="rgb(50, 49, 63)" stroke="none" stroke-width="1px">300k</text><text x="379.8374832688418" y="0" dx="0em" dy="0.95em" style="text-anchor: middle; visibility: inherit; font-family: Roboto, sans-serif; font-size: 12px; font-weight: 200;" fill="rgb(50, 49, 63)" stroke="none" stroke-width="1px">400k</text><text x="464.6565693810182" y="0" dx="0em" dy="0.95em" style="text-anchor: middle; visibility: inherit; font-family: Roboto, sans-serif; font-size: 12px; font-weight: 200;" fill="rgb(50, 49, 63)" stroke="none" stroke-width="1px">500k</text><text x="549.4756554931944" y="0" dx="0em" dy="0.95em" style="text-anchor: middle; visibility: inherit; font-family: Roboto, sans-serif; font-size: 12px; font-weight: 200;" fill="rgb(50, 49, 63)" stroke="none" stroke-width="1px">600k</text><text x="634.2947416053707" y="0" dx="0em" dy="0.95em" style="text-anchor: middle; visibility: inherit; font-family: Roboto, sans-serif; font-size: 12px; font-weight: 200;" fill="rgb(50, 49, 63)" stroke="none" stroke-width="1px">700k</text><text x="719.1138277175471" y="0" dx="0em" dy="0.95em" style="text-anchor: middle; visibility: inherit; font-family: Roboto, sans-serif; font-size: 12px; font-weight: 200;" fill="rgb(50, 49, 63)" stroke="none" stroke-width="1px">800k</text><text x="803.9329138297234" y="0" dx="0em" dy="0.95em" style="text-anchor: middle; visibility: inherit; font-family: Roboto, sans-serif; font-size: 12px; font-weight: 200;" fill="rgb(50, 49, 63)" stroke="none" stroke-width="1px">900k</text><text x="888.7519999418996" y="0" dx="0em" dy="0.95em" style="text-anchor: middle; visibility: inherit; font-family: Roboto, sans-serif; font-size: 12px; font-weight: 200;" fill="rgb(50, 49, 63)" stroke="none" stroke-width="1px">1M</text><text x="973.571086054076" y="0" dx="0em" dy="0.95em" style="text-anchor: middle; visibility: inherit; font-family: Roboto, sans-serif; font-size: 12px; font-weight: 200;" fill="rgb(50, 49, 63)" stroke="none" stroke-width="1px">1.1M</text></g><line x1="0" y1="0" x2="1007.8375000000001" y2="0" fill="rgb(0, 0, 0)" stroke="rgb(204, 204, 204)" stroke-width="1px"></line></g></g></g></g></svg>